<svg width="49" height="48" viewBox="0 0 49 48" fill="none" xmlns="http://www.w3.org/2000/svg">
<rect x="0.5" y="-0.240234" width="48" height="48" rx="24" fill="#F15A24"/>
<g clip-path="url(#clip0_46_3370)">
<g clip-path="url(#clip1_46_3370)">
<g clip-path="url(#clip2_46_3370)">
<path d="M33.5 21.7598C33.5 28.7598 24.5 34.7598 24.5 34.7598C24.5 34.7598 15.5 28.7598 15.5 21.7598C15.5 19.3728 16.4482 17.0836 18.136 15.3958C19.8239 13.708 22.113 12.7598 24.5 12.7598C26.8869 12.7598 29.1761 13.708 30.864 15.3958C32.5518 17.0836 33.5 19.3728 33.5 21.7598Z" stroke="white" stroke-width="1.5" stroke-linecap="round" stroke-linejoin="round"/>
<path d="M24.5 24.7598C26.1569 24.7598 27.5 23.4167 27.5 21.7598C27.5 20.1029 26.1569 18.7598 24.5 18.7598C22.8431 18.7598 21.5 20.1029 21.5 21.7598C21.5 23.4167 22.8431 24.7598 24.5 24.7598Z" stroke="white" stroke-width="1.5" stroke-linecap="round" stroke-linejoin="round"/>
</g>
</g>
</g>
<defs>
<clipPath id="clip0_46_3370">
<rect width="24" height="24" fill="white" transform="translate(12.5 11.7598)"/>
</clipPath>
<clipPath id="clip1_46_3370">
<rect width="24" height="24" fill="white" transform="translate(12.5 11.7598)"/>
</clipPath>
<clipPath id="clip2_46_3370">
<rect width="24" height="24" fill="white" transform="translate(12.5 11.7598)"/>
</clipPath>
</defs>
</svg>
