<svg width="24" height="30" viewBox="0 0 24 30" fill="none" xmlns="http://www.w3.org/2000/svg">
<g clip-path="url(#clip0_367_25658)">
<path d="M21 13C21 20 12 26 12 26C12 26 3 20 3 13C3 10.613 3.94821 8.32387 5.63604 6.63604C7.32387 4.94821 9.61305 4 12 4C14.3869 4 16.6761 4.94821 18.364 6.63604C20.0518 8.32387 21 10.613 21 13Z" stroke="#F15A24" stroke-width="1.5" stroke-linecap="round" stroke-linejoin="round"/>
<path d="M12 16C13.6569 16 15 14.6569 15 13C15 11.3432 13.6569 10 12 10C10.3431 10 9 11.3432 9 13C9 14.6569 10.3431 16 12 16Z" stroke="#F15A24" stroke-width="1.5" stroke-linecap="round" stroke-linejoin="round"/>
</g>
<defs>
<clipPath id="clip0_367_25658">
<rect width="24" height="24" fill="white" transform="translate(0 3)"/>
</clipPath>
</defs>
</svg>
