<svg width="42" height="42" viewBox="0 0 42 42" fill="none" xmlns="http://www.w3.org/2000/svg">
<path d="M13.1288 20.5441H4.31245L1 16.3208V10.7725H16.4412V16.3208L13.1288 20.5441Z" stroke="#F15A24" stroke-width="2" stroke-miterlimit="10"/>
<path d="M14.8402 1.08398H2.70605V10.7728H14.8402V1.08398Z" stroke="#F15A24" stroke-width="2" stroke-miterlimit="10"/>
<path d="M37.6876 20.5441H28.8713L25.5588 16.3208V10.7725H41.0001V16.3208L37.6876 20.5441Z" stroke="#F15A24" stroke-width="2" stroke-miterlimit="10"/>
<path d="M39.3463 1.08398H27.2122V10.7728H39.3463V1.08398Z" stroke="#F15A24" stroke-width="2" stroke-miterlimit="10"/>
<path d="M35.8295 20.5449H30.7286V26.0867C30.7286 31.4597 26.3729 35.8155 20.9997 35.8155C15.6267 35.8155 11.2709 31.4598 11.2709 26.0867V20.5449H6.16992V26.0867C6.16992 34.2769 12.8095 40.9164 20.9997 40.9164C29.1899 40.9164 35.8294 34.2768 35.8294 26.0867L35.8295 20.5449Z" stroke="#F15A24" stroke-width="2" stroke-miterlimit="10"/>
<path d="M2.70605 5.92871H6.17013" stroke="#F15A24" stroke-width="2" stroke-miterlimit="10"/>
<path d="M11.3762 5.92871H14.8403" stroke="#F15A24" stroke-width="2" stroke-miterlimit="10"/>
<path d="M27.2122 5.92871H30.6762" stroke="#F15A24" stroke-width="2" stroke-miterlimit="10"/>
<path d="M35.8823 5.92871H39.3464" stroke="#F15A24" stroke-width="2" stroke-miterlimit="10"/>
</svg>
