<svg width="46" height="60" viewBox="0 0 46 60" fill="none" xmlns="http://www.w3.org/2000/svg">
<path fill-rule="evenodd" clip-rule="evenodd" d="M21.1995 43.1638L16.9243 38.9768L15.514 41.445L18.9517 45.9405L21.1995 43.1638ZM15.3377 36.4646V33.3795C12.5169 31.6606 11.1066 29.545 9.87252 26.9888C8.94697 25.0054 7.58069 21.3914 8.32994 18.4385C5.64144 13.987 7.62476 -2.98139 20.9791 0.456367C26.5765 1.9108 23.9761 2.88042 31.4246 3.32116C37.2423 3.67375 38.3882 5.34855 38.4764 8.1252C38.5205 12.0478 40.7682 13.5022 37.639 18.2181C39.2697 22.6695 35.3912 28.928 33.6723 30.8232C32.7468 31.8369 31.7331 32.6743 30.5872 33.3795V36.4646L32.7909 40.2109H34.642C40.8564 40.2109 45.9249 45.2794 45.9249 51.4938V58.6778C45.9249 59.427 45.3519 60 44.6026 60H1.32221C0.572959 60 0 59.427 0 58.6778V51.4938C0 45.2794 5.06848 40.2109 11.2829 40.2109H13.134L15.3377 36.4646ZM17.2328 31.4402C19.1721 32.4098 20.7147 32.9387 22.9624 32.9387C33.0994 32.9387 36.6253 21.0829 35.0386 18.791C34.2453 17.9977 32.879 17.6011 30.8076 17.6011C27.1054 17.6011 21.4198 19.1877 18.9958 17.6892C17.1006 16.4992 15.6021 15.7059 14.5884 15.7059C13.6629 15.7059 12.6932 16.4992 10.9744 18.791C10.4455 20.3336 10.9303 22.9781 12.2525 25.8428C13.6188 28.7076 14.8969 30.118 17.2328 31.4402ZM17.9821 34.7017V36.2883L22.9624 41.1805L27.9428 36.2883V34.7017C24.7254 35.8917 21.1995 35.8917 17.9821 34.7017ZM29.0005 38.9768L24.7254 43.1638L26.9731 45.9405L30.4109 41.445L29.0005 38.9768ZM23.0065 57.3556H34.1131V52.9041C34.1131 51.1412 36.7575 51.1412 36.7575 52.9041V57.3556H43.2804V51.4938C43.2804 46.7338 39.4019 42.8553 34.642 42.8553H32.6586L28.0309 48.8934C27.5461 49.5545 26.4883 49.5986 25.9594 48.9375L22.9624 45.1471L19.9654 48.9375C19.4365 49.5986 18.3788 49.5545 17.8939 48.8934L13.2662 42.8553H11.2829C6.52292 42.8553 2.64443 46.7338 2.64443 51.4938V57.3556H9.16734V52.9041C9.16734 51.1412 11.8118 51.1412 11.8118 52.9041V57.3556H23.0065ZM30.8076 14.9566C32.9231 14.9566 34.5979 15.3533 35.832 16.1026C37.639 13.0615 35.9201 12.2681 35.832 8.16927C35.7879 6.97928 35.7879 6.23003 31.2924 5.96559C23.2709 5.52485 25.3865 4.33486 20.318 3.01264C15.9547 1.86673 12.8695 3.32116 11.1507 7.33187C9.82845 10.3289 9.78437 13.6785 10.137 15.6177C13.4866 11.7833 15.9988 12.7089 20.4061 15.4414C21.2876 15.9703 24.4169 15.5296 25.8272 15.3533C27.458 15.177 29.1768 14.9566 30.8076 14.9566Z" fill="#F15A24"/>
</svg>
