<svg width="40" height="21" viewBox="0 0 40 21" fill="none" xmlns="http://www.w3.org/2000/svg">
<path d="M11.3127 20.8798H13.0696V13.9555H11.3127V20.8798ZM3.60101 17.4143C3.60101 19.6445 5.3311 21 7.3026 21C8.08718 21 8.68399 20.8197 8.90528 20.7529V18.8967C8.82481 18.9367 8.25482 19.2639 7.43001 19.2639C6.2565 19.2639 5.50545 18.4426 5.50545 17.4143C5.50545 16.3593 6.29003 15.5647 7.43001 15.5647C8.26823 15.5647 8.83152 15.8986 8.90528 15.9386V14.0824C8.73764 14.0356 8.12741 13.8353 7.3026 13.8353C5.17016 13.8353 3.60101 15.351 3.60101 17.4143ZM21.9145 17.4143C21.9145 19.6445 23.6446 21 25.6161 21C26.394 21 26.9975 20.8197 27.2121 20.7529V18.8967C27.1383 18.9367 26.5616 19.2639 25.7368 19.2639C24.57 19.2639 23.8122 18.4426 23.8122 17.4143C23.8122 16.3593 24.5968 15.5647 25.7368 15.5647C26.575 15.5647 27.1383 15.8986 27.2121 15.9386V14.0824C27.0444 14.0356 26.4342 13.8353 25.6161 13.8353C23.4769 13.8353 21.9145 15.351 21.9145 17.4143ZM30.9204 17.4143C30.9204 16.4127 31.6915 15.5914 32.7376 15.5914C33.777 15.5914 34.5549 16.406 34.5549 17.4143C34.5549 18.4226 33.777 19.2372 32.7376 19.2372C31.6915 19.2439 30.9204 18.4226 30.9204 17.4143ZM29.0629 17.4143C29.0629 19.3975 30.5985 21 32.7309 21C34.8701 21 36.4057 19.3975 36.4057 17.4143C36.4057 15.4378 34.8701 13.8353 32.7309 13.8353C30.5985 13.8353 29.0629 15.4378 29.0629 17.4143ZM15.4233 15.9987C15.4233 17.1472 16.2414 17.7148 17.2137 18.0219C17.321 18.0553 17.482 18.1087 17.5893 18.1421C18.0251 18.2757 18.3671 18.4827 18.3671 18.8299C18.3671 19.2238 17.9648 19.4776 17.093 19.4776C16.3286 19.4776 15.5909 19.2572 15.4367 19.2172V20.813C15.5239 20.8331 16.3956 21 17.3277 21C18.6689 21 20.2045 20.4191 20.2045 18.6763C20.2045 17.835 19.6882 17.0537 18.5482 16.6998L18.0654 16.5463C17.777 16.4528 17.2607 16.3059 17.2607 15.8852C17.2607 15.5513 17.6429 15.3176 18.347 15.3176C18.9505 15.3176 19.6949 15.518 19.715 15.5313V14.049C19.6614 14.0356 18.8567 13.8286 18.005 13.8286C16.3956 13.8353 15.4233 14.7033 15.4233 15.9987ZM0 6.51701V8.33323C0 8.81399 0.395641 9.20127 0.871752 9.20127C1.35457 9.20127 1.7435 8.81399 1.7435 8.33323V6.51701C1.7435 6.04292 1.35457 5.64896 0.871752 5.64896C0.388935 5.65564 0 6.04292 0 6.51701ZM19.1383 6.51701V8.33323C19.1383 8.81399 19.5272 9.20127 20.0101 9.20127C20.4862 9.20127 20.8751 8.81399 20.8751 8.33323V6.51701C20.8751 6.04292 20.4862 5.64896 20.0101 5.64896C19.5272 5.65564 19.1383 6.04292 19.1383 6.51701ZM38.2699 6.51701V8.33323C38.2699 8.81399 38.6588 9.20127 39.135 9.20127C39.6111 9.20127 40 8.81399 40 8.33323V6.51701C40 6.04292 39.6111 5.64896 39.135 5.64896C38.6588 5.65564 38.2699 6.04292 38.2699 6.51701ZM4.78122 4.13323V8.33323C4.78122 8.81399 5.17016 9.20127 5.65298 9.20127C6.13579 9.20127 6.52473 8.81399 6.52473 8.33323V4.13323C6.52473 3.65914 6.13579 3.26518 5.65298 3.26518C5.17016 3.26518 4.78122 3.65914 4.78122 4.13323ZM14.3504 4.13323V8.33323C14.3504 8.81399 14.7393 9.20127 15.2221 9.20127C15.7049 9.20127 16.0939 8.81399 16.0939 8.33323V4.13323C16.0939 3.65914 15.7049 3.26518 15.2221 3.26518C14.746 3.26518 14.3504 3.65914 14.3504 4.13323ZM23.9195 4.13323V8.33323C23.9195 8.81399 24.3085 9.20127 24.7913 9.20127C25.2674 9.20127 25.663 8.81399 25.663 8.33323V4.13323C25.663 3.65914 25.2741 3.26518 24.7913 3.26518C24.3085 3.26518 23.9195 3.65914 23.9195 4.13323ZM33.482 4.13323V8.33323C33.482 8.81399 33.8709 9.20127 34.347 9.20127C34.8365 9.20127 35.2255 8.81399 35.2255 8.33323V4.13323C35.2255 3.65914 34.8365 3.26518 34.347 3.26518C33.8709 3.26518 33.482 3.65914 33.482 4.13323ZM9.56915 0.868044V10.0626C9.56915 10.5434 9.95809 10.9307 10.4409 10.9307C10.917 10.9307 11.3127 10.5434 11.3127 10.0626V0.868044C11.3127 0.387281 10.9237 0 10.4409 0C9.95809 0.00667727 9.56915 0.393959 9.56915 0.868044ZM28.7075 0.868044V10.0626C28.7075 10.5434 29.0964 10.9307 29.5725 10.9307C30.0553 10.9307 30.4376 10.5434 30.4376 10.0626V0.868044C30.4376 0.387281 30.0486 0 29.5725 0C29.0964 0.00667727 28.7075 0.393959 28.7075 0.868044Z" fill="#F15A24"/>
</svg>
