<svg width="40" height="40" viewBox="0 0 40 40" fill="none" xmlns="http://www.w3.org/2000/svg">
<g clip-path="url(#clip0_203_30815)">
<g clip-path="url(#clip1_203_30815)">
<path d="M19.9304 5.08281C20.3649 5.08281 20.7171 4.73055 20.7171 4.29602V0.786797C20.7171 0.352266 20.3649 0 19.9304 0C19.4958 0 19.1436 0.352266 19.1436 0.786797V4.29602C19.1436 4.73055 19.4959 5.08281 19.9304 5.08281Z" fill="#F15A24"/>
<path d="M39.1625 27.0298L37.7726 25.6438C37.2781 25.15 36.6191 24.8779 35.9169 24.8779C35.4679 24.8779 35.0369 24.9897 34.655 25.199L32.0358 22.5829L32.1633 22.4554C33.2259 21.3908 33.2255 19.6607 32.1633 18.5996C31.7837 18.2193 31.31 17.9657 30.7937 17.859C30.8647 17.6136 30.9022 17.3565 30.9022 17.0935C30.9022 16.3626 30.6183 15.6773 30.1044 15.1655C29.7247 14.7852 29.2511 14.5316 28.7347 14.4249C28.8058 14.1795 28.8433 13.9225 28.8433 13.6594C28.8433 12.9285 28.5594 12.2433 28.0446 11.7307C27.6558 11.3424 27.1779 11.0966 26.6762 10.992C26.9446 10.0665 26.7152 9.02513 25.9871 8.29575C25.381 7.69224 24.5586 7.43286 23.766 7.51692L18.5758 6.5345C17.7842 6.38434 16.7957 6.28505 16.1717 6.85419C16.1323 6.89013 16.0922 6.93145 16.0526 6.97747C15.0851 6.62481 13.9567 6.83481 13.1819 7.60872C12.6679 8.12208 12.3848 8.80708 12.3848 9.53755C12.3848 9.80067 12.4221 10.0576 12.4931 10.3031C11.9773 10.4097 11.5043 10.663 11.1259 11.0421C10.6109 11.555 10.3269 12.2392 10.3264 12.9688C10.3262 13.2325 10.3636 13.4904 10.435 13.7365C9.91896 13.8429 9.44561 14.0957 9.06607 14.4747C8.55107 14.9892 8.26748 15.6746 8.26748 16.4047C8.26748 16.9639 8.43443 17.4966 8.74381 17.9466C8.35318 18.079 7.99537 18.2994 7.69576 18.5987C6.63248 19.6607 6.63209 21.3908 7.69647 22.4571L7.82357 22.5836L5.20404 25.1984C4.23053 24.74 3.03107 24.9118 2.22771 25.7141L0.836934 27.101C0.342246 27.595 0.0699023 28.2541 0.0698242 28.9567C0.0698242 29.6593 0.342246 30.3185 0.836934 30.8126L2.57264 32.5462C2.88006 32.8533 3.37826 32.853 3.68529 32.5456C3.9924 32.2382 3.99209 31.74 3.68467 31.4329L1.94896 29.6993C1.75193 29.5025 1.64342 29.2388 1.64342 28.9568C1.64342 28.6748 1.75193 28.4111 1.9485 28.2148L3.33936 26.8279C3.68686 26.4808 4.21873 26.429 4.62264 26.6705C4.65107 26.7133 4.68396 26.7539 4.72162 26.7916C4.78904 26.8592 4.866 26.911 4.94771 26.9489L12.9237 34.9132C12.9616 34.9958 13.0137 35.0735 13.0815 35.1415C13.1476 35.2076 13.223 35.2588 13.303 35.2965C13.4717 35.4872 13.5649 35.7308 13.5649 35.9906C13.5649 36.2726 13.4564 36.5363 13.2594 36.7331L11.8699 38.1209C11.4594 38.5297 10.7915 38.5296 10.3822 38.1222L8.64654 36.3863C8.33928 36.079 7.84115 36.079 7.53389 36.3863C7.22662 36.6936 7.22662 37.1917 7.53389 37.499L9.27084 39.2361C9.78209 39.7452 10.4535 39.9997 11.1252 39.9997C11.7971 39.9997 12.4693 39.7448 12.9812 39.2352L14.3715 37.8465C14.8662 37.3524 15.1386 36.6933 15.1386 35.9906C15.1386 35.4891 14.9991 35.0102 14.7398 34.5972L17.688 31.6527C17.6911 31.6495 17.6942 31.6463 17.6974 31.6431C18.035 31.2941 18.9751 31.3594 19.8842 31.4225C20.5301 31.4675 21.2503 31.5174 21.9539 31.4363L25.1823 34.6609C24.9732 35.0422 24.8615 35.4727 24.8615 35.921C24.8615 36.6229 25.134 37.2816 25.6287 37.7758L27.019 39.1644C27.5134 39.6583 28.1724 39.9303 28.8746 39.9303C29.5767 39.9303 30.2357 39.6583 30.7301 39.1644L39.163 30.7418C39.6577 30.2477 39.9301 29.5886 39.9301 28.886C39.9301 28.1834 39.6576 27.5243 39.1625 27.0298ZM18.2828 8.0806L21.6958 8.72661L19.653 10.7687C19.3369 10.6168 18.9038 10.3336 18.4287 9.87903C17.7783 9.25685 17.313 8.53849 17.2707 8.09044C17.2706 8.0902 17.2706 8.08997 17.2706 8.08974C17.2706 8.08966 17.2705 8.08958 17.2705 8.0895C17.2675 8.05731 17.2667 8.03161 17.2671 8.012C17.37 7.987 17.6433 7.95927 18.2828 8.0806ZM14.2939 8.72208C14.6925 8.32388 15.3117 8.27794 15.7621 8.58294C16.0173 9.6531 16.9302 10.623 17.3409 11.016C17.6453 11.3072 18.6219 12.1804 19.6077 12.4204C19.7411 12.6116 19.8137 12.8395 19.8137 13.08C19.8137 13.3897 19.6945 13.6793 19.4774 13.8962C19.2609 14.1131 18.9708 14.2325 18.6605 14.2325C18.3501 14.2325 18.0601 14.1131 17.8426 13.8952L17.8425 13.8951L17.8421 13.8947L14.2938 10.3529C14.0775 10.1368 13.9583 9.84724 13.9583 9.53755C13.9584 9.22778 14.0776 8.93817 14.2939 8.72208ZM12.2379 12.1554C12.4544 11.9386 12.7442 11.8192 13.054 11.8192C13.3643 11.8192 13.655 11.9389 13.8729 12.1565L16.7301 15.008C17.18 15.4586 17.18 16.1919 16.7316 16.641C16.514 16.8578 16.2229 16.9772 15.912 16.9772C15.6012 16.9772 15.3101 16.8578 15.0933 16.6419L15.0933 16.6418L12.9257 14.4747C12.9223 14.4714 12.9187 14.4683 12.9152 14.4648L12.2371 13.787C12.0195 13.5697 11.8997 13.2795 11.9 12.97C11.9003 12.6615 12.0197 12.3728 12.2379 12.1554ZM10.1781 15.5881C10.3947 15.3718 10.6851 15.2526 10.9959 15.2526C11.3041 15.2526 11.592 15.37 11.8077 15.5826L13.9819 17.7558C14.1987 17.9718 14.3182 18.2611 14.3182 18.5704C14.3182 18.8797 14.1987 19.169 13.9811 19.3858C13.7645 19.6021 13.4744 19.7212 13.1642 19.7212C12.8535 19.7212 12.5625 19.6018 12.3456 19.3858L11.5574 18.5986C11.5572 18.5983 11.557 18.5982 11.5569 18.598L10.1782 17.221C9.96084 17.0039 9.84115 16.7139 9.84115 16.4045C9.84115 16.0952 9.96084 15.8051 10.1781 15.5881ZM8.80779 19.712C9.02537 19.4947 9.31615 19.375 9.62654 19.375C9.93686 19.375 10.2276 19.4946 10.4451 19.7118L11.2344 20.5001C11.4512 20.7161 11.5706 21.0054 11.5706 21.3147C11.5706 21.6241 11.4512 21.9133 11.2327 22.131C11.0162 22.3478 10.7262 22.4672 10.4158 22.4672C10.1054 22.4672 9.81537 22.3479 9.59732 22.1294L9.4985 22.031C9.49717 22.0297 9.49615 22.0283 9.4949 22.027C9.49342 22.0256 9.49186 22.0243 9.49037 22.0229L8.80857 21.3438C8.35865 20.8929 8.35826 20.161 8.80779 19.712ZM24.8417 28.654C24.5346 28.3465 24.0364 28.3463 23.729 28.6533L23.029 29.3525C22.3639 30.0176 21.1587 29.9339 19.9931 29.853C18.7274 29.765 17.4186 29.6743 16.5716 30.5438L13.6736 33.4383L6.42647 26.2018L8.99115 23.6418C9.41506 23.9016 9.9042 24.0409 10.416 24.0409C11.1472 24.0409 11.8328 23.7575 12.3449 23.2444C12.8604 22.731 13.1444 22.0458 13.1444 21.3148C13.1444 21.308 13.144 21.3013 13.144 21.2945C13.1508 21.2946 13.1576 21.295 13.1644 21.295C13.8945 21.295 14.5796 21.0124 15.0924 20.5002C15.6079 19.9868 15.8919 19.3015 15.8919 18.5706C15.8919 18.5638 15.8915 18.5571 15.8915 18.5503C15.8983 18.5503 15.9052 18.5508 15.9122 18.5508C16.6421 18.5508 17.3276 18.2685 17.8438 17.7543C18.3797 17.2175 18.6448 16.5108 18.6397 15.8056C18.6468 15.8057 18.6538 15.8061 18.6608 15.8061C19.392 15.806 20.0776 15.5226 20.5905 15.0088C21.1044 14.4954 21.3876 13.8104 21.3876 13.08C21.3876 12.5691 21.2487 12.0808 20.9897 11.6577L23.2376 9.41075C23.4051 9.24395 23.6116 9.13927 23.8281 9.09606C23.8515 9.09356 23.8747 9.08981 23.8976 9.08528C24.2449 9.03739 24.6097 9.14458 24.8753 9.40911C25.3252 9.85981 25.3252 10.5931 24.8769 11.0422L24.1923 11.724C24.1901 11.7262 24.1876 11.7283 24.1854 11.7305L23.3969 12.5177C23.0894 12.8247 23.089 13.3229 23.3962 13.6304C23.7033 13.9379 24.2015 13.9381 24.5088 13.6311L25.1961 12.9447C25.1963 12.9445 25.1965 12.9443 25.1966 12.9442L25.3005 12.8407C25.7517 12.3936 26.4826 12.3946 26.9333 12.8447C27.1502 13.0606 27.2697 13.3499 27.2697 13.6593C27.2697 13.9686 27.1502 14.2579 26.9316 14.4755L26.2431 15.1654C26.243 15.1655 26.2429 15.1656 26.2429 15.1658L25.4544 15.951C25.1465 16.2576 25.1455 16.7558 25.4522 17.0636C25.7588 17.3715 26.2569 17.3725 26.5648 17.0659L27.3569 16.2771C27.5733 16.0602 27.8634 15.9408 28.1737 15.9408C28.4841 15.9408 28.7743 16.0602 28.9923 16.2786C29.2092 16.4947 29.3286 16.784 29.3286 17.0933C29.3286 17.4026 29.2092 17.6919 28.9911 17.9091L27.6184 19.2823C27.3112 19.5897 27.3113 20.0878 27.6186 20.395C27.7722 20.5486 27.9735 20.6253 28.1748 20.6253C28.3762 20.6253 28.5776 20.5484 28.7312 20.3947L29.404 19.7218C29.4078 19.7181 29.4119 19.7149 29.4158 19.7111C29.6322 19.4942 29.9223 19.3748 30.2326 19.3748C30.543 19.3748 30.8331 19.4942 31.0504 19.7118C31.4998 20.1608 31.4994 20.8929 31.0504 21.3427L30.3664 22.0259C30.3662 22.0261 30.3658 22.0264 30.3656 22.0266C30.3654 22.0268 30.3651 22.0272 30.3649 22.0274L29.2793 23.1117C28.9719 23.4188 28.9715 23.917 29.2786 24.2244C29.4322 24.3783 29.6338 24.4552 29.8353 24.4552C30.0365 24.4552 30.2377 24.3785 30.3913 24.2251L30.9223 23.6947L33.4674 26.2368L26.2209 33.4745L23.6245 30.8812C23.8055 30.7648 23.9787 30.6279 24.1413 30.4654L24.8409 29.7666C25.1485 29.4597 25.1488 28.9615 24.8417 28.654ZM38.0509 29.6284L29.618 38.0511C29.4208 38.2481 29.1567 38.3566 28.8745 38.3566C28.5923 38.3566 28.3283 38.2481 28.1309 38.051L26.7405 36.6623C26.5435 36.4656 26.435 36.2023 26.435 35.921C26.435 35.6397 26.5435 35.3765 26.7405 35.1797L35.1734 26.757C35.3708 26.5599 35.6347 26.4514 35.917 26.4514C36.1992 26.4514 36.4633 26.5599 36.6611 26.7575L38.051 28.1435C38.248 28.3403 38.3565 28.6039 38.3565 28.8859C38.3565 29.168 38.2479 29.4317 38.0509 29.6284Z" fill="#F15A24"/>
<path d="M9.48255 4.41993C9.63614 4.57321 9.83724 4.64978 10.0383 4.64978C10.2399 4.64978 10.4415 4.57274 10.5952 4.41876C10.9022 4.11118 10.9017 3.61306 10.5941 3.3061L7.72708 0.444776C7.41958 0.137823 6.92138 0.138213 6.61442 0.445869C6.30747 0.753448 6.30794 1.25157 6.61552 1.55853L9.48255 4.41993Z" fill="#F15A24"/>
<path d="M29.8219 4.64975C30.0231 4.64975 30.2244 4.57303 30.3779 4.41967L33.2428 1.55826C33.5502 1.25123 33.5505 0.753027 33.2434 0.445606C32.9364 0.138184 32.4383 0.137871 32.1308 0.444981L29.2659 3.30639C28.9585 3.61342 28.9582 4.11162 29.2653 4.41904C29.419 4.57287 29.6204 4.64975 29.8219 4.64975Z" fill="#F15A24"/>
<path d="M4.90784 33.8436C4.60323 34.1535 4.60745 34.6517 4.91737 34.9563L4.91964 34.9585C5.07253 35.1088 5.27104 35.1836 5.46948 35.1836C5.67315 35.1836 5.87683 35.1048 6.03112 34.9478C6.33573 34.638 6.33034 34.1387 6.0205 33.8341C5.71073 33.5295 5.21261 33.5338 4.90784 33.8436Z" fill="#F15A24"/>
<path d="M26.7661 27.5204C26.8858 27.5204 27.0072 27.4932 27.1212 27.4358C27.5091 27.2401 27.665 26.7669 27.4694 26.379C27.2737 25.991 26.8005 25.8351 26.4126 26.0308L26.4082 26.0329C26.0202 26.2286 25.8666 26.7007 26.0622 27.0886C26.2003 27.3627 26.4781 27.5204 26.7661 27.5204Z" fill="#F15A24"/>
</g>
</g>
<defs>
<clipPath id="clip0_203_30815">
<rect width="40" height="40" fill="white"/>
</clipPath>
<clipPath id="clip1_203_30815">
<rect width="40" height="40" fill="white"/>
</clipPath>
</defs>
</svg>
