<svg width="64" height="64" viewBox="0 0 64 64" fill="none" xmlns="http://www.w3.org/2000/svg">
<rect width="64" height="64" rx="32" fill="#E65E2F"/>
<g clip-path="url(#clip0_485_3872)">
<path d="M42.9154 38.347C43.7981 37.5941 44.3594 36.475 44.3594 35.2266C44.3594 32.965 42.5194 31.125 40.2578 31.125C38.277 31.125 36.6199 32.5364 36.2388 34.4062H32.875V33.5859C32.875 31.3801 31.6126 29.4611 29.7661 28.4997C30.715 27.6991 31.2344 26.575 31.2344 25.3828C31.2344 23.1153 29.3457 21.2812 27.0781 21.2812C24.8106 21.2812 22.9219 23.1152 22.9219 25.3828C22.9219 26.5724 23.4392 27.6974 24.3902 28.4997C22.5437 29.4611 21.2812 31.3801 21.2812 33.5859V34.4062H20.4609C19.104 34.4062 18 35.5102 18 36.8672C18 37.9366 18.6858 38.8484 19.6406 39.187V45.1797C19.6406 45.6327 20.0079 46 20.4609 46C20.9169 46 44.8487 46 45.1797 46C45.6327 46 46 45.6327 46 45.1797V43.4844C46 41.2554 44.7472 39.3166 42.9154 38.347ZM40.2578 32.7656C41.6148 32.7656 42.7188 33.8696 42.7188 35.2266C42.7188 36.5835 41.6148 37.6875 40.2578 37.6875C38.9009 37.6875 37.7969 36.5835 37.7969 35.2266C37.7969 33.8696 38.9009 32.7656 40.2578 32.7656ZM27.0781 22.9219C28.4418 22.9219 29.5938 24.0488 29.5938 25.3828C29.5938 26.7168 28.4418 27.8438 27.0781 27.8438C25.7145 27.8438 24.5625 26.7168 24.5625 25.3828C24.5625 24.0488 25.7145 22.9219 27.0781 22.9219ZM22.9219 33.5859C22.9219 31.3243 24.7864 29.4844 27.0781 29.4844C29.3699 29.4844 31.2344 31.3243 31.2344 33.5859V34.4062H22.9219V33.5859ZM19.6406 36.8672C19.6406 36.4149 20.0086 36.0469 20.4609 36.0469C20.6082 36.0469 36.1234 36.0469 36.2388 36.0469C36.3623 36.6528 36.6198 37.2103 36.9788 37.6875H20.4609C20.0086 37.6875 19.6406 37.3195 19.6406 36.8672ZM34.5156 44.3594H21.2812V39.3281H36.2594C35.1846 40.3822 34.5156 41.8558 34.5156 43.4844V44.3594ZM44.3594 44.3594H36.1562V43.4844C36.1562 41.1926 37.9962 39.3281 40.2578 39.3281C42.5194 39.3281 44.3594 41.1926 44.3594 43.4844V44.3594Z" fill="white"/>
<path d="M41.8984 21.2812H36.9766C36.5235 21.2812 36.1562 21.6485 36.1562 22.1016C36.1562 22.5546 36.5235 22.9219 36.9766 22.9219H41.8984C42.3515 22.9219 42.7188 22.5546 42.7188 22.1016C42.7188 21.6485 42.3515 21.2812 41.8984 21.2812Z" fill="white"/>
<path d="M43.5391 18H35.3359C33.979 18 32.875 19.104 32.875 20.4609V23.7422C32.875 24.8117 33.5607 25.724 34.5156 26.0626V28.6641C34.5156 28.9959 34.7155 29.295 35.022 29.4219C35.3286 29.5489 35.6814 29.4787 35.916 29.2441L38.957 26.2031H43.5391C44.896 26.2031 46 25.0991 46 23.7422V20.4609C46 19.104 44.896 18 43.5391 18ZM44.3594 23.7422C44.3594 24.1945 43.9914 24.5625 43.5391 24.5625H38.6172C38.3996 24.5625 38.191 24.649 38.0372 24.8028L36.1562 26.6837V25.3828C36.1562 24.9298 35.789 24.5625 35.3359 24.5625C34.8836 24.5625 34.5156 24.1945 34.5156 23.7422V20.4609C34.5156 20.0086 34.8836 19.6406 35.3359 19.6406H43.5391C43.9914 19.6406 44.3594 20.0086 44.3594 20.4609V23.7422Z" fill="white"/>
</g>
<defs>
<clipPath id="clip0_485_3872">
<rect width="28" height="28" fill="white" transform="translate(18 18)"/>
</clipPath>
</defs>
</svg>
