<svg width="44" height="50" viewBox="0 0 44 50" fill="none" xmlns="http://www.w3.org/2000/svg">
<path d="M43.865 0.920243V0C39.1104 0 35.8896 1.45706 34.1258 2.53068C26.6104 7.66871 24.2331 17.8681 24.2331 25C24.2331 32.1319 26.6104 42.408 34.1258 47.4693C35.8896 48.6196 38.8804 50 43.865 50V49.0797C39.2638 48.9264 36.0429 47.1626 34.2791 44.4785C32.2086 41.2577 31.4417 34.5859 31.4417 25.2301C31.4417 15.8742 32.2086 9.12577 34.2791 5.9816C36.0429 2.83743 39.2638 1.07362 43.865 0.920243ZM9.58589 2.37729C7.97546 1.22699 4.83129 0 0 0V0.920243C4.60123 1.07362 7.82209 2.83742 9.58589 5.52147C11.6564 8.74233 12.4233 15.4141 12.4233 24.7699C12.4233 34.1258 11.6564 40.8742 9.58589 44.0184C7.82209 46.7025 4.83129 48.4663 0 48.6196V49.5399C4.90798 49.5399 7.97546 48.0828 9.73927 47.0092C17.2546 41.8712 19.6319 31.6718 19.6319 24.5399C19.4785 17.638 17.1012 7.43864 9.58589 2.37729Z" fill="#F15A24"/>
</svg>
