<svg width="24" height="24" viewBox="0 0 24 24" fill="none" xmlns="http://www.w3.org/2000/svg">
<path d="M21.4219 2.85938H2.57812C1.89459 2.86012 1.23927 3.13198 0.755938 3.61531C0.272607 4.09864 0.000744455 4.75397 0 5.4375V18.5625C0.000744455 19.246 0.272607 19.9014 0.755938 20.3847C1.23927 20.868 1.89459 21.1399 2.57812 21.1406H21.4219C22.1054 21.1399 22.7607 20.868 23.2441 20.3847C23.7274 19.9014 23.9993 19.246 24 18.5625V5.4375C23.9993 4.75397 23.7274 4.09864 23.2441 3.61531C22.7607 3.13198 22.1054 2.86012 21.4219 2.85938ZM22.5938 5.4375V18.5625C22.5938 18.6195 22.5896 18.6763 22.5811 18.7327L15.8208 12L22.5811 5.26734C22.5896 5.32367 22.5938 5.38054 22.5938 5.4375ZM21.4219 4.26562C21.4758 4.2658 21.5297 4.26956 21.5831 4.27687L12 13.8202L2.41688 4.27687C2.47032 4.26956 2.52419 4.2658 2.57812 4.26562H21.4219ZM1.41891 18.7327C1.41043 18.6763 1.4062 18.6195 1.40625 18.5625V5.4375C1.4062 5.38054 1.41043 5.32367 1.41891 5.26734L8.17922 12L1.41891 18.7327ZM2.57812 19.7344C2.52419 19.7342 2.47032 19.7304 2.41688 19.7231L9.17578 12.9923L11.5041 15.3108C11.6358 15.4419 11.8141 15.5155 12 15.5155C12.1859 15.5155 12.3642 15.4419 12.4959 15.3108L14.8242 12.9923L21.5831 19.7231C21.5297 19.7304 21.4758 19.7342 21.4219 19.7344H2.57812Z" fill="#F15A24"/>
</svg>
