<svg width="64" height="64" viewBox="0 0 64 64" fill="none" xmlns="http://www.w3.org/2000/svg">
<rect width="64" height="64" rx="32" fill="#E65E2F"/>
<path d="M20 33.0166C20 34.1399 20.9106 35.0505 22.0339 35.0505H29.7492" stroke="white" stroke-width="1.7" stroke-miterlimit="10" stroke-linecap="round" stroke-linejoin="round"/>
<path d="M38.1016 43.1861L33.8392 34.1814C33.5134 33.4928 32.8122 33.0166 31.9999 33.0166C31.1875 33.0166 30.4864 33.4928 30.1605 34.1814L25.8982 43.1861" stroke="white" stroke-width="1.7" stroke-miterlimit="10" stroke-linecap="round" stroke-linejoin="round"/>
<path d="M34.2507 35.0505H41.9661C43.0893 35.0505 44 34.1399 44 33.0166" stroke="white" stroke-width="1.7" stroke-miterlimit="10" stroke-linecap="round" stroke-linejoin="round"/>
<path d="M23.8645 43.1865H40.1357" stroke="white" stroke-width="1.7" stroke-miterlimit="10" stroke-linecap="round" stroke-linejoin="round"/>
<path d="M28.1356 20.8135H20V28.9491H28.1356V20.8135Z" stroke="white" stroke-width="1.7" stroke-miterlimit="10" stroke-linecap="round" stroke-linejoin="round"/>
<path d="M24.0679 20.8135V22.8474" stroke="white" stroke-width="1.7" stroke-miterlimit="10" stroke-linecap="round" stroke-linejoin="round"/>
<path d="M44.0001 20.8135H35.8645V28.9491H44.0001V20.8135Z" stroke="white" stroke-width="1.7" stroke-miterlimit="10" stroke-linecap="round" stroke-linejoin="round"/>
<path d="M39.9321 20.8135V22.8474" stroke="white" stroke-width="1.7" stroke-miterlimit="10" stroke-linecap="round" stroke-linejoin="round"/>
</svg>
