<svg width="40" height="40" viewBox="0 0 40 40" fill="none" xmlns="http://www.w3.org/2000/svg">
<path d="M23.2153 0C21.6127 0.00147458 20.3233 0.925391 19.1846 1.93848C18.4175 1.63942 17.6199 1.39504 16.7847 1.39404C14.4146 1.39528 12.2438 2.61676 11.2598 4.60449C9.11944 5.39608 7.50244 7.27654 7.50244 9.5874C7.50244 12.672 10.3234 15.0049 13.5742 15.0049H18.75V18.7305H6.24756C5.91605 18.7318 5.59864 18.8647 5.36514 19.1001C5.13164 19.3354 5.00118 19.6538 5.00244 19.9854V23.7524H3.33008C1.50503 23.7524 0 25.2575 0 27.0825V30.4126C0 32.2376 1.50503 33.7549 3.33008 33.7549H5.00244V37.5H2.5C2.4569 37.4978 2.41371 37.4978 2.37061 37.5C2.04421 37.5241 1.74022 37.675 1.52375 37.9205C1.30728 38.166 1.19554 38.4864 1.21245 38.8133C1.22937 39.1401 1.3736 39.4474 1.61426 39.6692C1.85492 39.891 2.17286 40.0097 2.5 40H10.0024C10.1689 40.0037 10.3345 39.9741 10.4894 39.9129C10.6443 39.8518 10.7854 39.7603 10.9044 39.6439C11.0235 39.5274 11.1181 39.3884 11.1826 39.2349C11.2472 39.0814 11.2805 38.9165 11.2805 38.75C11.2805 38.5835 11.2472 38.4186 11.1826 38.2651C11.1181 38.1116 11.0235 37.9726 10.9044 37.8561C10.7854 37.7397 10.6443 37.6482 10.4894 37.5871C10.3345 37.5259 10.1689 37.4963 10.0024 37.5H7.50244V33.7549H9.1626C10.9876 33.7549 12.5024 32.2376 12.5024 30.4126V27.0825C12.5024 25.2575 10.9876 23.7524 9.1626 23.7524H7.50244V21.2329H32.4976V23.7524H29.9976C28.6342 23.7524 27.4976 24.8891 27.4976 26.2524V28.7524C27.4976 30.1158 28.6342 31.2524 29.9976 31.2524H37.5C38.8634 31.2524 40 30.1158 40 28.7524V26.2524C40 24.8891 38.8634 23.7524 37.5 23.7524H35V19.9854C35.0013 19.6538 34.8708 19.3354 34.6373 19.1001C34.4038 18.8647 34.0864 18.7318 33.7549 18.7305H21.25V15.0049H26.4282C29.6791 15.0049 32.4976 12.672 32.4976 9.5874C32.4976 7.67865 30.8658 6.53486 29.2773 5.5835C29.2797 5.53994 29.2859 5.4977 29.2871 5.4541C29.2873 5.4419 29.2873 5.42969 29.2871 5.41748C29.2871 2.33458 26.4619 -8.25e-07 23.2153 0ZM23.2153 2.5C25.2943 2.5 26.7871 3.898 26.7871 5.41748C26.7853 5.45981 26.7815 5.50215 26.7773 5.54443C26.7482 5.83197 26.8197 6.1207 26.9795 6.36151C27.1393 6.60232 27.3776 6.78032 27.6538 6.86523C29.0987 7.30181 29.9976 8.38164 29.9976 9.5874C29.9976 11.1194 28.5195 12.5024 26.4282 12.5024H20.293C20.19 12.4769 20.0841 12.4646 19.978 12.4658C19.885 12.4677 19.7925 12.48 19.7021 12.5024H13.5742C11.4829 12.5024 10.0024 11.1194 10.0024 9.5874C10.0024 8.34204 10.9607 7.22924 12.4854 6.82861C12.6848 6.77658 12.8684 6.67601 13.0196 6.53587C13.1708 6.39573 13.285 6.22036 13.3521 6.02539C13.7601 4.8429 15.1265 3.88514 16.7847 3.88428C17.4284 3.88505 18.0593 4.03334 18.6035 4.29932C18.8663 4.42875 19.1663 4.46177 19.451 4.3926C19.7356 4.32344 19.987 4.15649 20.1611 3.9209C20.7795 3.08171 21.9366 2.50118 23.2153 2.5ZM3.33008 26.2524H9.1626C9.64589 26.2524 10.0024 26.5992 10.0024 27.0825V30.4126C10.0024 30.8959 9.64589 31.2524 9.1626 31.2524H6.4624C6.38499 31.2394 6.30652 31.2337 6.22803 31.2354C6.16829 31.2368 6.10873 31.2425 6.0498 31.2524H3.33008C2.84679 31.2524 2.5 30.8959 2.5 30.4126V27.0825C2.5 26.5992 2.84679 26.2524 3.33008 26.2524ZM29.9976 26.2524H37.5V28.7524H29.9976V26.2524ZM29.9976 32.4976C28.6342 32.4976 27.4976 33.6366 27.4976 35V37.5C27.4976 38.8634 28.6342 40 29.9976 40H37.5C38.8634 40 40 38.8634 40 37.5V35C40 33.6366 38.8634 32.4976 37.5 32.4976H29.9976ZM29.9976 35H37.5V37.5H29.9976V35Z" fill="#F15A24"/>
</svg>
