<svg width="40" height="40" viewBox="0 0 40 40" fill="none" xmlns="http://www.w3.org/2000/svg">
<g clip-path="url(#clip0_203_30830)">
<path fill-rule="evenodd" clip-rule="evenodd" d="M36.1947 39.2761C35.7596 39.2761 32.217 37.4426 31.5333 37.1318L27.2448 39.1828C26.5922 39.4936 25.8153 38.9342 25.9396 38.2195L26.5611 33.527L23.2982 30.0776C22.7699 29.5493 23.0495 28.6481 23.7954 28.5238L28.4568 27.6847L30.6942 23.4894C31.0672 22.8369 31.9994 22.8369 32.3413 23.4894L34.6098 27.6847L39.2712 28.5238C39.986 28.6481 40.2967 29.5493 39.7684 30.0776L36.5055 33.527L37.127 38.2195C37.2202 38.7788 36.7541 39.2761 36.1947 39.2761ZM3.82371 39.2761C3.26435 39.2761 2.82928 38.7788 2.89143 38.2195L3.54403 33.527L0.249972 30.0776C-0.247244 29.5493 0.0324398 28.6481 0.778264 28.5238L5.43967 27.6847L7.67714 23.4894C8.05005 22.8369 8.98233 22.8369 9.32417 23.4894L11.5927 27.6847L16.2541 28.5238C16.9689 28.6481 17.2796 29.5493 16.7513 30.0776L13.4884 33.527L14.1099 38.2195C14.2031 38.9342 13.4573 39.4936 12.7736 39.1828L8.51619 37.1318C7.83252 37.4426 4.28985 39.2761 3.82371 39.2761ZM2.79821 30.0465L5.19106 32.5636C5.40859 32.7501 5.50182 33.0298 5.43967 33.3095L4.97353 36.7589L8.1122 35.2362C8.36081 35.1119 8.67157 35.1119 8.92018 35.2362L12.0278 36.7589L11.5616 33.3095C11.5306 33.0298 11.6238 32.7501 11.8103 32.5636L14.2031 30.0465L10.8158 29.425C10.5361 29.3939 10.2875 29.2074 10.1632 28.9588L8.51619 25.9134L6.86916 28.9588C6.74486 29.2074 6.49625 29.3939 6.21657 29.425L2.79821 30.0465ZM31.5333 35.143C31.9684 35.143 34.4855 36.4792 35.0449 36.7589L34.5787 33.3095C34.5477 33.0298 34.6409 32.7501 34.8274 32.5636L37.2202 30.0465L33.8329 29.425C33.5532 29.3628 33.3046 29.2074 33.1803 28.9588L31.5333 25.9134L29.8863 28.9588C29.762 29.2074 29.5134 29.3628 29.2337 29.425L25.8153 30.0465L28.2082 32.5636C28.4257 32.7501 28.5189 33.0298 28.4568 33.3095L27.9906 36.7589C28.5811 36.4792 31.0982 35.143 31.5333 35.143Z" fill="#F15A24"/>
<path fill-rule="evenodd" clip-rule="evenodd" d="M14.5119 20C13.8544 20 13.3431 19.389 13.4161 18.7017L14.1831 12.8974L10.3115 8.6969C9.69059 8.04773 10.0558 6.94033 10.8959 6.78759L16.4112 5.71838L19.0409 0.601432C19.4427 -0.200477 20.5385 -0.200477 20.9768 0.601432L23.6066 5.71838L29.0853 6.78759C29.9619 6.94033 30.2906 8.04773 29.7062 8.6969L25.8346 12.8974L26.6016 18.7017C26.7112 19.58 25.798 20.2673 25.031 19.8854L19.9906 17.327C19.2236 17.747 15.0232 20 14.5119 20ZM23.2321 16.4015C23.6435 16.614 23.9807 16.7882 24.1545 16.869L23.6066 12.6685C23.5701 12.3248 23.6432 11.9811 23.8988 11.7138L26.7113 8.65894L22.6935 7.89521C22.3648 7.81884 22.0726 7.62791 21.9265 7.32242L19.9907 3.54199L18.0914 7.32242C17.9088 7.62791 17.6166 7.81884 17.2878 7.89521L13.3066 8.65894L16.1191 11.7138C16.3382 11.9811 16.4478 12.3248 16.4112 12.6685L15.8634 16.869C16.0423 16.7858 16.3915 16.6038 16.8155 16.3827C17.9497 15.7914 19.6185 14.9215 19.9907 14.9215C20.3668 14.9215 22.0871 15.81 23.2321 16.4015Z" fill="#F15A24"/>
</g>
<defs>
<clipPath id="clip0_203_30830">
<rect width="40" height="40" fill="white"/>
</clipPath>
</defs>
</svg>
