<svg width="207" height="41" viewBox="0 0 207 41" fill="none" xmlns="http://www.w3.org/2000/svg">
<path d="M106.567 19.8725C104.857 19.8725 103.626 20.4321 102.376 21.0018V33.9046C103.575 34.0217 104.256 34.0217 105.395 34.0217C109.498 34.0217 110.06 32.1432 110.06 29.5247V23.3607C110.06 21.4265 109.418 19.8725 106.567 19.8725ZM79.3214 19.1679C76.4745 19.1679 75.8273 20.7287 75.8273 22.6612V23.7458H82.8155V22.6612C82.8147 20.7279 82.1649 19.1679 79.3214 19.1679ZM26.5422 32.5991C26.5422 34.1262 27.2636 34.921 28.8581 34.921C30.5689 34.921 31.5802 34.3647 32.8292 33.7908V30.7324H29.089C27.3192 30.7332 26.5422 31.0602 26.5422 32.5991ZM133.072 19.8725C130.22 19.8725 129.233 21.4265 129.233 23.359V30.4206C129.233 32.3606 130.22 33.9164 133.072 33.9164C135.914 33.9164 136.91 32.3589 136.91 30.4206V23.359C136.909 21.4265 135.914 19.8725 133.072 19.8725ZM12.5691 40.5136H4.19025V20.2559H0V13.2736H4.19025V9.08252C4.19025 3.38709 6.55505 0 13.2702 0H18.8645V6.98234H15.3704C12.7545 6.98234 12.5809 7.95826 12.5809 9.77865L12.5691 13.2728H18.905L18.1633 20.2551H12.5691V40.5136ZM41.2139 40.5658H34.229L33.929 38.8011C30.7383 40.5658 27.8914 40.8524 26.0137 40.8524C20.8897 40.8524 18.1642 37.4349 18.1642 32.7087C18.1642 27.1338 21.3448 25.1423 27.0369 25.1423H32.8301V23.9372C32.8301 21.0894 32.5031 20.2551 28.1207 20.2551H20.9538L21.6549 13.2728H29.4876C39.1053 13.2728 41.2139 16.3093 41.2139 23.9936V40.5658ZM64.9665 20.7683C60.6203 20.0233 59.3714 19.8598 57.2813 19.8598C53.5242 19.8598 52.3882 20.6883 52.3882 23.8731V29.9006C52.3882 33.0863 53.5242 33.9172 57.2813 33.9172C59.3714 33.9172 60.6203 33.7529 64.9665 33.0053V39.8132C61.158 40.6678 58.6786 40.8911 56.5835 40.8911C47.5836 40.8911 44.0094 36.1657 44.0094 29.3376V24.4462C44.0094 17.6147 47.5836 12.8792 56.5835 12.8792C58.6786 12.8792 61.1597 13.1059 64.9665 13.9596V20.7683ZM91.1943 29.3376H75.8264V29.9006C75.8264 33.0863 76.9625 33.9172 80.7179 33.9172C84.0957 33.9172 86.1554 33.7529 90.494 33.0053V39.8132C86.3105 40.6678 84.1311 40.8911 80.0234 40.8911C71.0243 40.8911 67.4459 36.1657 67.4459 29.3376V23.745C67.4459 17.7731 70.1023 12.8792 79.3222 12.8792C88.5438 12.8792 91.1952 17.715 91.1952 23.745L91.1943 29.3376ZM118.439 29.4657C118.439 36.0646 116.552 40.8776 105.113 40.8776C100.985 40.8776 98.5584 40.5136 93.9982 39.8124V2.09597L102.376 0.701181V13.893C104.186 13.2205 106.531 12.88 108.664 12.88C117.045 12.88 118.44 16.6329 118.44 22.6595L118.439 29.4657ZM145.298 29.6098C145.298 35.3019 142.945 40.8237 133.099 40.8237C123.248 40.8237 120.851 35.3019 120.851 29.6098V24.1141C120.851 18.4204 123.248 12.8977 133.099 12.8977C142.945 12.8977 145.298 18.4204 145.298 24.1141V29.6098ZM172.135 29.6098C172.135 35.3019 169.779 40.8237 159.937 40.8237C150.086 40.8237 147.688 35.3019 147.688 29.6098V24.1141C147.688 18.4204 150.086 12.8977 159.937 12.8977C169.779 12.8977 172.135 18.4204 172.135 24.1141V29.6098ZM199.681 40.5136H190.597L182.917 27.7111V40.5136H174.538V2.09597L182.917 0.701181V25.4331L190.597 13.2736H199.681L191.295 26.5422L199.681 40.5136ZM159.909 19.8725C157.063 19.8725 156.075 21.4265 156.075 23.359V30.4206C156.075 32.3606 157.063 33.9164 159.909 33.9164C162.751 33.9164 163.757 32.3589 163.757 30.4206V23.359C163.757 21.4265 162.751 19.8725 159.909 19.8725ZM204.465 35.7368C205.876 35.7368 207 36.8855 207 38.3198C207 39.777 205.876 40.9139 204.453 40.9139C203.042 40.9139 201.894 39.7762 201.894 38.3198C201.894 36.8855 203.042 35.7368 204.453 35.7368H204.465ZM204.451 36.1388C203.316 36.1388 202.386 37.1147 202.386 38.3215C202.386 39.5494 203.316 40.5153 204.465 40.5153C205.612 40.5271 206.531 39.5494 206.531 38.3325C206.531 37.1164 205.612 36.1388 204.465 36.1388H204.451ZM203.969 39.8259H203.512V36.9419C203.752 36.9074 203.981 36.8745 204.325 36.8745C204.763 36.8745 205.049 36.9647 205.222 37.0919C205.394 37.2192 205.484 37.4139 205.484 37.6895C205.484 38.0679 205.234 38.2979 204.924 38.3906V38.4134C205.176 38.4597 205.349 38.6864 205.405 39.1112C205.474 39.5604 205.543 39.7332 205.589 39.8259H205.107C205.038 39.7349 204.967 39.4685 204.912 39.0918C204.843 38.7227 204.66 38.5845 204.29 38.5845H203.97V39.8259H203.969ZM203.969 38.2288H204.303C204.68 38.2288 205.003 38.0906 205.003 37.735C205.003 37.4804 204.818 37.2285 204.303 37.2285C204.153 37.2285 204.048 37.2411 203.969 37.2512V38.2288Z" fill="#F15A24"/>
</svg>
