<svg width="48" height="48" viewBox="0 0 48 48" fill="none" xmlns="http://www.w3.org/2000/svg">
<rect x="0.5" y="0.5" width="47" height="47" rx="23.5" fill="#07090D"/>
<rect x="0.5" y="0.5" width="47" height="47" rx="23.5" stroke="#1B212C"/>
<path d="M24.0002 16.3604C19.7813 16.3604 16.3613 19.7803 16.3613 23.9992C16.3613 27.8118 19.1549 30.972 22.807 31.5457V26.2069H20.8667V23.9992H22.807V22.3164C22.807 20.4021 23.9467 19.3449 25.6922 19.3449C26.5279 19.3449 27.4018 19.4938 27.4018 19.4938V21.373H26.4393C25.4898 21.373 25.1942 21.9619 25.1942 22.5662V23.9992H27.3124L26.974 26.2069H25.1942V31.5457C28.8456 30.9728 31.6391 27.811 31.6391 23.9992C31.6391 19.7803 28.2192 16.3604 24.0002 16.3604Z" fill="white"/>
</svg>
