<svg width="24" height="24" viewBox="0 0 24 24" fill="none" xmlns="http://www.w3.org/2000/svg">
<path d="M22.0465 22.7677H1.95349C1.43558 22.7671 0.939072 22.5611 0.572859 22.1949C0.206645 21.8287 0.000629215 21.3322 0 20.8142V14.1166C0.000629215 13.5987 0.206645 13.1022 0.572859 12.7359C0.939072 12.3697 1.43558 12.1637 1.95349 12.1631H22.0465C22.5644 12.1637 23.0609 12.3697 23.4271 12.7359C23.7934 13.1022 23.9994 13.5987 24 14.1166V20.8142C23.9994 21.3322 23.7934 21.8287 23.4271 22.1949C23.0609 22.5611 22.5644 22.7671 22.0465 22.7677ZM1.95349 13.8375C1.87952 13.8376 1.80862 13.8671 1.75631 13.9194C1.70401 13.9717 1.67456 14.0426 1.67442 14.1166V20.8142C1.67456 20.8882 1.70401 20.9591 1.75631 21.0114C1.80862 21.0637 1.87952 21.0932 1.95349 21.0933H22.0465C22.1205 21.0932 22.1914 21.0637 22.2437 21.0114C22.296 20.9591 22.3254 20.8882 22.3256 20.8142V14.1166C22.3254 14.0426 22.296 13.9717 22.2437 13.9194C22.1914 13.8671 22.1205 13.8376 22.0465 13.8375H1.95349Z" fill="#F15A24"/>
<path d="M20.9302 13.8372H3.06976C2.84774 13.8372 2.63482 13.7489 2.47783 13.5919C2.32083 13.4349 2.23261 13.222 2.23255 13V5.64826C2.23189 5.39163 2.28213 5.13743 2.38037 4.90035C2.47861 4.66327 2.62289 4.44803 2.80487 4.26709L5.49963 1.57232C5.68058 1.39035 5.89582 1.24606 6.13289 1.14782C6.36997 1.04959 6.62418 0.999345 6.8808 1.00001H19.8139C20.3318 1.00064 20.8284 1.20665 21.1946 1.57286C21.5608 1.93908 21.7668 2.43559 21.7674 2.95349V13C21.7674 13.222 21.6791 13.4349 21.5222 13.5919C21.3652 13.7489 21.1522 13.8372 20.9302 13.8372ZM3.90697 12.1628H20.093V2.95349C20.0929 2.87952 20.0634 2.80862 20.0111 2.75632C19.9588 2.70401 19.8879 2.67457 19.8139 2.67442H6.8808C6.80686 2.67477 6.73601 2.70413 6.68349 2.75618L3.98872 5.45095C3.93667 5.50346 3.90732 5.57432 3.90697 5.64826V12.1628Z" fill="#F15A24"/>
<path d="M7.53487 7.13953H3.06975C2.84771 7.13953 2.63476 7.05133 2.47776 6.89432C2.32075 6.73732 2.23254 6.52437 2.23254 6.30233C2.23254 6.08028 2.32075 5.86734 2.47776 5.71033C2.63476 5.55332 2.84771 5.46512 3.06975 5.46512H6.69766V1.83721C6.69766 1.61517 6.78587 1.40222 6.94287 1.24521C7.09988 1.08821 7.31283 1 7.53487 1C7.75691 1 7.96986 1.08821 8.12687 1.24521C8.28387 1.40222 8.37208 1.61517 8.37208 1.83721V6.30233C8.37202 6.52435 8.2838 6.73726 8.1268 6.89426C7.96981 7.05125 7.75689 7.13948 7.53487 7.13953Z" fill="#F15A24"/>
<path d="M17.5814 18.3023H6.4186C6.19656 18.3023 5.98361 18.2141 5.8266 18.0571C5.6696 17.9001 5.58139 17.6872 5.58139 17.4651C5.58139 17.2431 5.6696 17.0301 5.8266 16.8731C5.98361 16.7161 6.19656 16.6279 6.4186 16.6279H17.5814C17.8034 16.6279 18.0164 16.7161 18.1734 16.8731C18.3304 17.0301 18.4186 17.2431 18.4186 17.4651C18.4186 17.6872 18.3304 17.9001 18.1734 18.0571C18.0164 18.2141 17.8034 18.3023 17.5814 18.3023Z" fill="#F15A24"/>
</svg>
