<svg width="26" height="42" viewBox="0 0 26 42" fill="none" xmlns="http://www.w3.org/2000/svg">
<path d="M1.88892 40.9999V26.9258H24.1111V40.9999" stroke="#F15A24" stroke-width="1.5" stroke-miterlimit="10" stroke-linecap="round" stroke-linejoin="round"/>
<path d="M21.8889 26.9259V21H18.9259H15.9629H14.2815H11.7185H4.11108V26.9259" stroke="#F15A24" stroke-width="1.5" stroke-miterlimit="10" stroke-linecap="round" stroke-linejoin="round"/>
<path d="M11.5186 4.875V21.0009" stroke="#F15A24" stroke-width="1.5" stroke-miterlimit="10" stroke-linecap="round" stroke-linejoin="round"/>
<path d="M14.4814 4.875V21.0009" stroke="#F15A24" stroke-width="1.5" stroke-miterlimit="10" stroke-linecap="round" stroke-linejoin="round"/>
<path d="M19.6667 21.0002C19.6816 20.415 19.9556 12.1632 22.9705 6.89648" stroke="#F15A24" stroke-width="1.5" stroke-miterlimit="10" stroke-linecap="round" stroke-linejoin="round"/>
<path d="M6.33349 21.0002C6.31867 20.415 6.0446 12.1632 3.02979 6.89648" stroke="#F15A24" stroke-width="1.5" stroke-miterlimit="10" stroke-linecap="round" stroke-linejoin="round"/>
<path d="M16.7039 20.9994C16.7039 20.9845 16.7039 20.9845 16.7039 20.9771C16.7113 20.5549 16.9113 11.392 20.489 5.27344" stroke="#F15A24" stroke-width="1.5" stroke-miterlimit="10" stroke-linecap="round" stroke-linejoin="round"/>
<path d="M9.29642 20.9994C9.29642 20.9845 9.29642 20.9845 9.29642 20.9771C9.28901 20.5549 9.08901 11.392 5.51123 5.27344" stroke="#F15A24" stroke-width="1.5" stroke-miterlimit="10" stroke-linecap="round" stroke-linejoin="round"/>
<path d="M13.0001 5.44444C14.2274 5.44444 15.2223 4.44952 15.2223 3.22222C15.2223 1.99492 14.2274 1 13.0001 1C11.7728 1 10.7778 1.99492 10.7778 3.22222C10.7778 4.44952 11.7728 5.44444 13.0001 5.44444Z" stroke="#F15A24" stroke-width="1.5" stroke-miterlimit="10" stroke-linecap="round" stroke-linejoin="round"/>
<path d="M22.6297 6.92589C23.857 6.92589 24.8519 5.93097 24.8519 4.70367C24.8519 3.47637 23.857 2.48145 22.6297 2.48145C21.4024 2.48145 20.4075 3.47637 20.4075 4.70367C20.4075 5.93097 21.4024 6.92589 22.6297 6.92589Z" stroke="#F15A24" stroke-width="1.5" stroke-miterlimit="10" stroke-linecap="round" stroke-linejoin="round"/>
<path d="M3.37042 6.92589C4.59772 6.92589 5.59264 5.93097 5.59264 4.70367C5.59264 3.47637 4.59772 2.48145 3.37042 2.48145C2.14312 2.48145 1.14819 3.47637 1.14819 4.70367C1.14819 5.93097 2.14312 6.92589 3.37042 6.92589Z" stroke="#F15A24" stroke-width="1.5" stroke-miterlimit="10" stroke-linecap="round" stroke-linejoin="round"/>
</svg>
