<svg width="266" height="50" viewBox="0 0 266 50" fill="none" xmlns="http://www.w3.org/2000/svg">
<path fill-rule="evenodd" clip-rule="evenodd" d="M48.236 0H39.3143C40.2947 0.490218 40.8829 1.5687 40.8829 2.84327C40.8829 3.92175 40.5888 5.49044 39.9025 7.25523L35.3927 19.2165L27.3533 0.0980458H20.1964C22.2552 1.5687 23.1376 4.60805 21.667 7.94153L16.3728 19.8048L8.43149 0.0980458H0C1.37257 0.980438 2.35297 3.03935 3.52946 5.88262L11.7649 25.7855C12.8433 28.5307 14.1178 29.9033 16.7649 31.0798L25.2945 12.3535L31.1769 25.6874C32.3534 28.3346 33.5299 29.8053 36.177 30.9818L48.236 0Z" fill="#F15A24"/>
<path fill-rule="evenodd" clip-rule="evenodd" d="M67.6467 24.9007C65.4898 26.3714 63.2349 27.0577 60.0976 27.0577C58.4309 27.0577 56.9603 26.9596 55.7838 26.6655V19.0181H58.0387C60.7838 19.0181 61.7643 19.2142 62.5486 19.9985V15.4885H55.8818V9.11571C55.8818 9.11571 56.9603 9.01767 59.0191 9.01767C61.4701 9.01767 63.2349 9.40984 64.2153 10.3903V5.78223H48.0386C49.3131 6.46853 49.5092 7.44897 49.5092 11.4688V24.5085C49.5092 28.6264 49.3131 29.6068 48.0386 30.1951H65.7839L67.6467 24.9007Z" fill="#F15A24"/>
<path fill-rule="evenodd" clip-rule="evenodd" d="M88.2358 23.1363C88.2358 15.685 76.2749 16.1752 76.2749 11.6652C76.2749 10.2926 77.5494 9.1161 79.8043 9.1161C82.1573 9.1161 84.2161 9.90044 86.4711 11.8613V6.56696C84.2161 5.9787 82.3534 5.68457 80.0984 5.68457C75.1964 5.68457 70.0983 8.42979 70.0983 13.0378C70.0983 21.3715 82.0592 20.195 82.0592 24.9011C82.0592 26.5679 80.4906 27.7444 77.7455 27.7444C74.7062 27.7444 71.765 26.5679 68.6277 24.1168L70.2944 29.9013C72.7454 30.7837 74.8042 31.1759 77.1572 31.1759C83.4318 31.2739 88.2358 28.0385 88.2358 23.1363Z" fill="#F15A24"/>
<path fill-rule="evenodd" clip-rule="evenodd" d="M109.809 5.78223H88.7303L87.2596 10.3903C88.8283 9.31179 90.2989 9.01767 92.848 9.01767H95.397V24.6066C95.397 28.7244 95.2009 29.7049 93.8284 30.2931H103.044C101.77 29.6068 101.574 28.6264 101.574 24.6066V9.01767H103.829C106.181 9.01767 107.75 9.31179 108.534 10.3903L109.809 5.78223Z" fill="#F15A24"/>
<path fill-rule="evenodd" clip-rule="evenodd" d="M121.571 30.2931C120.297 29.6068 120.199 28.6264 120.199 24.6066V11.4688C120.199 7.35093 120.395 6.37049 121.571 5.78223H112.748C114.022 6.46853 114.12 7.44897 114.12 11.4688V24.5086C114.12 28.6264 113.924 29.6068 112.748 30.1951H121.571" fill="#F15A24"/>
<path fill-rule="evenodd" clip-rule="evenodd" d="M151.959 5.78223H143.527C145.194 6.66462 145.39 8.4294 145.39 11.0766V20.979L134.507 8.91962C133.429 7.64505 132.645 6.76266 131.958 5.88027H124.507C126.076 6.76266 126.762 8.33136 126.762 11.5668V24.9007C126.762 27.6459 126.566 29.4107 124.899 30.1951H133.331C131.664 29.3127 131.468 27.5479 131.468 24.9007V14.8022L142.645 27.2538C144.213 29.0186 146.272 29.8029 149.998 30.2931V11.0766C150.096 8.4294 150.292 6.66462 151.959 5.78223Z" fill="#F15A24"/>
<path fill-rule="evenodd" clip-rule="evenodd" d="M13.2362 45.8826V48.0395C13.2362 48.5298 13.3342 49.4122 12.6479 49.7063H15.0989C14.4127 49.5102 14.5107 48.6278 14.5107 48.0395V43.5295C14.5107 43.0393 14.4127 42.1569 15.0989 41.8628H12.746C13.4322 42.0589 13.3342 42.9413 13.3342 43.5295V45.0002H8.82434V43.5295C8.82434 42.9413 8.7263 42.1569 9.41258 41.8628H6.86353C7.54981 42.0589 7.45177 42.9413 7.45177 43.5295V48.0395C7.45177 48.5298 7.54981 49.4122 6.86353 49.7063H9.2165C8.62826 49.5102 8.62826 48.6278 8.62826 48.0395V45.8826H13.2362Z" fill="#F15A24"/>
<path fill-rule="evenodd" clip-rule="evenodd" d="M23.2349 42.5495C25.1957 42.5495 26.3722 44.2162 26.3722 45.981C26.3722 47.7458 25.1957 49.0204 23.2349 49.0204C21.274 49.0204 19.9995 47.3536 19.9995 45.6869C20.0976 43.9221 21.274 42.5495 23.2349 42.5495ZM23.3329 41.6671C20.6858 41.5691 18.627 43.5299 18.627 45.7849C18.627 48.236 20.6858 49.9028 23.2349 49.9028C25.7839 49.9028 27.8428 48.138 27.8428 45.6869C27.8428 43.628 25.98 41.6671 23.3329 41.6671Z" fill="#F15A24"/>
<path fill-rule="evenodd" clip-rule="evenodd" d="M33.9204 42.94H34.9008C35.293 42.94 35.6852 43.0381 35.8812 43.4302L36.2734 42.0576C36.1754 42.1557 35.9793 42.1557 35.7832 42.1557H31.2733C31.1753 42.1557 30.9792 42.1557 30.8812 42.0576L30.489 43.4302C30.8812 43.0381 31.3714 42.94 31.8616 42.94H32.842V48.2344C32.842 48.7246 32.94 49.607 32.3518 49.8031H34.6067C34.0185 49.4109 34.0185 49.0187 34.0185 48.3324V42.94" fill="#F15A24"/>
<path fill-rule="evenodd" clip-rule="evenodd" d="M40.7897 46.0774H41.574C41.8682 46.0774 42.3584 46.0774 42.5545 46.3715V45.097C42.4564 45.195 42.2603 45.195 42.0642 45.195H40.7897V43.0381C41.0838 42.94 41.476 42.94 41.8682 42.94C42.3584 42.94 42.7505 42.94 43.1427 43.4302V42.0576C43.0447 42.1557 42.8486 42.1557 42.6525 42.1557H39.2211C39.8093 42.3517 39.7113 43.2341 39.7113 43.8224V48.3324C39.7113 48.8226 39.8093 49.705 39.2211 49.9991H43.6329L44.1231 48.4305C43.6329 48.9207 42.8486 49.2148 42.1623 49.1168L40.7897 49.0187V46.0774Z" fill="#F15A24"/>
<path fill-rule="evenodd" clip-rule="evenodd" d="M50.2954 48.7258V43.5295C50.2954 43.0393 50.1973 42.1569 50.8836 41.8628H48.5306C49.1189 42.0589 49.1189 42.9413 49.1189 43.5295V48.0395C49.1189 48.5298 49.2169 49.4122 48.5306 49.7063H53.5307L54.119 48.1376C53.5307 48.6278 52.7464 48.9219 51.9621 48.8239L50.2954 48.7258Z" fill="#F15A24"/>
<path fill-rule="evenodd" clip-rule="evenodd" d="M62.1573 41.9577C61.5691 41.7616 60.9808 41.6636 60.2945 41.6636C58.8239 41.6636 57.2553 42.2518 57.2553 43.7225C57.2553 46.2716 61.471 45.8795 61.471 47.7423C61.471 48.5266 60.3926 49.0168 59.7063 49.0168C58.7259 49.0168 57.7455 48.6247 57.0592 48.0364L57.4514 49.5071C58.1376 49.8012 58.922 49.8992 59.6083 49.8992C61.471 49.8992 62.8436 48.7227 62.8436 47.4481C62.8436 45.2912 58.6279 45.2912 58.6279 43.6244C58.6279 42.8401 59.5102 42.546 60.1965 42.546C60.8828 42.546 61.6671 42.8401 62.1573 43.3303V41.9577Z" fill="#F15A24"/>
<path fill-rule="evenodd" clip-rule="evenodd" d="M75.8887 48.0364C75.4965 48.6247 74.8102 49.0168 74.124 49.0168C73.1436 49.0168 72.4573 48.4286 72.4573 47.4481C72.4573 46.6638 72.9475 46.0755 73.5357 45.6834L75.8887 48.0364ZM73.7318 44.4088C73.4377 44.1147 72.8494 43.6244 72.8494 43.1342C72.8494 42.644 73.2416 42.4479 73.6338 42.4479C74.124 42.4479 74.5161 42.7421 74.5161 43.1342C74.5161 43.7225 74.124 44.1147 73.7318 44.4088ZM80.3986 49.7032C78.0456 48.6247 76.2809 46.7618 74.4181 45.0951C75.0063 44.6049 75.4965 44.1147 75.4965 43.3303C75.4965 42.3499 74.7122 41.6636 73.7318 41.6636C72.7514 41.6636 71.869 42.3499 71.869 43.3303C71.869 44.0166 72.3592 44.5068 72.8494 44.9971C71.9671 45.6834 71.1827 46.3697 71.1827 47.5462C71.1827 49.0168 72.5553 49.8012 73.9279 49.8012C75.1044 49.8012 75.8887 49.409 76.4769 48.4286C76.8691 48.8208 77.4573 49.2129 77.9475 49.5071C78.2417 49.7031 78.6338 49.7032 79.124 49.7032H80.3986Z" fill="#F15A24"/>
<path fill-rule="evenodd" clip-rule="evenodd" d="M87.2596 42.058C87.8479 42.3521 87.7498 43.2345 87.7498 43.7247V48.2348C87.7498 48.725 87.8479 49.6074 87.2596 49.9015H89.5146C88.9263 49.7054 89.0244 48.823 89.0244 48.2348V42.9404C89.3185 42.9404 89.5146 42.8424 89.8087 42.8424C90.593 42.8424 91.2793 43.3326 91.2793 44.1169C91.2793 45.1954 90.2009 45.6856 89.3185 45.7837L90.3969 47.4504L91.7695 49.2152C92.1617 49.6074 92.4558 49.8034 93.1421 49.8034H94.2205C93.5342 49.4113 92.848 48.725 92.3578 48.1367L90.6911 45.9797C91.6715 45.7837 92.5538 44.9013 92.5538 43.9208C92.5538 42.8424 91.6715 41.96 90.2009 41.96H87.2596" fill="#F15A24"/>
<path fill-rule="evenodd" clip-rule="evenodd" d="M99.4127 45.8822H100.295C100.687 45.8822 101.177 45.8822 101.374 46.1763V44.9998C101.177 45.0978 100.981 45.0978 100.785 45.0978H99.3147V42.9409C99.7068 42.8428 100.197 42.8428 100.589 42.8428C101.177 42.8428 101.668 42.8428 102.06 43.3331V41.9604C101.864 42.0585 101.668 42.0585 101.472 42.0585H97.4519C98.0401 42.2546 98.0401 43.137 98.0401 43.7252V48.2352C98.0401 48.7255 98.1382 49.6078 97.4519 49.902H102.648L103.236 48.3333C102.648 48.8235 101.766 49.1176 100.883 49.0196L99.3147 48.9215V45.8822" fill="#F15A24"/>
<path fill-rule="evenodd" clip-rule="evenodd" d="M111.771 41.9616C111.182 41.7655 110.496 41.6675 109.908 41.6675C108.339 41.6675 106.771 42.2557 106.771 43.7264C106.771 46.2755 111.084 45.8834 111.084 47.7462C111.084 48.5305 110.006 49.0207 109.32 49.0207C108.339 49.0207 107.359 48.6286 106.575 48.0403L106.967 49.511C107.653 49.8051 108.437 49.9031 109.222 49.9031C111.182 49.9031 112.555 48.7266 112.555 47.4521C112.555 45.2951 108.241 45.2951 108.241 43.6284C108.241 42.844 109.124 42.5499 109.81 42.5499C110.496 42.5499 111.281 42.844 111.771 43.3342V41.9616Z" fill="#F15A24"/>
<path fill-rule="evenodd" clip-rule="evenodd" d="M120.493 42.5495C122.454 42.5495 123.63 44.2162 123.63 45.981C123.63 47.7458 122.454 49.0204 120.493 49.0204C118.532 49.0204 117.257 47.3536 117.257 45.6869C117.257 43.9221 118.532 42.5495 120.493 42.5495ZM120.493 41.6671C117.846 41.5691 115.787 43.5299 115.787 45.7849C115.787 48.236 117.846 49.9028 120.395 49.9028C122.846 49.9028 125.003 48.138 125.003 45.6869C125.003 43.628 123.14 41.6671 120.493 41.6671Z" fill="#F15A24"/>
<path fill-rule="evenodd" clip-rule="evenodd" d="M127.453 42.058C128.041 42.3521 127.943 43.2345 127.943 43.7247V48.2348C127.943 48.725 128.041 49.6074 127.453 49.9015H129.708C129.12 49.7054 129.218 48.823 129.218 48.2348V42.9404C129.512 42.9404 129.708 42.8424 130.002 42.8424C130.787 42.8424 131.473 43.3326 131.473 44.1169C131.473 45.1954 130.394 45.6856 129.512 45.7837L130.591 47.4504L131.963 49.2152C132.355 49.6074 132.649 49.8034 133.336 49.8034H134.414C133.728 49.4113 133.042 48.725 132.551 48.1367L130.885 45.9797C131.865 45.7837 132.747 44.9013 132.747 43.9208C132.747 42.8424 131.865 41.96 130.394 41.96H127.453" fill="#F15A24"/>
<path fill-rule="evenodd" clip-rule="evenodd" d="M140.103 42.7452H141.28C141.672 42.7452 142.26 42.8432 142.358 43.2354L142.75 41.8628C142.554 41.9608 142.358 41.9608 142.162 41.9608H136.966C136.77 41.9608 136.672 41.9608 136.476 41.8628L135.985 43.2354C136.378 42.8432 136.966 42.7452 137.554 42.7452H138.731V48.0395C138.731 48.5298 138.829 49.4122 138.142 49.7063H140.691C140.005 49.3141 140.005 48.9219 140.005 48.2356V42.7452" fill="#F15A24"/>
<path fill-rule="evenodd" clip-rule="evenodd" d="M150.793 41.9577C150.205 41.7616 149.519 41.6636 148.833 41.6636C147.264 41.6636 145.597 42.2518 145.597 43.7225C145.597 46.2716 150.107 45.8795 150.107 47.7423C150.107 48.5266 149.029 49.0168 148.244 49.0168C147.264 49.0168 146.185 48.6247 145.401 48.0364L145.793 49.5071C146.578 49.8012 147.362 49.8992 148.146 49.8992C150.205 49.8992 151.676 48.7227 151.676 47.4481C151.676 45.2912 147.166 45.2912 147.166 43.6244C147.166 42.8401 148.146 42.546 148.833 42.546C149.519 42.546 150.401 42.8401 150.891 43.3303V41.9577" fill="#F15A24"/>
<path fill-rule="evenodd" clip-rule="evenodd" d="M153.926 9.02161V8.13921H154.514C154.808 8.13921 155.102 8.23726 155.102 8.53139C155.102 8.92356 154.808 9.02161 154.416 9.02161H153.926ZM153.926 9.41377H154.416L155.2 10.5903H155.69L154.906 9.31573C155.298 9.21769 155.592 9.02161 155.592 8.53139C155.592 7.94313 155.298 7.74704 154.612 7.74704H153.533V10.5903H153.926V9.41377ZM154.416 11.6688C155.69 11.6688 156.867 10.5903 156.867 9.21769C156.867 7.84508 155.788 6.7666 154.416 6.7666C153.043 6.7666 151.965 7.84508 151.965 9.21769C151.965 10.5903 153.043 11.6688 154.416 11.6688ZM152.455 9.21769C152.455 8.04117 153.337 7.15878 154.416 7.15878C155.494 7.15878 156.377 8.04117 156.377 9.21769C156.377 10.3942 155.494 11.2766 154.416 11.2766C153.337 11.2766 152.455 10.3942 152.455 9.21769Z" fill="#F15A24"/>
<path fill-rule="evenodd" clip-rule="evenodd" d="M234.741 18.0209C234.741 18.9346 234.521 20.0058 233.796 20.951H235.812V6.23779H229.354V12.2554C232.851 13.2636 234.741 15.3745 234.741 18.0209Z" fill="#F15A24"/>
<path fill-rule="evenodd" clip-rule="evenodd" d="M223.618 11.7201C225.067 11.7201 226.422 12.0352 227.461 12.3187C225.256 11.9407 221.853 12.4763 220.12 13.768V20.9513H226.548V12.7913C227.933 13.0119 229.006 13.5475 229.635 13.957V20.9513H231.053C229.73 22.3691 227.272 23.2197 225.129 22.9046V23.1882C231.274 23.6608 233.857 20.8883 233.857 17.8007C233.857 14.1776 230.265 12.0352 226.547 11.5941V6.23813H220.12V11.6571C215.93 12.4448 211.866 14.8077 211.866 18.6829C211.866 24.669 220.688 28.3551 228.375 28.3551C240.064 28.3551 249.042 23.0307 249.042 15.5323C249.042 6.45867 236.062 0 225.886 0C214.197 0 205.596 6.99427 205.596 14.4926C205.596 18.3678 207.896 21.6444 210.795 23.9128L211.015 23.7553C208.715 21.9595 206.636 19.124 206.636 15.2803C207.235 7.05728 217.947 2.45745 227.461 2.45745C234.204 2.45745 246.302 3.90671 246.302 14.5556C246.302 20.1006 240.001 27.3159 226.831 27.3159C220.089 27.3159 214.859 23.9128 214.859 18.9979C214.859 14.7447 218.356 11.7201 223.618 11.7201ZM198.665 49.716V48.8649H200.902V41.619H194.884V48.8649H197.184V49.716H188.867V48.8649H190.978V34.1207H188.867V33.27H197.184V34.1207H194.884V40.6424H200.902V34.1207H198.665V33.27H206.888V34.1207H204.777V48.8649H206.888V49.716H198.665ZM210.07 33.27H213.851V35.2229H210.07V33.27ZM208.211 49.716V48.8649H210.259V38.752H208.211V37.9333H214.008V48.8649H215.899V49.716H208.211ZM216.686 49.716V48.8649H218.797V31.9472H216.686V31.1276H222.578V48.8649H224.531V49.716H216.686ZM230.423 49.716C228.343 49.716 227.241 48.7074 227.241 47.164V38.7516H225.224V37.9329H227.241V33.2381C228.375 33.2381 229.572 33.2696 230.769 33.2381V37.9329H233.668V38.7516H230.769V48.8645H233.731V49.7156L230.423 49.716ZM247.877 46.1559C247.467 47.2586 245.672 50 241.355 50C236.567 50 234.109 46.8805 234.109 43.7304C234.109 39.3511 238.237 37.5548 241.293 37.5548C244.002 37.5548 247.94 39.099 248.256 43.5409C248.318 44.4235 248.224 45.3687 247.877 46.1559ZM243.813 39.8237C243.309 38.7835 242.427 38.3109 241.261 38.3109C238.299 38.3109 238.236 41.2099 238.236 43.6984C238.236 47.0376 238.551 47.6366 238.803 48.0462C239.181 48.7078 239.969 49.3375 241.292 49.3375C244.222 49.3375 244.222 46.313 244.19 43.572C244.159 40.5794 243.97 40.2013 243.813 39.8237ZM258.337 49.716V48.8649H260.007V41.9337C260.007 40.3584 260.007 38.815 258.179 38.815C257.139 38.815 255.438 39.7917 255.06 41.367C254.903 41.8711 254.934 42.3747 254.934 43.6984V48.8649H256.825V49.716H249.169V48.8649H251.185V38.752H249.169V37.9333H254.934V39.6972C255.564 38.9406 256.069 38.4059 257.296 37.9648C258.179 37.5863 258.998 37.5229 259.566 37.5229C259.786 37.5229 260.479 37.5229 261.267 37.7434C263.693 38.4059 263.787 40.1383 263.787 41.367V48.8649H265.772V49.716H258.337ZM245.766 25.6456H245.168V25.4251H246.679V25.6456H246.05V27.725H245.766V25.6456H245.766ZM248.381 27.3159H248.413L249.169 25.4251H249.547V27.725H249.263V26.0237H249.232L248.539 27.7255H248.256L247.531 26.0237H247.5V27.7255H247.216V25.4255H247.626L248.381 27.3159Z" fill="#F15A24"/>
</svg>
