<svg width="40" height="41" viewBox="0 0 40 41" fill="none" xmlns="http://www.w3.org/2000/svg">
<path d="M19.9968 0.924475C19.6948 0.924475 19.3928 0.924475 19.1013 0.945301L15.009 12.1913H18.5702C20.684 12.1913 21.8294 13.8157 21.1005 15.815L16.0607 29.6641H11.8226L17.2374 14.8153H14.0614L8.64669 29.6641H4.41904L10.7709 12.1704L14.6133 1.65338C10.3457 2.84564 6.59509 5.42185 3.95069 8.97727C1.30628 12.5327 -0.0820627 16.8659 0.00375201 21.2961C0.0895667 25.7262 1.64468 30.0024 4.42479 33.4527C7.20489 36.9031 11.0525 39.3321 15.363 40.3582L19.0804 30.1535L25.6198 12.1704H33.4294C35.5433 12.1704 36.6887 13.8053 35.9598 15.8045L31.5343 27.9772C31.3322 28.458 30.998 28.8716 30.5704 29.1701C30.1428 29.4687 29.6394 29.64 29.1185 29.6641H23.4955L19.4137 40.8893L20.0072 40.8997C25.3096 40.8997 30.3949 38.7933 34.1442 35.0439C37.8936 31.2945 40 26.2093 40 20.9069C40 15.6044 37.8936 10.5192 34.1442 6.76982C30.3949 3.02044 25.3096 0.914063 20.0072 0.914062L19.9968 0.924475ZM28.9102 14.8049L24.4535 27.0297H27.6399L32.0966 14.8049H28.9102Z" fill="#F15A24"/>
</svg>
