<svg width="40" height="40" viewBox="0 0 40 40" fill="none" xmlns="http://www.w3.org/2000/svg">
<g clip-path="url(#clip0_151_32663)">
<path d="M29.7479 11.6763L28.3247 9.21122C28.1582 8.92397 27.9017 8.69958 27.5949 8.57272C27.288 8.44586 26.948 8.42361 26.6272 8.50939L25.1777 8.90005C24.591 8.45082 23.9481 8.08014 23.2654 7.79739L22.879 6.34705C22.7937 6.02592 22.6046 5.74197 22.3413 5.53935C22.0779 5.33672 21.755 5.22677 21.4228 5.22656H18.5763C18.2443 5.22664 17.9217 5.33636 17.6585 5.53868C17.3953 5.74101 17.2063 6.0246 17.1208 6.34539L16.7337 7.79739C16.0509 8.08014 15.4081 8.45082 14.8214 8.90005L13.3718 8.50939C13.0511 8.42358 12.711 8.44582 12.4042 8.57268C12.0973 8.69954 11.8408 8.92396 11.6744 9.21122L10.2511 11.6763C10.0855 11.964 10.0193 12.2983 10.0629 12.6275C10.1065 12.9566 10.2574 13.2622 10.4923 13.4969L11.5537 14.5558C11.453 15.2891 11.453 16.0328 11.5537 16.7661L10.4923 17.825C10.2574 18.0597 10.1065 18.3653 10.0629 18.6944C10.0193 19.0236 10.0855 19.3579 10.2511 19.6456L11.6744 22.1107C11.8409 22.3979 12.0974 22.6222 12.4042 22.7491C12.711 22.876 13.051 22.8982 13.3718 22.8125L14.8214 22.4219C15.4081 22.8711 16.051 23.2418 16.7337 23.5245L17.1201 24.9749C17.2054 25.296 17.3944 25.5799 17.6578 25.7826C17.9211 25.9852 18.244 26.0951 18.5763 26.0953H21.4228C21.7547 26.0953 22.0774 25.9856 22.3405 25.7833C22.6037 25.5809 22.7927 25.2974 22.8781 24.9766L23.2654 23.5245C23.9481 23.2418 24.591 22.8711 25.1777 22.4219L26.6272 22.8125C26.948 22.8984 27.2881 22.8762 27.5949 22.7493C27.9018 22.6225 28.1583 22.398 28.3247 22.1107L29.7479 19.6456C29.9136 19.3579 29.9798 19.0236 29.9362 18.6944C29.8926 18.3653 29.7416 18.0597 29.5068 17.825L28.4453 16.7661C28.546 16.0328 28.546 15.2891 28.4453 14.5558L29.5068 13.4969C29.7416 13.2622 29.8926 12.9566 29.9362 12.6275C29.9798 12.2983 29.9136 11.964 29.7479 11.6763ZM26.7096 14.7014C26.8058 15.3378 26.8058 15.985 26.7096 16.6213C26.6747 16.8548 26.6949 17.0932 26.7685 17.3175C26.8421 17.5418 26.967 17.7458 27.1334 17.9133L28.1523 18.9302L26.9074 21.087L25.5114 20.7109C25.2848 20.6497 25.047 20.6429 24.8172 20.691C24.5875 20.7391 24.3723 20.8408 24.1893 20.9877C23.6813 21.3873 23.1185 21.7117 22.5181 21.951C22.3003 22.0378 22.1056 22.174 21.9493 22.3487C21.793 22.5235 21.6793 22.7321 21.6172 22.9582L21.2444 24.3563H18.7547L18.3819 22.956C18.3193 22.7302 18.2053 22.522 18.0489 22.3476C17.8924 22.1731 17.6978 22.0373 17.4801 21.9506C16.8804 21.7116 16.3181 21.3876 15.8106 20.9885C15.6273 20.8414 15.4119 20.7396 15.1819 20.6914C14.9519 20.6431 14.7137 20.6498 14.4868 20.7109L13.0916 21.087L11.8467 18.9302L12.8649 17.9142C13.0315 17.7465 13.1567 17.5423 13.2304 17.3177C13.3041 17.0931 13.3243 16.8543 13.2894 16.6205C13.1932 15.9842 13.1932 15.3369 13.2894 14.7006C13.3243 14.4671 13.3041 14.2287 13.2306 14.0044C13.157 13.7801 13.0321 13.5761 12.8657 13.4086L11.8467 12.3918L13.0916 10.2349L14.4877 10.611C14.7143 10.6717 14.952 10.6783 15.1817 10.6302C15.4113 10.5821 15.6265 10.4807 15.8097 10.3342C16.3177 9.93461 16.8805 9.61018 17.4809 9.37089C17.6987 9.28408 17.8934 9.14796 18.0497 8.97322C18.206 8.79849 18.3197 8.58989 18.3819 8.36381L18.7547 6.96564H21.2444L21.6172 8.3659C21.6798 8.59169 21.7937 8.79995 21.9502 8.97437C22.1066 9.1488 22.3013 9.28466 22.519 9.37132C23.1187 9.61034 23.681 9.93433 24.1885 10.3334C24.3718 10.4804 24.5872 10.5822 24.8172 10.6305C25.0472 10.6787 25.2853 10.6721 25.5123 10.611L26.9074 10.2349L28.1523 12.3918L27.1341 13.4077C26.9675 13.5754 26.8423 13.7797 26.7686 14.0043C26.6949 14.2289 26.6747 14.4676 26.7096 14.7014Z" fill="#F15A24"/>
<path d="M19.9995 11.3125C19.1396 11.3125 18.2991 11.5675 17.5841 12.0452C16.8691 12.5229 16.3119 13.2019 15.9828 13.9964C15.6537 14.7908 15.5676 15.665 15.7354 16.5083C15.9032 17.3517 16.3172 18.1264 16.9253 18.7344C17.5333 19.3424 18.308 19.7565 19.1513 19.9243C19.9947 20.092 20.8689 20.0059 21.6633 19.6769C22.4577 19.3478 23.1367 18.7905 23.6145 18.0756C24.0922 17.3606 24.3472 16.52 24.3472 15.6602C24.3458 14.5075 23.8873 13.4025 23.0723 12.5874C22.2572 11.7724 21.1522 11.3139 19.9995 11.3125ZM19.9995 18.2687C19.4836 18.2687 18.9792 18.1157 18.5503 17.8291C18.1213 17.5425 17.7869 17.1351 17.5895 16.6584C17.3921 16.1818 17.3404 15.6573 17.4411 15.1512C17.5417 14.6452 17.7902 14.1804 18.155 13.8156C18.5198 13.4508 18.9846 13.2024 19.4906 13.1017C19.9966 13.0011 20.5211 13.0527 20.9978 13.2501C21.4744 13.4476 21.8818 13.7819 22.1685 14.2109C22.4551 14.6399 22.6081 15.1442 22.6081 15.6602C22.6073 16.3518 22.3322 17.0148 21.8432 17.5038C21.3542 17.9929 20.6911 18.268 19.9995 18.2687Z" fill="#F15A24"/>
<path d="M31.0155 4.21678C29.2812 2.65373 27.2331 1.47907 25.0082 0.771392C22.7833 0.063711 20.4329 -0.160675 18.1142 0.113244C14.8255 0.488445 11.7254 1.8436 9.21648 4.00281C6.70756 6.16203 4.90564 9.02557 4.04462 12.2217C3.1836 15.4179 3.30324 18.7991 4.38803 21.9264C5.47281 25.0538 7.47263 27.7828 10.1279 29.7592C10.7686 30.2463 11.2871 30.876 11.6422 31.5983C11.9972 32.3205 12.1792 33.1156 12.1735 33.9204C12.1754 34.4712 12.352 35.0072 12.6778 35.4513C13.0036 35.8954 13.4619 36.2247 13.9867 36.3919C14.1588 37.4015 14.682 38.3178 15.4639 38.9793C16.2458 39.6407 17.2362 40.0048 18.2603 40.0072H21.7385C22.7627 40.0047 23.7531 39.6406 24.535 38.9791C25.3169 38.3176 25.84 37.4012 26.0122 36.3916C26.5399 36.2214 27 35.8879 27.3258 35.4392C27.6517 34.9906 27.8266 34.4499 27.8252 33.8954C27.822 33.0952 28.0048 32.3052 28.3592 31.5877C28.7137 30.8703 29.23 30.245 29.8675 29.7613C31.9386 28.2342 33.6204 26.2402 34.7764 23.9413C35.9324 21.6423 36.53 19.1031 36.5207 16.5299C36.5191 14.206 36.0281 11.9085 35.0796 9.78701C34.131 7.6655 32.7463 5.76756 31.0155 4.21678ZM21.7385 38.2681H18.2603C17.721 38.2674 17.195 38.0999 16.7546 37.7886C16.3142 37.4772 15.9808 37.0373 15.8003 36.529H24.1985C24.018 37.0373 23.6847 37.4772 23.2442 37.7886C22.8038 38.0999 22.2779 38.2674 21.7385 38.2681ZM25.2167 34.79H14.7822C14.6661 34.7892 14.5514 34.7653 14.4446 34.7197C14.3378 34.6741 14.2412 34.6078 14.1603 34.5246C14.0794 34.4413 14.0158 34.3429 13.9733 34.2348C13.9308 34.1268 13.9102 34.0115 13.9126 33.8954C13.912 33.6131 13.8942 33.3311 13.8594 33.0509H26.1423C26.1058 33.3394 26.087 33.6297 26.0862 33.9204C26.086 34.151 25.9943 34.372 25.8313 34.5351C25.6683 34.6981 25.4472 34.7898 25.2167 34.79ZM28.8281 28.367C27.8254 29.1231 27.0521 30.1425 26.5941 31.3119H13.4062C12.946 30.1419 12.1711 29.122 11.1673 28.3649C8.79203 26.597 7.00293 24.156 6.03219 21.3586C5.06146 18.5613 4.95391 15.5368 5.7235 12.6775C6.49309 9.81829 8.10429 7.25637 10.348 5.32422C12.5917 3.39207 15.3644 2.1789 18.3062 1.84215C18.8752 1.77858 19.4472 1.74667 20.0198 1.74657C23.6525 1.7358 27.1591 3.0784 29.8557 5.51259C31.4043 6.90021 32.6432 8.59841 33.492 10.4966C34.3407 12.3949 34.7801 14.4506 34.7816 16.5299C34.7899 18.8321 34.2551 21.1038 33.2206 23.1605C32.1862 25.2172 30.6813 27.001 28.8281 28.367Z" fill="#F15A24"/>
<path d="M35.6513 5.22579C35.7655 5.22594 35.8786 5.20351 35.9841 5.1598C36.0896 5.11608 36.1854 5.05194 36.266 4.97106L39.7442 1.49299C39.9021 1.32888 39.9893 1.10939 39.9871 0.881676C39.9849 0.653965 39.8934 0.436207 39.7324 0.275189C39.5713 0.114171 39.3536 0.0227427 39.1259 0.0205482C38.8982 0.0183538 38.6787 0.105568 38.5146 0.263453L35.0365 3.74152C34.9177 3.86416 34.8373 4.01887 34.8053 4.18662C34.7733 4.35436 34.7911 4.5278 34.8564 4.68556C34.9218 4.84333 35.0318 4.97854 35.1731 5.07453C35.3143 5.17052 35.4805 5.2231 35.6513 5.22579Z" fill="#F15A24"/>
<path d="M3.73266 4.97099C3.89678 5.12879 4.11623 5.21593 4.34389 5.2137C4.57156 5.21146 4.78926 5.12003 4.95025 4.95904C5.11124 4.79805 5.20267 4.58035 5.20491 4.35268C5.20714 4.12502 5.12 3.90556 4.9622 3.74145L1.48413 0.26329C1.32096 0.100731 1.09997 0.00955226 0.869648 0.009766C0.639328 0.00997974 0.418502 0.101569 0.255641 0.26443C0.0927797 0.427291 0.00119068 0.648117 0.000976937 0.878437C0.000763194 1.10876 0.0919423 1.32975 0.254501 1.49292L3.73266 4.97099Z" fill="#F15A24"/>
<path d="M3.73279 28.9587L0.254633 32.4369C0.173901 32.5176 0.109861 32.6135 0.066171 32.7189C0.0224809 32.8244 -4.03727e-06 32.9375 5.43731e-10 33.0517C4.03836e-06 33.1658 0.0224969 33.2789 0.0661944 33.3844C0.109892 33.4899 0.173938 33.5857 0.254677 33.6664C0.335415 33.7472 0.431264 33.8112 0.536752 33.8549C0.64224 33.8986 0.7553 33.9211 0.869477 33.9211C0.983654 33.9211 1.09671 33.8986 1.2022 33.8549C1.30768 33.8112 1.40353 33.7471 1.48426 33.6664L4.96242 30.1883C5.11985 30.0241 5.20667 29.8048 5.20428 29.5773C5.20188 29.3498 5.11046 29.1324 4.9496 28.9715C4.78875 28.8107 4.57128 28.7192 4.34381 28.7168C4.11635 28.7145 3.89699 28.8013 3.73279 28.9587Z" fill="#F15A24"/>
<path d="M36.2659 28.9587C36.1018 28.8008 35.8823 28.7137 35.6546 28.7159C35.4269 28.7181 35.2092 28.8095 35.0481 28.9705C34.8871 29.1316 34.7957 29.3493 34.7935 29.577C34.7913 29.8048 34.8785 30.0242 35.0364 30.1883L38.5146 33.6664C38.5952 33.7474 38.6911 33.8118 38.7966 33.8557C38.9022 33.8996 39.0154 33.9223 39.1297 33.9224C39.2441 33.9225 39.3573 33.9001 39.463 33.8564C39.5686 33.8127 39.6646 33.7486 39.7455 33.6678C39.8263 33.5869 39.8904 33.4909 39.9341 33.3853C39.9778 33.2796 40.0002 33.1664 40.0001 33.052C40 32.9377 39.9773 32.8245 39.9334 32.719C39.8894 32.6134 39.8251 32.5175 39.7441 32.4369L36.2659 28.9587Z" fill="#F15A24"/>
</g>
<defs>
<clipPath id="clip0_151_32663">
<rect width="40" height="40" fill="white"/>
</clipPath>
</defs>
</svg>
