<svg width="48" height="48" viewBox="0 0 48 48" fill="none" xmlns="http://www.w3.org/2000/svg">
<rect x="0.5" y="0.5" width="47" height="47" rx="23.5" fill="#07090D"/>
<rect x="0.5" y="0.5" width="47" height="47" rx="23.5" stroke="#1B212C"/>
<path d="M24.0002 16.3604C26.0757 16.3604 26.3347 16.368 27.149 16.4062C27.9625 16.4444 28.5163 16.5719 29.0037 16.7614C29.5079 16.9554 29.9326 17.2182 30.3573 17.6422C30.7457 18.024 31.0463 18.4859 31.2381 18.9958C31.4267 19.4824 31.5551 20.0369 31.5933 20.8505C31.6292 21.6648 31.6391 21.9238 31.6391 23.9992C31.6391 26.0747 31.6315 26.3337 31.5933 27.148C31.5551 27.9615 31.4267 28.5154 31.2381 29.0027C31.0468 29.5128 30.7462 29.9748 30.3573 30.3563C29.9753 30.7446 29.5134 31.0452 29.0037 31.2371C28.5171 31.4258 27.9625 31.5541 27.149 31.5923C26.3347 31.6282 26.0757 31.6381 24.0002 31.6381C21.9247 31.6381 21.6658 31.6305 20.8515 31.5923C20.0379 31.5541 19.4841 31.4258 18.9967 31.2371C18.4867 31.0457 18.0247 30.7451 17.6431 30.3563C17.2546 29.9745 16.9541 29.5126 16.7624 29.0027C16.5729 28.5161 16.4454 27.9615 16.4072 27.148C16.3713 26.3337 16.3613 26.0747 16.3613 23.9992C16.3613 21.9238 16.369 21.6648 16.4072 20.8505C16.4454 20.0362 16.5729 19.4831 16.7624 18.9958C16.9535 18.4856 17.2542 18.0236 17.6431 17.6422C18.0248 17.2535 18.4868 16.9529 18.9967 16.7614C19.4841 16.5719 20.0372 16.4444 20.8515 16.4062C21.6658 16.3703 21.9247 16.3604 24.0002 16.3604ZM24.0002 20.1798C22.9872 20.1798 22.0157 20.5822 21.2995 21.2985C20.5832 22.0148 20.1808 22.9863 20.1808 23.9992C20.1808 25.0122 20.5832 25.9837 21.2995 26.7C22.0157 27.4163 22.9872 27.8187 24.0002 27.8187C25.0132 27.8187 25.9847 27.4163 26.701 26.7C27.4173 25.9837 27.8197 25.0122 27.8197 23.9992C27.8197 22.9863 27.4173 22.0148 26.701 21.2985C25.9847 20.5822 25.0132 20.1798 24.0002 20.1798ZM28.9655 19.9888C28.9655 19.7356 28.8649 19.4927 28.6858 19.3136C28.5068 19.1346 28.2639 19.034 28.0106 19.034C27.7574 19.034 27.5145 19.1346 27.3354 19.3136C27.1564 19.4927 27.0558 19.7356 27.0558 19.9888C27.0558 20.2421 27.1564 20.4849 27.3354 20.664C27.5145 20.8431 27.7574 20.9437 28.0106 20.9437C28.2639 20.9437 28.5068 20.8431 28.6858 20.664C28.8649 20.4849 28.9655 20.2421 28.9655 19.9888ZM24.0002 21.7076C24.608 21.7076 25.1909 21.949 25.6207 22.3788C26.0504 22.8086 26.2919 23.3915 26.2919 23.9992C26.2919 24.607 26.0504 25.1899 25.6207 25.6197C25.1909 26.0495 24.608 26.2909 24.0002 26.2909C23.3924 26.2909 22.8095 26.0495 22.3798 25.6197C21.95 25.1899 21.7086 24.607 21.7086 23.9992C21.7086 23.3915 21.95 22.8086 22.3798 22.3788C22.8095 21.949 23.3924 21.7076 24.0002 21.7076Z" fill="white"/>
</svg>
