<svg width="38" height="38" viewBox="0 0 38 38" fill="none" xmlns="http://www.w3.org/2000/svg">
<path d="M5.5625 4H4.9375C4.25 4 3.6875 4.5625 3.6875 5.25C3.6875 5.9375 4.25 6.5 4.9375 6.5H5.5625C6.25 6.5 6.8125 5.9375 6.8125 5.25C6.8125 4.5625 6.25 4 5.5625 4Z" fill="#F15A24"/>
<path d="M15.875 15.25H14.625V14H19C19.6875 14 20.25 13.4375 20.25 12.75V1.5C20.25 0.8125 19.6875 0.25 19 0.25H1.5C0.8125 0.25 0.25 0.8125 0.25 1.5V12.75C0.25 13.4375 0.8125 14 1.5 14H5.875V15.25H4.625C3.9375 15.25 3.375 15.8125 3.375 16.5C3.375 17.1875 3.9375 17.75 4.625 17.75H15.875C16.5625 17.75 17.125 17.1875 17.125 16.5C17.125 15.8125 16.5625 15.25 15.875 15.25ZM2.75 11.5V2.75H17.75V11.5H2.75ZM12.125 15.25H8.375V14H12.125V15.25Z" fill="#F15A24"/>
<path d="M36.5 20.25H19C18.3125 20.25 17.75 20.8125 17.75 21.5V32.75C17.75 33.4375 18.3125 34 19 34H23.375V35.25H22.125C21.4375 35.25 20.875 35.8125 20.875 36.5C20.875 37.1875 21.4375 37.75 22.125 37.75H33.375C34.0625 37.75 34.625 37.1875 34.625 36.5C34.625 35.8125 34.0625 35.25 33.375 35.25H32.125V34H36.5C37.1875 34 37.75 33.4375 37.75 32.75V21.5C37.75 20.8125 37.1875 20.25 36.5 20.25ZM29.625 35.25H25.875V34H29.625V35.25ZM35.25 31.5H20.25V22.75H35.25V31.5Z" fill="#F15A24"/>
<path d="M32.4375 26.5H33.0625C33.75 26.5 34.3125 25.9375 34.3125 25.25C34.3125 24.5625 33.75 24 33.0625 24H32.4375C31.75 24 31.1875 24.5625 31.1875 25.25C31.1875 25.9375 31.75 26.5 32.4375 26.5Z" fill="#F15A24"/>
<path d="M24 8.6875H26.5C27.1875 8.6875 27.75 9.25 27.75 9.9375V16.8125C27.75 17.5 28.3125 18.0625 29 18.0625C29.6875 18.0625 30.25 17.5 30.25 16.8125V9.9375C30.25 7.875 28.5625 6.1875 26.5 6.1875H24C23.3125 6.1875 22.75 6.75 22.75 7.4375C22.75 8.125 23.3125 8.6875 24 8.6875Z" fill="#F15A24"/>
<path d="M14 29.3125H11.5C10.8125 29.3125 10.25 28.75 10.25 28.0625V21.1875C10.25 20.5 9.6875 19.9375 9 19.9375C8.3125 19.9375 7.75 20.5 7.75 21.1875V28.0625C7.75 30.125 9.4375 31.8125 11.5 31.8125H14C14.6875 31.8125 15.25 31.25 15.25 30.5625C15.25 29.875 14.6875 29.3125 14 29.3125Z" fill="#F15A24"/>
</svg>
