<svg width="128" height="50" viewBox="0 0 128 50" fill="none" xmlns="http://www.w3.org/2000/svg">
<path fill-rule="evenodd" clip-rule="evenodd" d="M118.4 44.2173C116.796 43.3792 116.548 41.0099 116.584 35.2512L116.621 26.424L113.579 26.4199L114.262 24.7841H116.621V20.6038L122.27 18.5136L122.269 24.6445L124.859 24.6493L124.174 26.4603L122.27 26.4576L122.261 41.7337C122.385 42.9646 122.799 43.6884 123.388 44.2166L118.4 44.2173ZM62.8843 6.46878C63.316 7.65103 64.2923 8.8716 63.5979 10.2413C63.2599 11.6302 61.9456 12.757 60.5567 12.9814C59.1111 13.1128 57.7222 12.8692 56.6515 11.9866C55.8818 7.96985 57.5156 4.25275 60.6874 2.03809L62.8843 6.46878Z" fill="#F15A24"/>
<path fill-rule="evenodd" clip-rule="evenodd" d="M68.4863 18.7048C67.7631 21.1356 60.5834 19.5401 58.3311 15.5514C61.2874 15.8798 64.6194 13.2615 64.6755 10.2771L68.4863 18.7048ZM71.4235 18.39C71.7519 18.2443 72.4148 17.9159 72.5783 17.2119L64.854 0.458572C64.3382 0.392892 63.9619 0.345684 63.3051 0.815026L71.4235 18.39ZM74.8963 14.753C78.1824 9.77836 75.4135 1.61277 68.3365 0.46815L74.8963 14.753ZM74.1718 25.4644C75.2062 24.5955 77.0289 24.5749 78.207 25.1332C78.7044 25.3816 79.1799 25.7134 79.4898 26.1472L77.2143 29.6871C76.9242 29.4586 76.7169 29.3559 76.3447 29.1698C75.2172 28.6834 74.0274 28.968 73.3432 29.5831V39.9113C73.3289 41.6964 73.6388 43.3254 74.5645 44.1737H69.3908C68.3153 43.3466 68.0464 42.022 67.9424 40.8624L67.9007 27.131C67.9472 26.0192 67.6626 25.5273 67.2178 24.9061L72.5777 24.9273C73.0135 25.2372 73.0333 25.7757 73.2618 26.1903L74.1718 25.4644ZM80.7118 28.8585C80.67 27.5545 80.9601 25.9926 80.1063 24.8644H85.0788C85.41 25.1127 85.5961 25.5273 85.7001 25.92C85.9689 26.2717 85.9484 26.7684 86.0716 27.183L86.1133 41.8154C86.3206 42.6843 86.6518 43.5635 87.2935 44.2463L81.9754 44.2572C80.237 42.5762 80.8062 39.8074 80.6714 36.9516L80.7118 28.8585ZM88.577 29.0036C89.1141 27.5121 90.791 26.7677 92.0122 25.9611C93.8739 25.2783 95.9237 23.5808 98.0131 24.9683C99.7516 26.1054 101.283 27.3896 102.38 29.148C102.649 29.8308 102.773 30.5963 102.96 31.3209C102.96 32.2938 103.166 33.0176 103.146 33.9905C103.207 35.0462 103.207 35.9993 103.146 37.033C103.083 38.7914 102.256 40.3643 100.869 41.5855C98.7992 43.428 96.1918 45.5181 93.3778 44.0896C90.8526 42.9094 87.8723 40.5709 88.0584 37.3642C87.9558 35.0872 87.8525 33.1216 88.1624 30.9063C88.2869 30.2652 88.224 29.5626 88.577 29.0036ZM93.7494 39.3517C93.9977 40.2616 94.4739 41.3789 95.5706 41.5034C96.2124 41.5246 96.6892 40.9862 97.0607 40.5305C98.2204 38.255 98.0549 35.7707 98.0549 33.1839C97.682 31.26 98.1376 28.6314 96.068 27.4512C95.3435 27.1823 94.7852 27.6797 94.3295 28.134C93.5222 29.3553 93.4292 30.7517 93.3778 32.3047C93.1083 34.789 93.3984 36.8476 93.7494 39.3517ZM106.83 44.2148C105.225 43.3767 104.978 41.0074 105.014 35.2487L105.051 26.4215L102.008 26.4174L102.691 24.7816H105.051V20.6013L110.7 18.5111L110.698 24.642L113.287 24.6468L112.604 26.4578L110.7 26.4551L110.689 41.7312C110.814 42.9621 111.228 43.6859 111.817 44.2141L106.83 44.2148ZM55.173 27.1303C55.1395 26.0158 54.9349 25.5266 54.4902 24.9054L59.85 24.9266C60.2851 25.2365 60.3057 25.775 60.5335 26.1896L61.4441 25.4637C62.4786 24.5948 64.2999 24.5743 65.4794 25.1325C65.9768 25.3809 66.4523 25.7127 66.7622 26.1465L64.4866 29.6864C64.1965 29.4579 63.9892 29.3553 63.6171 29.1692C62.4895 28.6827 61.2991 28.9673 60.6156 29.5824V39.9107C60.6005 41.6957 60.9112 43.3247 61.8375 44.1731H56.6638C55.5876 43.3459 55.2811 42.1123 55.2147 40.8617L55.173 27.1303ZM14.6296 32.564L12.6709 36.5699C11.3408 38.9337 9.4751 41.8346 6.61252 42.555C5.50416 42.9422 4.5258 42.5913 3.4537 42.5174L0 48.17C0.258617 48.4464 0.623281 48.6804 0.97905 48.8165C7.05655 51.1338 9.50315 48.64 15.4883 35.1194L21.1402 47.1636H28.6675L25.1119 39.0349L27.1247 34.8334L32.6843 46.9775L39.8879 47.024L27.282 19.3178L21.4748 22.2036L26.0252 32.5435L24.0302 36.6068L15.6908 18.6021L9.57225 21.7192L14.6296 32.564ZM37.7677 37.4476C37.9127 35.4389 39.0094 33.5561 40.8724 32.5421C42.7142 31.4037 44.8666 30.948 46.7707 29.9553C47.1018 29.6864 47.5158 29.3553 47.5363 28.9208C47.5568 28.3824 47.2879 27.9678 46.8117 27.7823C43.9143 27.1611 41.5135 28.9824 39.4028 30.7838C39.6717 29.4579 39.8783 28.0095 40.4996 26.7684C40.8102 26.4373 40.9963 25.9816 41.4102 25.7339C43.4593 24.7193 46.0256 24.4299 48.3231 24.5948C50.2066 24.7186 51.9451 26.0637 52.5861 27.7823C52.9173 28.5897 52.8968 29.4996 52.9583 30.3282L52.9795 41.5452C53.0001 42.518 53.4551 43.4294 54.0345 44.2148H48.674C48.0323 43.6346 47.7169 42.9108 47.5363 42.0008C46.0359 43.3254 42.9051 45.2924 41.038 43.9876C39.1025 43.1174 37.3332 40.1994 37.7677 37.4476ZM47.2667 33.5458C47.2257 32.7693 46.6667 32.6879 46.2733 32.6879C44.9905 32.8733 43.8855 33.9481 43.2725 35.0462C42.7238 36.03 42.5945 36.8565 42.548 37.7158C42.5432 38.6422 42.4857 39.3298 42.8586 40.0345C43.0652 40.4888 43.5209 40.6961 43.956 40.8199C44.7832 40.9855 45.5501 40.7584 46.1912 40.3239C47.7018 39.4742 47.4323 37.7767 47.4535 36.2668L47.2667 33.5458ZM127.299 41.6074C127.568 41.8824 127.703 42.2061 127.703 42.5803C127.703 42.9648 127.568 43.2953 127.296 43.5703C127.026 43.844 126.7 43.9808 126.318 43.9808C125.936 43.9808 125.609 43.8447 125.338 43.573C125.206 43.4443 125.101 43.2898 125.031 43.1191C124.96 42.9483 124.926 42.7649 124.929 42.5803C124.929 42.2047 125.063 41.8818 125.331 41.6074C125.602 41.3269 125.931 41.188 126.317 41.188C126.7 41.188 127.027 41.3269 127.299 41.6074ZM127.506 41.3926C127.352 41.2339 127.168 41.1084 126.963 41.0238C126.759 40.9392 126.54 40.8973 126.319 40.9007C125.877 40.9007 125.492 41.0532 125.163 41.3563C124.814 41.6827 124.639 42.0898 124.639 42.5803C124.639 43.0531 124.8 43.4513 125.124 43.7749C125.449 44.0998 125.847 44.2613 126.319 44.2613C126.777 44.2613 127.168 44.1026 127.496 43.7872C127.659 43.632 127.788 43.4445 127.875 43.2368C127.962 43.029 128.004 42.8054 128 42.5803C128 42.1164 127.835 41.721 127.506 41.3926ZM126.527 42.4537C126.447 42.5034 126.354 42.5272 126.26 42.5221H126.07V41.9823H126.189C126.311 41.9823 126.404 41.9947 126.473 42.0213C126.573 42.0603 126.622 42.1308 126.622 42.2327C126.622 42.3347 126.59 42.4079 126.527 42.4537ZM126.07 42.8574H126.173L126.28 42.8642C126.337 42.8652 126.393 42.8751 126.447 42.8937C126.478 42.9048 126.507 42.9228 126.53 42.9463C126.554 42.9699 126.572 42.9984 126.583 43.0298C126.598 43.0702 126.608 43.1461 126.612 43.2583C126.618 43.3705 126.627 43.456 126.643 43.5163H127.108L127.092 43.4643C127.08 43.4292 127.074 43.392 127.076 43.3548V43.1878C127.076 42.9983 127.021 42.8594 126.912 42.7712C126.833 42.7159 126.742 42.6794 126.647 42.6645C126.764 42.6548 126.877 42.6111 126.969 42.5386C127.058 42.4688 127.1 42.3552 127.1 42.1992C127.1 41.9933 127.019 41.8448 126.853 41.7545C126.739 41.6967 126.614 41.6638 126.486 41.658C126.357 41.6554 126.229 41.6545 126.101 41.6553C125.871 41.6539 125.699 41.6539 125.583 41.6539V43.5169H126.07V42.8574Z" fill="#F15A24"/>
</svg>
