<svg width="64" height="64" viewBox="0 0 64 64" fill="none" xmlns="http://www.w3.org/2000/svg">
<rect width="64" height="64" rx="32" fill="#E65E2F"/>
<g clip-path="url(#clip0_485_3878)">
<path d="M41.9166 32.0002H34.3333C34.0111 32.0002 33.75 32.2614 33.75 32.5836C33.75 32.9057 34.0111 33.1669 34.3333 33.1669H41.9167C42.2388 33.1669 42.5 33.4281 42.5 33.7503V44.2503C42.5 44.5724 42.2388 44.8336 41.9167 44.8336H22.0833C21.7611 44.8336 21.5 44.5724 21.5 44.2502V33.7502C21.5 33.428 21.7611 33.1668 22.0833 33.1668H30.8333C31.7723 33.1943 32.5559 32.4554 32.5833 31.5163C32.5843 31.4832 32.5843 31.45 32.5833 31.4168V24.4168C32.5833 24.0947 32.3221 23.8335 32 23.8335C31.6778 23.8335 31.4166 24.0947 31.4166 24.4168V31.4168C31.4454 31.7102 31.2309 31.9714 30.9375 32.0002C30.9029 32.0036 30.8679 32.0036 30.8333 32.0002H22.0833C21.1168 32.0002 20.3333 32.7837 20.3333 33.7502V44.2502C20.3333 45.2167 21.1168 46.0002 22.0833 46.0002H41.9166C42.8831 46.0002 43.6666 45.2167 43.6666 44.2502V33.7502C43.6666 32.7837 42.8831 32.0002 41.9166 32.0002Z" fill="white"/>
<path d="M23.8334 39.5835C23.1891 39.5835 22.6667 40.1058 22.6667 40.7501V41.9168C22.6667 42.5611 23.1891 43.0834 23.8334 43.0834H25C25.6444 43.0834 26.1667 42.5611 26.1667 41.9168V40.7501C26.1667 40.1058 25.6444 39.5835 25 39.5835H23.8334ZM25 41.9168H23.8334V40.7501H25V41.9168Z" fill="white"/>
<path d="M26.7499 37.2498V36.0832C26.7499 35.4388 26.2276 34.9165 25.5833 34.9165H24.4166C23.7723 34.9165 23.25 35.4388 23.25 36.0832V37.2498C23.25 37.8941 23.7723 38.4164 24.4166 38.4164H25.5833C26.2276 38.4164 26.7499 37.8941 26.7499 37.2498ZM25.5833 37.2498H24.4166V36.0832H25.5833V37.2498Z" fill="white"/>
<path d="M30.25 38.4164C30.8944 38.4164 31.4167 37.8941 31.4167 37.2498V36.0832C31.4167 35.4388 30.8944 34.9165 30.25 34.9165H29.0834C28.4391 34.9165 27.9167 35.4388 27.9167 36.0832V37.2498C27.9167 37.8941 28.4391 38.4164 29.0834 38.4164H30.25ZM29.0834 36.0832H30.25V37.2498H29.0834V36.0832Z" fill="white"/>
<path d="M34.9165 34.9165H33.7499C33.1056 34.9165 32.5833 35.4388 32.5833 36.0832V37.2499C32.5833 37.8942 33.1056 38.4165 33.7499 38.4165H34.9165C35.5609 38.4165 36.0832 37.8942 36.0832 37.2499V36.0832C36.0833 35.4389 35.5609 34.9165 34.9165 34.9165ZM34.9165 37.2499H33.7499V36.0832H34.9165V37.2499Z" fill="white"/>
<path d="M39.5833 34.9165H38.4166C37.7723 34.9165 37.25 35.4388 37.25 36.0832V37.2499C37.25 37.8942 37.7723 38.4165 38.4166 38.4165H39.5833C40.2276 38.4165 40.7499 37.8942 40.7499 37.2499V36.0832C40.7499 35.4389 40.2276 34.9165 39.5833 34.9165ZM39.5833 37.2499H38.4166V36.0832H39.5833V37.2499Z" fill="white"/>
<path d="M27.3333 40.7501V41.9168C27.3333 42.5611 27.8556 43.0834 28.4999 43.0834H35.4999C36.1442 43.0834 36.6665 42.5611 36.6665 41.9168V40.7501C36.6665 40.1058 36.1442 39.5835 35.4999 39.5835H28.4999C27.8556 39.5835 27.3333 40.1058 27.3333 40.7501ZM28.4999 40.7501H35.4999V41.9168H28.4999V40.7501Z" fill="white"/>
<path d="M38.9999 39.5835C38.3556 39.5835 37.8333 40.1058 37.8333 40.7501V41.9168C37.8333 42.5611 38.3556 43.0834 38.9999 43.0834H40.1665C40.8109 43.0834 41.3332 42.5611 41.3332 41.9168V40.7501C41.3332 40.1058 40.8109 39.5835 40.1665 39.5835H38.9999ZM40.1665 41.9168H38.9999V40.7501H40.1665V41.9168Z" fill="white"/>
<path d="M44.8334 18H42.5C41.8557 18 41.3334 18.5223 41.3334 19.1666V19.75H34.3334V19.1666C34.3334 18.5223 33.811 18 33.1666 18H30.8333C30.189 18 29.6666 18.5223 29.6666 19.1666V19.75H29.6322H22.6666V19.1666C22.6666 18.5223 22.1443 18 21.5 18H19.1666C18.5223 18 18 18.5223 18 19.1666V21.5C18 22.1443 18.5223 22.6666 19.1666 22.6666H21.5C22.1443 22.6666 22.6666 22.1443 22.6666 21.5V20.9166H25.686C24.0762 21.9637 23.0185 23.6753 22.802 25.5833H22.0834C21.439 25.5833 20.9167 26.1056 20.9167 26.7499V29.0833C20.9167 29.7276 21.439 30.2499 22.0834 30.2499H24.4167C25.061 30.2499 25.5834 29.7276 25.5834 29.0833V26.75C25.5834 26.1057 25.061 25.5834 24.4167 25.5834H23.9868C24.7247 21.6459 27.9867 21.0019 29.4702 20.9167H29.6668V21.5C29.6668 22.1443 30.1891 22.6666 30.8334 22.6666H33.1668C33.8111 22.6666 34.3334 22.1443 34.3334 21.5V20.9166H34.5481C36.0402 21.0059 39.2783 21.6615 40.0127 25.5833H39.5834C38.939 25.5833 38.4167 26.1056 38.4167 26.7499V29.0833C38.4167 29.7276 38.939 30.2499 39.5834 30.2499H41.9167C42.561 30.2499 43.0834 29.7276 43.0834 29.0833V26.75C43.0834 26.1057 42.561 25.5834 41.9167 25.5834H41.1981C40.9822 23.675 39.9243 21.9633 38.3141 20.9167H41.3334V21.5C41.3334 22.1443 41.8557 22.6666 42.5001 22.6666H44.8334C45.4777 22.6666 46 22.1443 46 21.5V19.1666C46 18.5223 45.4777 18 44.8334 18ZM21.5 21.5H19.1666V19.1666H21.5V21.5ZM24.4166 26.75V29.0834H22.0834V26.75H24.4166ZM33.1666 21.5H30.8333V19.1666H33.1666V21.5ZM41.9166 26.75V29.0834H39.5833V26.75H41.9166ZM44.8334 21.5H42.5V19.1666H44.8334V21.5Z" fill="white"/>
</g>
<defs>
<clipPath id="clip0_485_3878">
<rect width="28" height="28" fill="white" transform="translate(18 18)"/>
</clipPath>
</defs>
</svg>
