<svg width="60" height="60" viewBox="0 0 60 60" fill="none" xmlns="http://www.w3.org/2000/svg">
<path d="M7.92897 47.4807L10.2748 44.357C10.4076 44.1802 10.4823 43.9667 10.4889 43.7457C10.4955 43.5247 10.4335 43.3072 10.3114 43.1228C8.66357 40.6294 7.50889 37.8432 6.90986 34.915C6.86544 34.699 6.75534 34.502 6.59464 34.3509C6.43394 34.1999 6.23049 34.1022 6.01212 34.0712L2.14285 33.5166V26.8035L6.01212 26.249C6.23049 26.218 6.43394 26.1203 6.59464 25.9692C6.75534 25.8182 6.86544 25.6211 6.90986 25.4051C7.50889 22.477 8.66357 19.6908 10.3114 17.1973C10.4335 17.013 10.4955 16.7954 10.4889 16.5744C10.4823 16.3534 10.4076 16.1399 10.2748 15.9632L7.92897 12.8394L12.6792 8.08967L15.8024 10.435C15.9793 10.5677 16.1929 10.6425 16.4139 10.6492C16.6349 10.6558 16.8526 10.594 17.0371 10.4722C19.5304 8.82369 22.3169 7.66895 25.2454 7.07061C25.4614 7.02594 25.6583 6.91578 25.8094 6.75514C25.9605 6.59449 26.0584 6.39117 26.0898 6.17287L26.6433 2.30301H33.3565L33.91 6.1728C33.9413 6.3909 34.0391 6.59404 34.19 6.75458C34.3409 6.91512 34.5376 7.02527 34.7533 7.07002C37.6137 7.65817 40.3385 8.77697 42.7869 10.3685C42.9048 10.4453 43.0366 10.4982 43.1749 10.524C43.3133 10.5499 43.4553 10.5482 43.593 10.5192C43.7307 10.4901 43.8613 10.4342 43.9773 10.3547C44.0934 10.2752 44.1927 10.1736 44.2695 10.0557C44.3463 9.93778 44.3991 9.80591 44.425 9.6676C44.4508 9.52929 44.4492 9.38724 44.4201 9.24957C44.3911 9.11189 44.3352 8.98129 44.2557 8.86521C44.1762 8.74913 44.0746 8.64985 43.9567 8.57304C41.4978 6.97346 38.781 5.81082 35.9262 5.13643L35.3465 1.07987C35.3101 0.824517 35.1827 0.5909 34.9878 0.421941C34.7929 0.252981 34.5436 0.160027 34.2856 0.160156H25.7142C25.4563 0.160019 25.2069 0.25297 25.012 0.421931C24.8171 0.590891 24.6897 0.824511 24.6533 1.07987L24.0736 5.13538C21.3943 5.76517 18.8349 6.82543 16.4952 8.27485L13.2223 5.81757C13.016 5.66244 12.7606 5.58706 12.5032 5.60531C12.2457 5.62357 12.0036 5.73424 11.8213 5.91693L5.75677 11.9814C5.5742 12.1638 5.46362 12.4059 5.44536 12.6634C5.42709 12.9208 5.50238 13.1761 5.65736 13.3824L8.11521 16.6553C6.66559 18.9948 5.60515 21.5541 4.97522 24.2332L0.919712 24.8139C0.664475 24.8505 0.430968 24.9778 0.262032 25.1726C0.0930967 25.3674 6.30776e-05 25.6165 0 25.8744V34.4458C6.04998e-05 34.7036 0.0930934 34.9528 0.262029 35.1476C0.430965 35.3424 0.664473 35.4697 0.919712 35.5062L4.97522 36.0869C5.60515 38.7661 6.66559 41.3253 8.11521 43.6649L5.65736 46.9377C5.50238 47.1441 5.4271 47.3994 5.44536 47.6568C5.46363 47.9142 5.57421 48.1564 5.75677 48.3387L8.78899 51.371C8.9899 51.5719 9.26239 51.6847 9.54653 51.6847C9.83066 51.6847 10.1031 51.5719 10.3041 51.371C10.505 51.17 10.6178 50.8975 10.6178 50.6134C10.6178 50.3293 10.505 50.0568 10.3041 49.8559L7.92897 47.4807Z" fill="#F15A24"/>
<path d="M59.0802 24.8143L55.0247 24.2335C54.3947 21.5544 53.3343 18.9951 51.8847 16.6556L54.3425 13.3827C54.4974 13.1764 54.5727 12.9211 54.5545 12.6637C54.5362 12.4063 54.4257 12.1641 54.2431 11.9817L51.2109 8.94953C51.1114 8.85004 50.9933 8.77113 50.8633 8.71729C50.7334 8.66345 50.594 8.63574 50.4534 8.63574C50.3127 8.63574 50.1734 8.66345 50.0434 8.71729C49.9134 8.77113 49.7953 8.85004 49.6958 8.94952C49.5963 9.049 49.5174 9.1671 49.4636 9.29708C49.4098 9.42706 49.382 9.56636 49.382 9.70705C49.382 9.84774 49.4098 9.98705 49.4636 10.117C49.5174 10.247 49.5963 10.3651 49.6958 10.4646L52.071 12.8397L49.7251 15.9635C49.5924 16.1402 49.5176 16.3538 49.511 16.5747C49.5045 16.7957 49.5665 17.0133 49.6885 17.1976C51.3364 19.6911 52.491 22.4773 53.0901 25.4054C53.1345 25.6215 53.2446 25.8185 53.4053 25.9695C53.566 26.1206 53.7694 26.2183 53.9878 26.2493L57.857 26.8038V33.517L53.9878 34.0715C53.7694 34.1025 53.5659 34.2002 53.4052 34.3513C53.2445 34.5023 53.1344 34.6993 53.09 34.9154C52.491 37.8435 51.3363 40.6297 49.6884 43.1232C49.5664 43.3075 49.5044 43.5251 49.511 43.7461C49.5175 43.967 49.5923 44.1805 49.7251 44.3573L52.0709 47.4811L47.3206 52.2308L44.1974 49.8855C44.0203 49.7532 43.8069 49.6787 43.5859 49.6721C43.365 49.6654 43.1475 49.727 42.9628 49.8483C40.4694 51.4968 37.6829 52.6516 34.7544 53.2499C34.5384 53.2946 34.3415 53.4047 34.1904 53.5654C34.0393 53.726 33.9414 53.9293 33.91 54.1476L33.3565 58.0175H26.6434L26.0899 54.1477C26.0586 53.9296 25.9608 53.7264 25.8099 53.5659C25.659 53.4053 25.4623 53.2952 25.2465 53.2505C22.3862 52.6623 19.6614 51.5435 17.213 49.952C16.9749 49.7968 16.6849 49.7426 16.4069 49.8013C16.1288 49.86 15.8855 50.0267 15.7304 50.2648C15.5752 50.5029 15.5211 50.7929 15.5797 51.0709C15.6384 51.349 15.8051 51.5923 16.0432 51.7474C18.5021 53.347 21.2189 54.5097 24.0737 55.184L24.6533 59.2406C24.6898 59.496 24.8172 59.7296 25.0121 59.8985C25.207 60.0675 25.4563 60.1604 25.7142 60.1603H34.2857C34.5436 60.1605 34.7929 60.0675 34.9878 59.8985C35.1828 59.7296 35.3101 59.496 35.3466 59.2406L35.9263 55.1851C38.6056 54.5553 41.1649 53.495 43.5047 52.0456L46.7776 54.5029C46.9841 54.6575 47.2393 54.7326 47.4966 54.7143C47.7539 54.6961 47.996 54.5857 48.1786 54.4035L54.2431 48.3391C54.4257 48.1567 54.5363 47.9145 54.5545 47.6571C54.5728 47.3997 54.4975 47.1444 54.3425 46.938L51.8847 43.6652C53.3343 41.3256 54.3948 38.7664 55.0247 36.0872L59.0802 35.5065C59.3354 35.47 59.5689 35.3427 59.7379 35.1479C59.9068 34.9531 59.9998 34.7039 59.9999 34.4461V25.8747C59.9998 25.6169 59.9068 25.3677 59.7378 25.1729C59.5689 24.9781 59.3354 24.8508 59.0802 24.8143Z" fill="#F15A24"/>
<path d="M30 49.4454C33.8144 49.4454 37.543 48.3143 40.7146 46.1951C43.8861 44.076 46.358 41.064 47.8176 37.54C49.2773 34.016 49.6593 30.1383 48.9151 26.3973C48.171 22.6562 46.3342 19.2198 43.637 16.5227C40.9399 13.8255 37.5035 11.9887 33.7625 11.2446C30.0214 10.5005 26.1437 10.8824 22.6197 12.3421C19.0957 13.8018 16.0837 16.2736 13.9646 19.4452C11.8454 22.6167 10.7144 26.3454 10.7144 30.1597C10.7202 35.2728 12.754 40.1748 16.3695 43.7903C19.985 47.4058 24.8869 49.4395 30 49.4454ZM18.5365 31.2311C18.605 34.7003 19.3014 38.1284 20.5921 41.3494C19.7981 41.7354 19.0256 42.1643 18.2782 42.6341C15.1009 39.6564 13.1811 35.5773 12.9115 31.2311H18.5365ZM28.9286 47.1711C26.8661 46.7165 24.987 44.9755 23.5405 42.4097C25.2734 41.7806 27.0883 41.4059 28.9286 41.2974V47.1711ZM23.3411 45.9558C22.17 45.4543 21.0585 44.8236 20.0274 44.0754C20.4886 43.8043 20.991 43.5379 21.5232 43.2778C22.0373 44.2295 22.6464 45.1267 23.3411 45.9558ZM31.0714 47.1711V41.2974C32.9118 41.4059 34.7267 41.7806 36.4595 42.4097C35.013 44.9755 33.1339 46.7165 31.0714 47.1711ZM38.4769 43.2779C39.009 43.5379 39.5114 43.8043 39.9726 44.0754C38.9415 44.8236 37.83 45.4544 36.6589 45.9559C37.3537 45.1268 37.9628 44.2296 38.4769 43.2779ZM31.0714 39.1541V31.2311H39.3213C39.2362 34.4029 38.5843 37.5339 37.3965 40.4761C35.3681 39.7148 33.235 39.269 31.0714 39.1541ZM31.0714 29.0883V21.1652C33.235 21.0504 35.3681 20.6046 37.3965 19.8433C38.5843 22.7855 39.2362 25.9165 39.3213 29.0883H31.0714ZM31.0714 19.022V13.1483C33.1339 13.6029 35.013 15.3439 36.4595 17.9096C34.7267 18.5388 32.9118 18.9135 31.0714 19.022ZM36.6588 14.3635C37.83 14.865 38.9415 15.4958 39.9726 16.244C39.5114 16.5151 39.009 16.7815 38.4769 17.0416C37.9627 16.0898 37.3536 15.1926 36.6588 14.3635ZM28.9286 13.1483V19.022C27.0883 18.9135 25.2734 18.5388 23.5405 17.9096C24.987 15.3439 26.8661 13.6029 28.9286 13.1483ZM21.5232 17.0415C20.991 16.7815 20.4886 16.5151 20.0274 16.244C21.0586 15.4957 22.1701 14.865 23.3412 14.3634C22.6464 15.1925 22.0373 16.0898 21.5232 17.0415ZM28.9286 21.1652V29.0883H20.6787C20.7639 25.9165 21.4157 22.7855 22.6035 19.8433C24.6319 20.6046 26.7651 21.0504 28.9286 21.1652ZM28.9286 31.2311V39.1541C26.7651 39.269 24.6319 39.7148 22.6035 40.4761C21.4157 37.5339 20.7639 34.4029 20.6787 31.2311H28.9286ZM41.7219 42.6341C40.9744 42.1643 40.202 41.7354 39.408 41.3494C40.6986 38.1284 41.395 34.7003 41.4636 31.2311H47.0886C46.8189 35.5773 44.8992 39.6564 41.7219 42.6341ZM47.0886 29.0883H41.4636C41.395 25.6191 40.6986 22.1909 39.408 18.97C40.202 18.584 40.9744 18.1551 41.7219 17.6853C44.8992 20.663 46.8189 24.7421 47.0886 29.0883ZM18.2782 17.6853C19.0256 18.1551 19.7981 18.5839 20.5921 18.9699C19.3014 22.1909 18.605 25.619 18.5365 29.0883H12.9115C13.1811 24.7421 15.1009 20.663 18.2782 17.6853Z" fill="#F15A24"/>
</svg>
