<svg width="48" height="49" viewBox="0 0 48 49" fill="none" xmlns="http://www.w3.org/2000/svg">
<rect y="0.219727" width="48" height="48" rx="24" fill="#F15A24"/>
<g clip-path="url(#clip0_46_3380)">
<g clip-path="url(#clip1_46_3380)">
<path d="M33.97 30.5497C33.97 30.9097 33.89 31.2797 33.72 31.6397C33.55 31.9997 33.33 32.3397 33.04 32.6597C32.55 33.1997 32.01 33.5897 31.4 33.8397C30.8 34.0897 30.15 34.2197 29.45 34.2197C28.43 34.2197 27.34 33.9797 26.19 33.4897C25.04 32.9997 23.89 32.3397 22.75 31.5097C21.6 30.6697 20.51 29.7397 19.47 28.7097C18.44 27.6697 17.51 26.5797 16.68 25.4397C15.86 24.2997 15.2 23.1597 14.72 22.0297C14.24 20.8897 14 19.7997 14 18.7597C14 18.0797 14.12 17.4297 14.36 16.8297C14.6 16.2197 14.98 15.6597 15.51 15.1597C16.15 14.5297 16.85 14.2197 17.59 14.2197C17.87 14.2197 18.15 14.2797 18.4 14.3997C18.66 14.5197 18.89 14.6997 19.07 14.9597L21.39 18.2297C21.57 18.4797 21.7 18.7097 21.79 18.9297C21.88 19.1397 21.93 19.3497 21.93 19.5397C21.93 19.7797 21.86 20.0197 21.72 20.2497C21.59 20.4797 21.4 20.7197 21.16 20.9597L20.4 21.7497C20.29 21.8597 20.24 21.9897 20.24 22.1497C20.24 22.2297 20.25 22.2997 20.27 22.3797C20.3 22.4597 20.33 22.5197 20.35 22.5797C20.53 22.9097 20.84 23.3397 21.28 23.8597C21.73 24.3797 22.21 24.9097 22.73 25.4397C23.27 25.9697 23.79 26.4597 24.32 26.9097C24.84 27.3497 25.27 27.6497 25.61 27.8297C25.66 27.8497 25.72 27.8797 25.79 27.9097C25.87 27.9397 25.95 27.9497 26.04 27.9497C26.21 27.9497 26.34 27.8897 26.45 27.7797L27.21 27.0297C27.46 26.7797 27.7 26.5897 27.93 26.4697C28.16 26.3297 28.39 26.2597 28.64 26.2597C28.83 26.2597 29.03 26.2997 29.25 26.3897C29.47 26.4797 29.7 26.6097 29.95 26.7797L33.26 29.1297C33.52 29.3097 33.7 29.5197 33.81 29.7697C33.91 30.0197 33.97 30.2697 33.97 30.5497Z" stroke="white" stroke-width="1.5" stroke-miterlimit="10"/>
<path d="M30.5 21.2197C30.5 20.6197 30.03 19.6997 29.33 18.9497C28.69 18.2597 27.84 17.7197 27 17.7197" stroke="white" stroke-width="1.5" stroke-linecap="round" stroke-linejoin="round"/>
<path d="M34 21.2197C34 17.3497 30.87 14.2197 27 14.2197" stroke="white" stroke-width="1.5" stroke-linecap="round" stroke-linejoin="round"/>
</g>
</g>
<defs>
<clipPath id="clip0_46_3380">
<rect width="24" height="24" fill="white" transform="translate(12 12.2197)"/>
</clipPath>
<clipPath id="clip1_46_3380">
<rect width="24" height="24" fill="white" transform="translate(12 12.2197)"/>
</clipPath>
</defs>
</svg>
