<svg width="40" height="28" viewBox="0 0 40 28" fill="none" xmlns="http://www.w3.org/2000/svg">
<path d="M37.208 22.376H35.928C36.16 21.944 36.304 21.456 36.304 20.936V3.08004C36.304 1.40004 34.944 0.0400391 33.264 0.0400391H6.736C5.056 0.0400391 3.696 1.40004 3.696 3.08004V20.928C3.696 21.448 3.84 21.936 4.072 22.368H2.792C1.256 22.376 0 23.624 0 25.168C0 26.712 1.256 27.96 2.792 27.96H37.208C38.744 27.96 40 26.704 40 25.168C40 23.632 38.744 22.376 37.208 22.376ZM5.288 20.936V3.08004C5.288 2.28804 5.936 1.64004 6.728 1.64004H33.264C34.056 1.64004 34.704 2.28804 34.704 3.08004V20.928C34.704 21.72 34.056 22.368 33.264 22.368H6.736C5.936 22.376 5.288 21.728 5.288 20.936ZM37.208 26.36H2.792C2.136 26.36 1.6 25.824 1.6 25.168C1.6 24.512 2.136 23.976 2.792 23.976H6.736H33.272H37.216C37.872 23.976 38.408 24.512 38.408 25.168C38.408 25.824 37.864 26.36 37.208 26.36Z" fill="#F15A24"/>
<path d="M16.44 6.51237C16.368 6.44037 16.28 6.37637 16.176 6.33637C15.984 6.25637 15.76 6.25637 15.568 6.33637C15.472 6.37637 15.384 6.43237 15.304 6.51237L12.496 9.32037C12.184 9.63237 12.184 10.1364 12.496 10.4484C12.808 10.7604 13.312 10.7604 13.624 10.4484L15.064 9.00837V16.9364C15.064 17.3764 15.424 17.7364 15.864 17.7364C16.304 17.7364 16.664 17.3764 16.664 16.9364V9.00837L18.104 10.4484C18.264 10.6084 18.464 10.6804 18.672 10.6804C18.88 10.6804 19.08 10.6004 19.24 10.4484C19.552 10.1364 19.552 9.63237 19.24 9.32037L16.44 6.51237Z" fill="#F15A24"/>
<path d="M26.3679 13.5595L24.9279 14.9995V7.07148C24.9279 6.63148 24.5679 6.27148 24.1279 6.27148C23.6879 6.27148 23.3279 6.63148 23.3279 7.07148V14.9995L21.8879 13.5595C21.5759 13.2475 21.0719 13.2475 20.7599 13.5595C20.4479 13.8715 20.4479 14.3755 20.7599 14.6875L23.5679 17.4955C23.6399 17.5675 23.7279 17.6315 23.8319 17.6715C23.9279 17.7115 24.0319 17.7355 24.1359 17.7355C24.2399 17.7355 24.3439 17.7115 24.4399 17.6715C24.5359 17.6315 24.6239 17.5755 24.7039 17.4955L27.5119 14.6875C27.8239 14.3755 27.8239 13.8715 27.5119 13.5595C27.1999 13.2475 26.6799 13.2475 26.3679 13.5595Z" fill="#F15A24"/>
</svg>
