<svg width="64" height="64" viewBox="0 0 64 64" fill="none" xmlns="http://www.w3.org/2000/svg">
<rect width="64" height="64" rx="32" fill="#E65E2F"/>
<g clip-path="url(#clip0_485_3894)">
<path d="M39.1094 30.5781C39.7134 30.5781 40.2031 30.0884 40.2031 29.4844C40.2031 28.8803 39.7134 28.3906 39.1094 28.3906C38.5053 28.3906 38.0156 28.8803 38.0156 29.4844C38.0156 30.0884 38.5053 30.5781 39.1094 30.5781Z" fill="white"/>
<path d="M41.625 20.1875H40.2031V19.0938C40.2031 18.4897 39.7135 18 39.1094 18C38.5053 18 38.0156 18.4897 38.0156 19.0938V20.1875H33.0391V19.0938C33.0391 18.4897 32.5494 18 31.9453 18C31.3412 18 30.8516 18.4897 30.8516 19.0938V20.1875H25.9297V19.0938C25.9297 18.4897 25.44 18 24.8359 18C24.2319 18 23.7422 18.4897 23.7422 19.0938V20.1875H22.375C19.9626 20.1875 18 22.1501 18 24.5625V41.625C18 44.0374 19.9626 46 22.375 46H30.7422C31.3463 46 31.8359 45.5103 31.8359 44.9062C31.8359 44.3022 31.3463 43.8125 30.7422 43.8125H22.375C21.1688 43.8125 20.1875 42.8312 20.1875 41.625V24.5625C20.1875 23.3563 21.1688 22.375 22.375 22.375H23.7422V23.4688C23.7422 24.0728 24.2319 24.5625 24.8359 24.5625C25.44 24.5625 25.9297 24.0728 25.9297 23.4688V22.375H30.8516V23.4688C30.8516 24.0728 31.3412 24.5625 31.9453 24.5625C32.5494 24.5625 33.0391 24.0728 33.0391 23.4688V22.375H38.0156V23.4688C38.0156 24.0728 38.5053 24.5625 39.1094 24.5625C39.7135 24.5625 40.2031 24.0728 40.2031 23.4688V22.375H41.625C42.8312 22.375 43.8125 23.3563 43.8125 24.5625V30.7969C43.8125 31.401 44.3022 31.8906 44.9062 31.8906C45.5103 31.8906 46 31.401 46 30.7969V24.5625C46 22.1501 44.0374 20.1875 41.625 20.1875Z" fill="white"/>
<path d="M39.3828 32.7656C35.7341 32.7656 32.7656 35.7341 32.7656 39.3828C32.7656 43.0316 35.7341 46 39.3828 46C43.0316 46 46 43.0316 46 39.3828C46 35.7341 43.0316 32.7656 39.3828 32.7656ZM39.3828 43.8125C36.9403 43.8125 34.9531 41.8254 34.9531 39.3828C34.9531 36.9402 36.9403 34.9531 39.3828 34.9531C41.8253 34.9531 43.8125 36.9402 43.8125 39.3828C43.8125 41.8254 41.8253 43.8125 39.3828 43.8125Z" fill="white"/>
<path d="M40.9688 38.2891H40.4766V37.1406C40.4766 36.5365 39.9869 36.0469 39.3828 36.0469C38.7787 36.0469 38.2891 36.5365 38.2891 37.1406V39.3828C38.2891 39.9869 38.7787 40.4766 39.3828 40.4766H40.9688C41.5728 40.4766 42.0625 39.9869 42.0625 39.3828C42.0625 38.7787 41.5728 38.2891 40.9688 38.2891Z" fill="white"/>
<path d="M34.3516 30.5781C34.9556 30.5781 35.4453 30.0884 35.4453 29.4844C35.4453 28.8803 34.9556 28.3906 34.3516 28.3906C33.7475 28.3906 33.2578 28.8803 33.2578 29.4844C33.2578 30.0884 33.7475 30.5781 34.3516 30.5781Z" fill="white"/>
<path d="M29.5938 35.3359C30.1978 35.3359 30.6875 34.8462 30.6875 34.2422C30.6875 33.6381 30.1978 33.1484 29.5938 33.1484C28.9897 33.1484 28.5 33.6381 28.5 34.2422C28.5 34.8462 28.9897 35.3359 29.5938 35.3359Z" fill="white"/>
<path d="M24.8359 30.5781C25.44 30.5781 25.9297 30.0884 25.9297 29.4844C25.9297 28.8803 25.44 28.3906 24.8359 28.3906C24.2319 28.3906 23.7422 28.8803 23.7422 29.4844C23.7422 30.0884 24.2319 30.5781 24.8359 30.5781Z" fill="white"/>
<path d="M24.8359 35.3359C25.44 35.3359 25.9297 34.8462 25.9297 34.2422C25.9297 33.6381 25.44 33.1484 24.8359 33.1484C24.2319 33.1484 23.7422 33.6381 23.7422 34.2422C23.7422 34.8462 24.2319 35.3359 24.8359 35.3359Z" fill="white"/>
<path d="M24.8359 40.0938C25.44 40.0938 25.9297 39.6041 25.9297 39C25.9297 38.3959 25.44 37.9062 24.8359 37.9062C24.2319 37.9062 23.7422 38.3959 23.7422 39C23.7422 39.6041 24.2319 40.0938 24.8359 40.0938Z" fill="white"/>
<path d="M29.5938 40.0938C30.1978 40.0938 30.6875 39.6041 30.6875 39C30.6875 38.3959 30.1978 37.9062 29.5938 37.9062C28.9897 37.9062 28.5 38.3959 28.5 39C28.5 39.6041 28.9897 40.0938 29.5938 40.0938Z" fill="white"/>
<path d="M29.5938 30.5781C30.1978 30.5781 30.6875 30.0884 30.6875 29.4844C30.6875 28.8803 30.1978 28.3906 29.5938 28.3906C28.9897 28.3906 28.5 28.8803 28.5 29.4844C28.5 30.0884 28.9897 30.5781 29.5938 30.5781Z" fill="white"/>
</g>
<defs>
<clipPath id="clip0_485_3894">
<rect width="28" height="28" fill="white" transform="translate(18 18)"/>
</clipPath>
</defs>
</svg>
