<svg width="40" height="38" viewBox="0 0 40 38" fill="none" xmlns="http://www.w3.org/2000/svg">
<path d="M36.4356 30.3789H3.56433C2.86556 30.3789 2.30005 29.8127 2.30005 29.1146V3.82897C2.30005 1.73747 4.00139 0.0361328 6.09289 0.0361328H33.9071C35.9986 0.0361328 37.6999 1.73747 37.6999 3.82897V29.1146C37.6999 29.8127 37.1344 30.3789 36.4356 30.3789ZM4.82861 27.8503H35.1713V3.82897C35.1713 3.13198 34.6047 2.56469 33.9071 2.56469H6.09289C5.39526 2.56469 4.82861 3.13198 4.82861 3.82897V27.8503Z" fill="#F15A24"/>
<path d="M34.4874 37.9648H5.51261C3.03096 37.9648 0.933264 36.1875 0.524649 33.7392L0.0344874 30.7946C-0.0877685 30.0599 0.118436 29.3123 0.598736 28.7444C1.0803 28.1765 1.784 27.8506 2.52853 27.8506H37.4715C38.216 27.8506 38.9197 28.1765 39.4013 28.7444C39.8816 29.3123 40.0878 30.0599 39.9655 30.7946L39.4754 33.7386C39.0667 36.1875 36.969 37.9648 34.4874 37.9648ZM2.52853 30.3791L3.01869 33.3238C3.22237 34.548 4.27185 35.4363 5.51274 35.4363H34.4874C35.7282 35.4363 36.7776 34.548 36.9814 33.3231L37.4716 30.3798L2.52853 30.3791Z" fill="#F15A24"/>
<path d="M12.4144 13.9431C10.3229 13.9431 8.62158 12.2418 8.62158 10.1503C8.62158 8.05876 10.3229 6.35742 12.4144 6.35742C14.5059 6.35742 16.2073 8.05876 16.2073 10.1503C16.2073 12.2418 14.5059 13.9431 12.4144 13.9431ZM12.4144 8.88598C11.7168 8.88598 11.1501 9.45326 11.1501 10.1503C11.1501 10.8473 11.7168 11.4145 12.4144 11.4145C13.1121 11.4145 13.6787 10.8473 13.6787 10.1503C13.6787 9.45326 13.1121 8.88598 12.4144 8.88598Z" fill="#F15A24"/>
<path d="M16.2071 19.0007H8.62146C7.92269 19.0007 7.35718 18.4346 7.35718 17.7364V16.4722C7.35718 13.6837 9.62517 11.415 12.4143 11.415C15.2034 11.415 17.4714 13.6837 17.4714 16.4722V17.7364C17.4714 18.4346 16.9059 19.0007 16.2071 19.0007ZM9.88574 16.4722H14.9429C14.9429 15.0777 13.8082 13.9436 12.4143 13.9436C11.0204 13.9436 9.88574 15.0777 9.88574 16.4722Z" fill="#F15A24"/>
<path d="M31.3784 8.88598H19.9999C19.3011 8.88598 18.7356 8.31984 18.7356 7.6217C18.7356 6.92357 19.3011 6.35742 19.9999 6.35742H31.3784C32.0772 6.35742 32.6427 6.92357 32.6427 7.6217C32.6427 8.31984 32.0772 8.88598 31.3784 8.88598Z" fill="#F15A24"/>
<path d="M31.3784 13.9436H19.9999C19.3011 13.9436 18.7356 13.3775 18.7356 12.6793C18.7356 11.9812 19.3011 11.415 19.9999 11.415H31.3784C32.0772 11.415 32.6427 11.9812 32.6427 12.6793C32.6427 13.3775 32.0772 13.9436 31.3784 13.9436Z" fill="#F15A24"/>
<path d="M31.3784 19.0002H19.9999C19.3011 19.0002 18.7356 18.4341 18.7356 17.736C18.7356 17.0378 19.3011 16.4717 19.9999 16.4717H31.3784C32.0772 16.4717 32.6427 17.0378 32.6427 17.736C32.6427 18.4341 32.0772 19.0002 31.3784 19.0002Z" fill="#F15A24"/>
<path d="M31.3785 24.0579H8.62146C7.92269 24.0579 7.35718 23.4917 7.35718 22.7936C7.35718 22.0954 7.92269 21.5293 8.62146 21.5293H31.3785C32.0773 21.5293 32.6428 22.0954 32.6428 22.7936C32.6428 23.4917 32.0773 24.0579 31.3785 24.0579Z" fill="#F15A24"/>
<path d="M23.793 32.9077H16.2073C14.8134 32.9077 13.6787 31.7736 13.6787 30.3791V29.1149C13.6787 28.4167 14.2442 27.8506 14.943 27.8506H25.0572C25.756 27.8506 26.3215 28.4167 26.3215 29.1149V30.3791C26.3215 31.7736 25.1868 32.9077 23.793 32.9077Z" fill="#F15A24"/>
</svg>
