<svg width="33" height="40" viewBox="0 0 33 40" fill="none" xmlns="http://www.w3.org/2000/svg">
<path d="M32.9406 19.3445V5.88242C32.9406 5.57041 32.8166 5.27117 32.596 5.05055C32.3754 4.82992 32.0761 4.70597 31.7641 4.70597C26.624 4.70605 21.599 3.18361 17.3232 0.330758L17.1232 0.197819C16.9299 0.0688348 16.7027 0 16.4703 0C16.2379 0 16.0107 0.0688348 15.8174 0.197819L15.6174 0.330758C11.3416 3.18361 6.31659 4.70605 1.17645 4.70597C0.864435 4.70597 0.5652 4.82992 0.344573 5.05055C0.123946 5.27117 0 5.57041 0 5.88242V19.3481C0.000392009 22.9589 0.978346 26.5023 2.83008 29.6022C4.68181 32.7021 7.33824 35.2428 10.5175 36.9548L15.9126 39.8594C16.084 39.9517 16.2756 40 16.4703 40C16.6649 40 16.8565 39.9517 17.0279 39.8594L22.4243 36.9548C25.6052 35.2441 28.263 32.7031 30.1147 29.6021C31.9665 26.5012 32.9431 22.9563 32.9406 19.3445ZM16.4703 37.4865L11.6339 34.8819C8.82641 33.3735 6.48059 31.1319 4.84623 28.3958C3.21187 25.6597 2.35017 22.5316 2.3529 19.3445V7.03416C7.37011 6.83282 12.2431 5.29824 16.4703 2.58836C20.6975 5.29824 25.5705 6.83282 30.5877 7.03416V19.3445C30.5904 22.5314 29.7288 25.6594 28.0947 28.3955C26.4605 31.1315 24.115 33.3732 21.3078 34.8819L16.4703 37.4865Z" fill="#F15A24"/>
<path d="M28.2348 10.2463C28.2348 9.96424 28.1334 9.69161 27.9492 9.47805C27.765 9.26449 27.5102 9.1242 27.2313 9.08275C23.6558 8.55017 20.2034 7.38662 17.035 5.64634C16.8619 5.55161 16.6677 5.50195 16.4703 5.50195C16.2729 5.50195 16.0787 5.55161 15.9056 5.64634C12.7369 7.38539 9.28456 8.54774 5.70933 9.07922C5.42977 9.12076 5.17451 9.26156 4.99024 9.47586C4.80597 9.69016 4.70501 9.96363 4.70582 10.2463V19.3402C4.7048 22.1024 5.45184 24.8132 6.86762 27.1849C8.2834 29.5566 10.315 31.5007 12.7468 32.8105L15.9115 34.5164C16.0832 34.6091 16.2752 34.6576 16.4703 34.6576C16.6654 34.6576 16.8574 34.6091 17.0291 34.5164L20.1938 32.8105C22.6256 31.5007 24.6572 29.5566 26.073 27.1849C27.4888 24.8132 28.2358 22.1024 28.2348 19.3402V10.2463ZM25.8819 19.3402C25.883 21.6778 25.251 23.972 24.0529 25.9792C22.8548 27.9864 21.1354 29.6316 19.0773 30.74L16.4703 32.1447L13.8633 30.74C11.8052 29.6316 10.0858 27.9864 8.88774 25.9792C7.68964 23.972 7.05759 21.6778 7.05871 19.3402V11.2451C10.3417 10.6527 13.5153 9.56378 16.4703 8.01571C19.4253 9.56378 22.5989 10.6527 25.8819 11.2451V19.3402Z" fill="#F15A24"/>
<path d="M12.3116 19.293C12.0897 19.0787 11.7926 18.9601 11.4841 18.9628C11.1756 18.9655 10.8806 19.0892 10.6624 19.3073C10.4443 19.5254 10.3206 19.8205 10.3179 20.129C10.3152 20.4374 10.4338 20.7346 10.6481 20.9565L13.9751 24.2835C14.1957 24.504 14.4949 24.6279 14.8069 24.6279C15.1188 24.6279 15.418 24.504 15.6386 24.2835L22.2926 17.6295C22.5069 17.4076 22.6255 17.1104 22.6228 16.802C22.6201 16.4935 22.4964 16.1984 22.2783 15.9803C22.0602 15.7622 21.7651 15.6385 21.4566 15.6358C21.1482 15.6331 20.851 15.7517 20.6291 15.966L14.8069 21.7882L12.3116 19.293Z" fill="#F15A24"/>
</svg>
