<svg width="180" height="180" viewBox="0 0 180 180" fill="none" xmlns="http://www.w3.org/2000/svg">
<circle cx="90" cy="90" r="53.5" stroke="white" stroke-opacity="0.2" stroke-dasharray="3 3"/>
<circle cx="90" cy="90" r="89.5" stroke="white" stroke-opacity="0.2" stroke-dasharray="3 3"/>
<path d="M108.203 14.3579L105.724 26.115L103.001 25.5414L104.833 16.8529L101.985 17.0712L102.422 15.004L107.953 14.3052L108.203 14.3579Z" fill="white"/>
<path d="M113.526 22.8663L111.638 21.6009L114.481 16.1104L121.059 18.5835L120.297 20.6071L115.844 18.9331L114.749 21.0694C114.9 21.0437 115.14 21.0372 115.471 21.0499C115.809 21.0592 116.158 21.1317 116.518 21.2674C117.075 21.4766 117.535 21.7466 117.899 22.0773C118.27 22.4049 118.543 22.787 118.72 23.2237C118.898 23.6553 118.975 24.1335 118.947 24.6583C118.926 25.185 118.801 25.7496 118.574 26.3519C118.392 26.836 118.136 27.2745 117.805 27.6676C117.482 28.0574 117.091 28.3716 116.63 28.6098C116.177 28.845 115.666 28.9761 115.097 29.0032C114.53 29.0251 113.911 28.9101 113.242 28.6582C112.741 28.4703 112.284 28.21 111.868 27.8773C111.453 27.5446 111.108 27.1624 110.835 26.7306C110.57 26.2957 110.403 25.8306 110.337 25.3354C110.278 24.8369 110.347 24.3313 110.546 23.8183L113.167 24.8035C113.08 25.0822 113.055 25.3432 113.092 25.5867C113.13 25.8302 113.223 26.0443 113.371 26.2293C113.526 26.411 113.73 26.5494 113.982 26.6443C114.24 26.7412 114.473 26.7701 114.682 26.731C114.891 26.692 115.078 26.6008 115.244 26.4574C115.409 26.314 115.557 26.1342 115.685 25.9179C115.815 25.6966 115.93 25.4546 116.029 25.192C116.134 24.914 116.197 24.6526 116.218 24.408C116.245 24.1653 116.223 23.9425 116.152 23.7396C116.084 23.5315 115.962 23.3476 115.787 23.1876C115.617 23.0296 115.39 22.8975 115.107 22.7909C114.731 22.6495 114.41 22.6024 114.145 22.6497C113.88 22.6971 113.673 22.7693 113.526 22.8663Z" fill="white"/>
<path d="M128.866 28.5839L127.696 30.6629L120.512 26.6283L121.681 24.5492L128.866 28.5839ZM127.955 24.4756L123.667 32.1014L121.399 30.8279L125.687 23.2021L127.955 24.4756Z" fill="white"/>
<path d="M140.682 30.9594L138.827 36.3127L143.974 33.9289L146.291 36.019L138.259 39.1463L135.365 42.3501L133.177 40.376L136.07 37.1723L138.359 28.8638L140.682 30.9594Z" fill="white"/>
<path d="M145.674 50.677L143.941 52.0795L139.908 47.1034L141.641 45.7009L145.674 50.677ZM149.901 40.342L140.558 47.9049L138.733 45.6542L148.076 38.0913L149.901 40.342ZM149.056 46.8776L147.381 48.2332L143.868 43.8985L145.542 42.5428L149.056 46.8776ZM153.3 44.5358L151.561 45.9434L147.512 40.9481L149.251 39.5405L153.3 44.5358Z" fill="white"/>
<path d="M155.747 53.284L146.045 55.4346L144.504 52.7311L157.138 50.6216L158.115 52.3355L155.747 53.284ZM148.697 60.0885L155.494 52.8393L157.502 51.2598L158.49 52.9952L150.242 62.7991L148.697 60.0885ZM152.536 57.7706L150.592 58.8773L147.539 53.5207L149.483 52.4139L152.536 57.7706Z" fill="white"/>
<path d="M161.782 59.5728L163.391 64.0195C163.705 64.8886 163.85 65.6908 163.823 66.4258C163.796 67.1609 163.592 67.7934 163.21 68.3234C162.83 68.8585 162.267 69.2609 161.521 69.5302C160.874 69.7641 160.296 69.8587 159.789 69.8141C159.281 69.7695 158.819 69.6175 158.403 69.3583C157.995 69.1023 157.614 68.7691 157.26 68.3586L156.432 67.6485L155.081 63.9158L157.18 63.1398L158.18 65.9025C158.305 66.2492 158.472 66.5138 158.678 66.6966C158.885 66.8793 159.122 66.9864 159.391 67.0179C159.668 67.0528 159.966 67.0121 160.287 66.8961C160.613 66.7783 160.871 66.6177 161.061 66.4145C161.251 66.2114 161.366 65.9709 161.406 65.6932C161.448 65.4207 161.408 65.1163 161.286 64.78L160.663 63.0572L151.46 66.3826L150.475 63.6588L161.782 59.5728ZM152.713 69.8438L156.81 65.5377L157.87 68.4189L153.886 72.7196L153.769 72.7617L152.713 69.8438Z" fill="white"/>
<path d="M158.101 86.1485L155.889 86.4169L155.116 80.0599L157.33 79.7914L158.101 86.1485ZM167.176 79.6361L155.241 81.0839L154.892 78.2085L166.827 76.7607L167.176 79.6361ZM162.986 84.7247L160.846 84.9842L160.174 79.4464L162.313 79.1869L162.986 84.7247ZM167.827 84.9938L165.606 85.2632L164.831 78.8816L167.052 78.6122L167.827 84.9938Z" fill="white"/>
<path d="M167.879 91.3013L163.809 93.1076L167.726 95.2263L167.596 98.5247L161.77 94.9438L155.579 98.1455L155.71 94.8141L159.857 92.953L155.867 90.7736L155.998 87.4341L161.92 91.1178L168.009 87.9946L167.879 91.3013Z" fill="white"/>
<path d="M158.353 104.872L158.967 101.948L161.157 102.408L160.543 105.331C160.459 105.729 160.459 106.066 160.542 106.342C160.625 106.619 160.773 106.838 160.986 107C161.203 107.17 161.463 107.286 161.765 107.349C162.088 107.418 162.4 107.421 162.699 107.36C162.998 107.305 163.257 107.17 163.476 106.958C163.7 106.746 163.854 106.441 163.938 106.043L164.328 104.185L154.751 102.177L155.346 99.3418L167.113 101.81L166.127 106.502C165.93 107.444 165.587 108.219 165.1 108.825C164.612 109.436 164.028 109.862 163.347 110.101C162.672 110.342 161.949 110.381 161.178 110.22C160.419 110.06 159.795 109.738 159.306 109.254C158.817 108.769 158.486 108.151 158.311 107.401C158.141 106.657 158.156 105.814 158.353 104.872Z" fill="white"/>
<path d="M151.929 118.705L149.848 117.901L152.16 111.929L154.24 112.733L151.929 118.705ZM163.002 117.225L151.788 112.891L152.834 110.189L164.047 114.524L163.002 117.225ZM156.909 119.745L154.899 118.968L156.912 113.766L158.923 114.542L156.909 119.745ZM161.054 122.259L158.967 121.452L161.287 115.457L163.374 116.263L161.054 122.259Z" fill="white"/>
<path d="M159.445 125.576L157.058 129.659C156.592 130.457 156.067 131.082 155.486 131.533C154.904 131.983 154.287 132.231 153.635 132.278C152.981 132.329 152.311 132.154 151.627 131.755C151.032 131.409 150.59 131.026 150.299 130.607C150.007 130.189 149.828 129.738 149.761 129.253C149.696 128.775 149.708 128.269 149.797 127.735L149.812 126.645L151.815 123.218L153.756 124.33L152.273 126.867C152.087 127.186 151.99 127.483 151.982 127.758C151.974 128.034 152.044 128.285 152.192 128.512C152.342 128.746 152.565 128.949 152.86 129.121C153.159 129.295 153.448 129.391 153.726 129.407C154.003 129.422 154.261 129.356 154.501 129.208C154.737 129.066 154.945 128.841 155.126 128.531L156.05 126.95L147.6 122.019L149.061 119.518L159.445 125.576ZM145.742 125.198L151.676 125.583L150.141 128.241L144.284 127.939L144.177 127.877L145.742 125.198Z" fill="white"/>
<path d="M151.126 138.327L141.534 131.083L143.277 128.778L152.869 136.022L151.126 138.327Z" fill="white"/>
<path d="M136.365 140.09L134.748 138.557L139.158 133.912L140.775 135.445L136.365 140.09ZM147.17 142.93L138.448 134.66L140.442 132.559L149.165 140.828L147.17 142.93ZM140.575 142.945L139.012 141.463L142.855 137.416L144.418 138.899L140.575 142.945ZM143.453 146.845L141.829 145.306L146.257 140.642L147.88 142.181L143.453 146.845Z" fill="white"/>
<path d="M132.561 155.449L125.372 145.818L127.689 144.091L135.571 147.543L131.097 141.55L133.421 139.818L140.61 149.45L138.286 151.181L130.404 147.729L134.877 153.722L132.561 155.449Z" fill="white"/>
<path d="M118.854 153.793L116.262 155.07C115.926 154.302 115.803 153.542 115.89 152.787C115.978 152.032 116.271 151.332 116.769 150.688C117.266 150.051 117.958 149.513 118.847 149.076C119.568 148.721 120.272 148.524 120.959 148.486C121.641 148.45 122.292 148.562 122.91 148.821C123.524 149.084 124.095 149.487 124.621 150.03C125.143 150.577 125.603 151.255 126.002 152.064L126.291 152.649C126.69 153.458 126.943 154.238 127.049 154.989C127.153 155.748 127.12 156.451 126.949 157.1C126.776 157.755 126.47 158.342 126.031 158.858C125.592 159.375 125.032 159.801 124.35 160.138C123.412 160.6 122.537 160.822 121.725 160.806C120.913 160.789 120.184 160.574 119.538 160.162C118.896 159.755 118.358 159.195 117.926 158.481L120.518 157.204C120.728 157.604 120.964 157.908 121.227 158.116C121.491 158.329 121.796 158.437 122.14 158.439C122.486 158.44 122.887 158.328 123.346 158.102C123.668 157.944 123.917 157.747 124.096 157.512C124.275 157.277 124.38 156.992 124.411 156.658C124.442 156.323 124.397 155.932 124.273 155.483C124.147 155.042 123.944 154.535 123.661 153.963L123.365 153.363C123.083 152.791 122.808 152.32 122.539 151.949C122.27 151.579 121.996 151.303 121.716 151.122C121.436 150.94 121.145 150.848 120.842 150.843C120.537 150.847 120.207 150.936 119.851 151.111C119.456 151.306 119.153 151.532 118.942 151.789C118.734 152.051 118.619 152.346 118.598 152.676C118.579 153.011 118.664 153.383 118.854 153.793Z" fill="white"/>
<path d="M105.53 156.492L104.885 154.36L111.017 152.505L111.664 154.638L105.53 156.492ZM113.511 164.305L110.029 152.804L112.804 151.965L116.286 163.466L113.511 164.305ZM107.775 161.056L107.15 158.994L112.493 157.379L113.117 159.44L107.775 161.056ZM108.343 165.867L107.695 163.727L113.851 161.865L114.499 164.006L108.343 165.867Z" fill="white"/>
<path d="M92.9072 165.362C94.5445 165.362 95.8718 164.036 95.8718 162.4C95.8718 160.763 94.5445 159.437 92.9072 159.437C91.2699 159.437 89.9426 160.763 89.9426 162.4C89.9426 164.036 91.2699 165.362 92.9072 165.362Z" fill="#F15A24"/>
<path d="M73.0715 166.108L75.3445 154.31L78.0772 154.835L76.3974 163.554L79.2411 163.286L78.8414 165.361L73.3229 166.156L73.0715 166.108Z" fill="white"/>
<path d="M67.6029 157.695L69.5129 158.927L66.7661 164.467L60.1465 162.11L60.8727 160.073L65.3533 161.668L66.411 159.513C66.2607 159.542 66.0201 159.552 65.6895 159.545C65.3518 159.542 65.0013 159.476 64.6383 159.346C64.0783 159.147 63.6136 158.885 63.2441 158.56C62.8676 158.239 62.5872 157.862 62.4028 157.429C62.2166 157 62.1324 156.523 62.1501 155.999C62.1628 155.471 62.2771 154.905 62.4933 154.299C62.667 153.811 62.9156 153.368 63.239 152.97C63.5553 152.574 63.9416 152.253 64.3976 152.007C64.8466 151.764 65.3553 151.623 65.9237 151.587C66.4903 151.555 67.1107 151.659 67.7849 151.899C68.2879 152.078 68.7502 152.33 69.1718 152.656C69.5935 152.981 69.9445 153.357 70.2248 153.784C70.498 154.214 70.6722 154.676 70.7473 155.171C70.8154 155.668 70.7545 156.175 70.5646 156.691L67.9276 155.751C68.01 155.471 68.0301 155.21 67.9881 154.968C67.9461 154.725 67.8495 154.512 67.6983 154.33C67.54 154.151 67.3339 154.016 67.0797 153.925C66.8204 153.834 66.5867 153.809 66.3787 153.851C66.1706 153.894 65.9849 153.988 65.8216 154.134C65.6585 154.281 65.5146 154.463 65.3899 154.681C65.2635 154.905 65.1531 155.149 65.0588 155.413C64.959 155.694 64.9006 155.956 64.8833 156.201C64.8609 156.444 64.8868 156.667 64.961 156.868C65.0334 157.075 65.1584 157.256 65.3364 157.413C65.509 157.569 65.738 157.697 66.0232 157.798C66.4017 157.933 66.7231 157.974 66.9871 157.923C67.251 157.87 67.4563 157.795 67.6029 157.695Z" fill="white"/>
<path d="M52.1697 152.25L53.3021 150.151L60.5566 154.059L59.4242 156.158L52.1697 152.25ZM53.1522 156.342L57.3056 148.642L59.5953 149.875L55.4419 157.575L53.1522 156.342Z" fill="white"/>
<path d="M40.3124 150.08L42.073 144.695L36.9694 147.168L34.6162 145.119L42.5919 141.852L45.4294 138.598L47.6519 140.535L44.8143 143.788L42.6718 152.135L40.3124 150.08Z" fill="white"/>
<path d="M34.9769 130.453L36.6847 129.02L40.8044 133.926L39.0968 135.358L34.9769 130.453ZM30.9316 140.86L40.1409 133.135L42.0043 135.354L32.7951 143.079L30.9316 140.86ZM31.6622 134.311L33.313 132.926L36.9019 137.199L35.2511 138.583L31.6622 134.311ZM27.4595 136.726L29.1736 135.288L33.3094 140.213L31.5953 141.65L27.4595 136.726Z" fill="white"/>
<path d="M24.859 128.021L34.5226 125.701L36.1105 128.377L23.5152 130.707L22.5086 129.011L24.859 128.021ZM31.7892 121.094L25.1201 128.461L23.1403 130.076L22.1211 128.358L30.1972 118.411L31.7892 121.094ZM27.9913 123.479L29.9161 122.339L33.0623 127.641L31.1374 128.781L27.9913 123.479Z" fill="white"/>
<path d="M18.7133 121.836L17.0263 117.418C16.6965 116.554 16.5386 115.755 16.5523 115.02C16.5661 114.284 16.7593 113.648 17.1318 113.112C17.5024 112.57 18.058 112.157 18.7987 111.875C19.4416 111.63 20.0174 111.525 20.526 111.561C21.0346 111.597 21.499 111.74 21.9193 111.993C22.3325 112.241 22.7194 112.568 23.08 112.972L23.92 113.667L25.3362 117.376L23.2513 118.188L22.2032 115.444C22.0716 115.099 21.901 114.838 21.6912 114.659C21.4814 114.48 21.2417 114.377 20.9723 114.35C20.6956 114.32 20.3979 114.366 20.079 114.487C19.7549 114.611 19.4998 114.776 19.3135 114.983C19.1272 115.189 19.0164 115.432 18.9814 115.71C18.9442 115.983 18.9895 116.287 19.1171 116.621L19.7707 118.332L28.9132 114.846L29.9466 117.552L18.7133 121.836ZM27.6 111.407L23.5796 115.785L22.4689 112.922L26.3773 108.552L26.493 108.508L27.6 111.407Z" fill="white"/>
<path d="M21.9265 95.1991L24.1349 94.8921L25.0178 101.235L22.8094 101.541L21.9265 95.1991ZM12.9668 101.869L24.8755 100.213L25.2749 103.082L13.3662 104.737L12.9668 101.869ZM17.0674 96.7077L19.2021 96.411L19.9713 101.936L17.8365 102.233L17.0674 96.7077ZM12.2227 96.5232L14.4392 96.215L15.3256 102.582L13.109 102.89L12.2227 96.5232Z" fill="white"/>
<path d="M12.0617 90.2404L16.1 88.3631L12.1466 86.3132L12.2179 83.0132L18.1063 86.4914L24.2405 83.1818L24.1685 86.5149L20.0547 88.4484L24.0811 90.5576L24.0089 93.8989L18.0236 90.3196L11.9902 93.5488L12.0617 90.2404Z" fill="white"/>
<path d="M21.3509 76.4807L20.7882 79.4147L18.5903 78.9937L19.153 76.0598C19.2297 75.66 19.2243 75.3228 19.1368 75.0484C19.0493 74.7739 18.8974 74.5572 18.6813 74.3982C18.4608 74.2327 18.1991 74.121 17.8964 74.063C17.572 74.0009 17.2605 74.0028 16.9619 74.0688C16.6644 74.1295 16.408 74.2681 16.1928 74.4845C15.9721 74.6999 15.8234 75.0075 15.7467 75.4074L15.3892 77.2715L24.9998 79.1121L24.4543 81.9569L12.6458 79.6953L13.5488 74.9864C13.7302 74.0409 14.0591 73.2608 14.5357 72.6463C15.0134 72.0265 15.5902 71.5908 16.2663 71.3393C16.9369 71.0868 17.6588 71.0347 18.432 71.1827C19.1943 71.3287 19.8241 71.6398 20.3214 72.1159C20.8186 72.5921 21.161 73.2038 21.3483 73.9511C21.5314 74.6919 21.5322 75.5352 21.3509 76.4807Z" fill="white"/>
<path d="M27.5314 62.5389L29.6248 63.306L27.4184 69.3183L25.3252 68.5512L27.5314 62.5389ZM16.4855 64.213L27.7739 68.3498L26.7759 71.0693L15.4875 66.9324L16.4855 64.213ZM22.5333 61.5863L24.5568 62.3277L22.6348 67.5652L20.6113 66.8237L22.5333 61.5863ZM18.3449 59.146L20.4459 59.916L18.2312 65.9514L16.1301 65.1815L18.3449 59.146Z" fill="white"/>
<path d="M19.8936 55.8057L22.2073 51.6811C22.6596 50.8749 23.1727 50.2415 23.7466 49.781C24.3205 49.3204 24.933 49.0612 25.5839 49.0033C26.2376 48.9406 26.9102 49.103 27.6017 49.4904C28.202 49.8267 28.6513 50.2013 28.9497 50.6145C29.2481 51.0277 29.4352 51.4762 29.5108 51.96C29.5844 52.4364 29.5813 52.9424 29.5018 53.4781L29.5056 54.5682L27.5633 58.0305L25.6032 56.9514L27.0407 54.3888C27.2211 54.0673 27.3129 53.7687 27.3161 53.4929C27.3193 53.2173 27.2448 52.9674 27.0928 52.7434C26.9386 52.5121 26.7126 52.3129 26.4149 52.1461C26.1123 51.9767 25.822 51.8866 25.5441 51.8759C25.2661 51.8652 25.0088 51.9356 24.7724 52.0869C24.5388 52.2335 24.3344 52.4628 24.1594 52.7747L23.263 54.3727L31.7988 59.1545L30.3815 61.6812L19.8936 55.8057ZM33.5997 55.944L27.6607 55.6632L29.1484 52.9774L35.01 53.177L35.1181 53.2376L33.5997 55.944Z" fill="white"/>
<path d="M27.9854 42.9136L37.7032 49.9889L36.0012 52.3233L26.2834 45.248L27.9854 42.9136Z" fill="white"/>
<path d="M42.7159 40.8904L44.3598 42.3956L40.0307 47.1171L38.3868 45.6119L42.7159 40.8904ZM31.8632 38.2394L40.728 46.3566L38.7698 48.4922L29.905 40.3751L31.8632 38.2394ZM38.4562 38.1093L40.0453 39.5644L36.274 43.6773L34.685 42.2223L38.4562 38.1093ZM35.5117 34.2603L37.1616 35.7711L32.8158 40.5108L31.1659 39L35.5117 34.2603Z" fill="white"/>
<path d="M46.2497 25.4688L53.6056 34.973L51.3193 36.7401L43.3781 33.4261L47.9553 39.3401L45.6626 41.1123L38.3066 31.608L40.5995 29.8359L48.5407 33.1499L43.9635 27.2358L46.2497 25.4688Z" fill="white"/>
<path d="M59.9807 26.8859L62.55 25.5631C62.8989 26.324 63.0362 27.0827 62.9616 27.839C62.8871 28.5953 62.6063 29.3 62.1193 29.9529C61.6346 30.5985 60.9518 31.1481 60.071 31.6016C59.3565 31.9694 58.6561 32.1785 57.9697 32.2286C57.2882 32.2761 56.6358 32.1758 56.0122 31.9275C55.3937 31.6765 54.8165 31.2836 54.2806 30.7489C53.7497 30.2115 53.2775 29.5417 52.8639 28.7398L52.5652 28.1602C52.1517 27.3581 51.885 26.5826 51.7652 25.8336C51.6477 25.0771 51.6687 24.3732 51.8283 23.7217C51.9902 23.0628 52.2859 22.4712 52.7154 21.9468C53.1448 21.4224 53.6972 20.9864 54.3726 20.6387C55.3024 20.16 56.1736 19.9218 56.9862 19.9243C57.7987 19.9268 58.5312 20.1284 59.1836 20.5289C59.8335 20.9246 60.3806 21.4753 60.825 22.181L58.2557 23.5038C58.0391 23.1079 57.7979 22.8081 57.5319 22.6046C57.2636 22.3963 56.957 22.2941 56.6124 22.2983C56.2676 22.3025 55.8678 22.4217 55.4127 22.6561C55.0945 22.8198 54.8483 23.0209 54.6739 23.2592C54.4995 23.4976 54.3995 23.7842 54.374 24.1191C54.3485 24.454 54.4013 24.8446 54.5323 25.2908C54.6656 25.7297 54.8785 26.2327 55.171 26.8L55.4773 27.3942C55.7698 27.9615 56.0536 28.4281 56.329 28.7938C56.6042 29.1596 56.8832 29.4305 57.1661 29.6068C57.4489 29.783 57.7417 29.8705 58.0445 29.8692C58.3498 29.8606 58.6786 29.7656 59.0309 29.5842C59.4224 29.3827 59.7212 29.1514 59.9274 28.8906C60.131 28.6249 60.2406 28.327 60.2564 27.9972C60.2696 27.6624 60.1776 27.2919 59.9807 26.8859Z" fill="white"/>
<path d="M73.257 23.9497L73.9403 26.0706L67.8407 28.0333L67.1573 25.9123L73.257 23.9497ZM65.1382 16.2801L68.8232 27.717L66.0642 28.6049L62.3792 17.1678L65.1382 16.2801ZM70.9322 19.4267L71.5928 21.4769L66.2791 23.1866L65.6185 21.1365L70.9322 19.4267ZM70.279 14.626L70.9648 16.7547L64.8415 18.7249L64.1556 16.5962L70.279 14.626Z" fill="white"/>
<path d="M86.6765 21.262C88.3138 21.262 89.6411 19.9357 89.6411 18.2995C89.6411 16.6633 88.3138 15.3369 86.6765 15.3369C85.0392 15.3369 83.7119 16.6633 83.7119 18.2995C83.7119 19.9357 85.0392 21.262 86.6765 21.262Z" fill="#F15A24"/>
</svg>
