<svg width="40" height="34" viewBox="0 0 40 34" fill="none" xmlns="http://www.w3.org/2000/svg">
<path d="M36.7308 1.35686C37.1905 1.24195 37.6501 0.935538 38.1097 1.01214C38.9523 2.00798 40.1397 3.00383 39.9865 4.42099C39.9099 5.87645 40.1397 7.48512 39.6801 8.86398C35.5818 12.0813 31.2154 14.9539 27.1937 18.2479C30.7941 18.4011 34.4327 18.2096 38.0331 18.3245C37.1139 19.665 36.3478 21.2737 35.0456 22.2312C31.9431 22.6143 28.879 22.7675 25.7765 23.0356C25.0488 25.1422 24.436 27.2871 23.7082 29.3553C17.8864 27.4403 12.2177 25.2188 6.43414 23.2271C5.17018 22.8441 3.90623 22.3461 2.71887 21.7333C4.17434 20.3162 5.32339 18.6309 6.62565 17.0222C7.12357 17.635 7.54489 18.3245 8.15772 18.8607C9.7664 19.5118 11.4517 19.9714 13.1753 20.4311C15.1286 17.0988 17.3118 13.8432 19.1886 10.4343C16.8139 12.6175 14.7456 15.1071 12.4092 17.3286C11.0687 17.3669 9.38338 16.9456 8.50244 15.7583C7.50659 14.5326 6.47244 13.3453 5.4766 12.1196C6.16603 10.5875 6.74056 8.94058 7.6215 7.48512C8.88546 6.79569 10.2643 6.29777 11.5666 5.68494C13.3668 4.91891 15.1286 3.92307 17.1203 3.57835C19.0354 3.23364 20.9122 2.62081 22.8656 2.4676C24.3977 3.34854 25.7765 4.45929 27.2703 5.41683C30.4494 4.11457 33.5901 2.73572 36.7308 1.35686Z" fill="#F15A24" stroke="#F15A24" stroke-width="0.125"/>
<path d="M0 25.0264C0.42132 23.6475 1.34056 22.3069 2.71942 21.7324C3.90678 22.3452 5.17073 22.8432 6.43469 23.2262C12.2183 25.2179 17.8869 27.4394 23.7088 29.3544C24.0152 29.5843 24.3599 29.7758 24.6663 30.0056C24.3599 31.2312 24.0535 32.4569 23.7088 33.6825C23.2875 33.5676 22.8662 33.491 22.4448 33.4144C21.1043 32.9165 19.8403 32.3037 18.4998 31.8441C12.2949 29.6226 6.24319 27.0947 0 25.0264Z" fill="#F15A24" stroke="#F15A24" stroke-width="0.125"/>
</svg>
