<svg width="64" height="64" viewBox="0 0 64 64" fill="none" xmlns="http://www.w3.org/2000/svg">
<rect width="64" height="64" rx="32" fill="#E65E2F"/>
<path d="M45.2222 46H18.7778C18.5715 46 18.3737 45.9181 18.2278 45.7722C18.0819 45.6263 18 45.4285 18 45.2222V18.7778C18 18.5715 18.0819 18.3737 18.2278 18.2278C18.3737 18.0819 18.5715 18 18.7778 18H45.2222C45.4285 18 45.6263 18.0819 45.7722 18.2278C45.9181 18.3737 46 18.5715 46 18.7778V45.2222C46 45.4285 45.9181 45.6263 45.7722 45.7722C45.6263 45.9181 45.4285 46 45.2222 46ZM19.5556 44.4444H44.4444V19.5556H19.5556V44.4444Z" fill="white"/>
<path d="M21.8889 22.6669C22.3184 22.6669 22.6666 22.3187 22.6666 21.8891C22.6666 21.4596 22.3184 21.1113 21.8889 21.1113C21.4593 21.1113 21.1111 21.4596 21.1111 21.8891C21.1111 22.3187 21.4593 22.6669 21.8889 22.6669Z" fill="white"/>
<path d="M24.9999 22.6669C25.4295 22.6669 25.7777 22.3187 25.7777 21.8891C25.7777 21.4596 25.4295 21.1113 24.9999 21.1113C24.5704 21.1113 24.2222 21.4596 24.2222 21.8891C24.2222 22.3187 24.5704 22.6669 24.9999 22.6669Z" fill="white"/>
<path d="M28.111 22.6669C28.5406 22.6669 28.8888 22.3187 28.8888 21.8891C28.8888 21.4596 28.5406 21.1113 28.111 21.1113C27.6815 21.1113 27.3333 21.4596 27.3333 21.8891C27.3333 22.3187 27.6815 22.6669 28.111 22.6669Z" fill="white"/>
<path d="M29.6667 25.778H18.7778C18.5715 25.778 18.3737 25.6961 18.2278 25.5502C18.0819 25.4043 18 25.2065 18 25.0002C18 24.794 18.0819 24.5961 18.2278 24.4503C18.3737 24.3044 18.5715 24.2225 18.7778 24.2225H29.3478L32.2256 21.3369C32.2982 21.2648 32.3844 21.2078 32.4792 21.1691C32.5739 21.1304 32.6754 21.1107 32.7778 21.1113H45.2222C45.4285 21.1113 45.6263 21.1933 45.7722 21.3391C45.9181 21.485 46 21.6828 46 21.8891C46 22.0954 45.9181 22.2932 45.7722 22.4391C45.6263 22.585 45.4285 22.6669 45.2222 22.6669H33.0967L30.2189 25.5525C30.1462 25.6245 30.06 25.6816 29.9653 25.7203C29.8705 25.759 29.769 25.7786 29.6667 25.778Z" fill="white"/>
<path d="M23.8334 32.3889C23.731 32.3895 23.6295 32.3698 23.5348 32.3311C23.44 32.2924 23.3538 32.2354 23.2811 32.1633L22.1145 30.9966C21.968 30.8502 21.8857 30.6515 21.8857 30.4444C21.8857 30.2373 21.968 30.0387 22.1145 29.8922C22.2609 29.7457 22.4596 29.6635 22.6667 29.6635C22.8738 29.6635 23.0725 29.7457 23.2189 29.8922L23.8334 30.5144L26.0034 28.3366C26.1498 28.1902 26.3485 28.1079 26.5556 28.1079C26.7627 28.1079 26.9614 28.1902 27.1078 28.3366C27.2543 28.4831 27.3366 28.6817 27.3366 28.8889C27.3366 29.096 27.2543 29.2946 27.1078 29.4411L24.3856 32.1633C24.3129 32.2354 24.2267 32.2924 24.132 32.3311C24.0372 32.3698 23.9357 32.3895 23.8334 32.3889Z" fill="white"/>
<path d="M23.8334 37.0559C23.731 37.0565 23.6295 37.0368 23.5348 36.9981C23.44 36.9594 23.3538 36.9024 23.2811 36.8303L22.1145 35.6636C21.968 35.5172 21.8857 35.3185 21.8857 35.1114C21.8857 34.9043 21.968 34.7057 22.1145 34.5592C22.2609 34.4127 22.4596 34.3305 22.6667 34.3305C22.8738 34.3305 23.0725 34.4127 23.2189 34.5592L23.8334 35.1814L26.0034 33.0036C26.1498 32.8572 26.3485 32.7749 26.5556 32.7749C26.7627 32.7749 26.9614 32.8572 27.1078 33.0036C27.2543 33.1501 27.3366 33.3487 27.3366 33.5559C27.3366 33.763 27.2543 33.9616 27.1078 34.1081L24.3856 36.8303C24.3129 36.9024 24.2267 36.9594 24.132 36.9981C24.0372 37.0368 23.9357 37.0565 23.8334 37.0559Z" fill="white"/>
<path d="M23.8334 41.7224C23.731 41.723 23.6295 41.7033 23.5348 41.6646C23.44 41.6259 23.3538 41.5689 23.2811 41.4968L22.1145 40.3301C21.968 40.1837 21.8857 39.985 21.8857 39.7779C21.8857 39.5708 21.968 39.3722 22.1145 39.2257C22.2609 39.0792 22.4596 38.997 22.6667 38.997C22.8738 38.997 23.0725 39.0792 23.2189 39.2257L23.8334 39.8479L26.0034 37.6701C26.1498 37.5237 26.3485 37.4414 26.5556 37.4414C26.7627 37.4414 26.9614 37.5237 27.1078 37.6701C27.2543 37.8166 27.3366 38.0152 27.3366 38.2224C27.3366 38.4295 27.2543 38.6281 27.1078 38.7746L24.3856 41.4968C24.3129 41.5689 24.2267 41.6259 24.132 41.6646C24.0372 41.7033 23.9357 41.723 23.8334 41.7224Z" fill="white"/>
<path d="M41.3334 31.2221H29.6667C29.4604 31.2221 29.2626 31.1401 29.1167 30.9943C28.9709 30.8484 28.8889 30.6506 28.8889 30.4443C28.8889 30.238 28.9709 30.0402 29.1167 29.8943C29.2626 29.7484 29.4604 29.6665 29.6667 29.6665H41.3334C41.5396 29.6665 41.7375 29.7484 41.8833 29.8943C42.0292 30.0402 42.1111 30.238 42.1111 30.4443C42.1111 30.6506 42.0292 30.8484 41.8833 30.9943C41.7375 31.1401 41.5396 31.2221 41.3334 31.2221Z" fill="white"/>
<path d="M41.3334 35.8891H29.6667C29.4604 35.8891 29.2626 35.8071 29.1167 35.6612C28.9709 35.5154 28.8889 35.3176 28.8889 35.1113C28.8889 34.905 28.9709 34.7072 29.1167 34.5613C29.2626 34.4154 29.4604 34.3335 29.6667 34.3335H41.3334C41.5396 34.3335 41.7375 34.4154 41.8833 34.5613C42.0292 34.7072 42.1111 34.905 42.1111 35.1113C42.1111 35.3176 42.0292 35.5154 41.8833 35.6612C41.7375 35.8071 41.5396 35.8891 41.3334 35.8891Z" fill="white"/>
<path d="M41.3334 40.5556H29.6667C29.4604 40.5556 29.2626 40.4736 29.1167 40.3278C28.9709 40.1819 28.8889 39.9841 28.8889 39.7778C28.8889 39.5715 28.9709 39.3737 29.1167 39.2278C29.2626 39.0819 29.4604 39 29.6667 39H41.3334C41.5396 39 41.7375 39.0819 41.8833 39.2278C42.0292 39.3737 42.1111 39.5715 42.1111 39.7778C42.1111 39.9841 42.0292 40.1819 41.8833 40.3278C41.7375 40.4736 41.5396 40.5556 41.3334 40.5556Z" fill="white"/>
</svg>
