<svg width="40" height="40" viewBox="0 0 40 40" fill="none" xmlns="http://www.w3.org/2000/svg">
<path d="M24.2858 25.7147C27.4366 25.7147 30.0001 23.1512 30.0001 20.0004C30.0001 16.8496 27.4366 14.2861 24.2858 14.2861C21.135 14.2861 18.5715 16.8496 18.5715 20.0004C18.5715 23.1512 21.135 25.7147 24.2858 25.7147ZM24.2858 17.1433C25.8616 17.1433 27.143 18.4247 27.143 20.0004C27.143 21.5762 25.8616 22.8576 24.2858 22.8576C22.7101 22.8576 21.4287 21.5762 21.4287 20.0004C21.4287 18.4247 22.7101 17.1433 24.2858 17.1433Z" fill="#F15A24"/>
<path d="M38.8518 17.1712L35.1325 16.4276C34.9553 15.8891 34.7377 15.3645 34.4817 14.8581L36.5862 11.7017C36.9643 11.1353 36.8889 10.3806 36.4076 9.89927L34.3868 7.87849C33.9069 7.39788 33.1522 7.32185 32.5844 7.69992L29.4273 9.80441C28.9209 9.54841 28.397 9.33078 27.8585 9.1536L27.1149 5.43429C26.9817 4.76674 26.3951 4.28613 25.7143 4.28613H22.8571C22.1763 4.28613 21.5897 4.76674 21.4564 5.43429L20.7129 9.1536C20.4681 9.23408 20.2384 9.35231 20 9.44936V12.6043C20.7151 12.1885 21.4765 11.869 22.2768 11.6766C22.818 11.5469 23.2345 11.1137 23.3433 10.5682L24.0283 7.14328H24.5431L25.2281 10.5682C25.3369 11.1137 25.7533 11.5469 26.2946 11.6766C27.1596 11.8845 27.9855 12.227 28.7493 12.695C29.2222 12.9859 29.8249 12.9741 30.2874 12.665L33.1947 10.7266L33.5595 11.0914L31.6211 13.9987C31.312 14.4619 31.3009 15.0632 31.5918 15.5375C32.0584 16.2992 32.4009 17.1251 32.6095 17.9915C32.7392 18.5328 33.1724 18.9492 33.7179 19.058L37.1428 19.743V20.2578L33.7179 20.9428C33.1724 21.0516 32.7392 21.4681 32.6095 22.0093C32.4009 22.8757 32.0584 23.7016 31.5918 24.4633C31.3009 24.9376 31.312 25.5389 31.6211 26.0021L33.5595 28.9095L33.1947 29.2743L30.2874 27.3358C29.8256 27.0268 29.2236 27.0142 28.7493 27.3058C27.9855 27.7739 27.1596 28.1164 26.2946 28.3242C25.7533 28.454 25.3369 28.8871 25.2281 29.4326L24.5431 32.8576H24.0283L23.3433 29.4326C23.2345 28.8871 22.818 28.454 22.2768 28.3242C21.4125 28.1164 20.5859 27.7739 19.8214 27.3058C19.3457 27.0156 18.7465 27.0282 18.2833 27.3358L17.1428 28.0963V31.5303L19.1434 30.1964C19.6505 30.4524 20.1744 30.6701 20.7129 30.8472L21.4564 34.5665C21.5897 35.2341 22.1763 35.7147 22.8571 35.7147H25.7143C26.3951 35.7147 26.9817 35.2341 27.1149 34.5665L27.8585 30.8472C28.397 30.6701 28.9209 30.4524 29.4273 30.1964L32.5844 32.3009C33.1529 32.6783 33.9055 32.6044 34.3868 32.1224L36.4076 30.1016C36.8889 29.6203 36.9643 28.8655 36.5862 28.2991L34.4817 25.1427C34.7377 24.6363 34.9553 24.1117 35.1325 23.5732L38.8518 22.8297C39.5194 22.6964 40 22.1098 40 21.429V18.5718C40 17.891 39.5194 17.3044 38.8518 17.1712Z" fill="#F15A24"/>
<path d="M7.14286 24.2857H5.71429V1.42857C5.71429 0.639648 5.07464 0 4.28571 0C3.49679 0 2.85714 0.639648 2.85714 1.42857V24.2857H1.42857C0.639648 24.2857 0 24.9254 0 25.7143V31.4286C0 32.2175 0.639648 32.8571 1.42857 32.8571H2.85714V38.5714C2.85714 39.3604 3.49679 40 4.28571 40C5.07464 40 5.71429 39.3604 5.71429 38.5714V32.8571H7.14286C7.93178 32.8571 8.57143 32.2175 8.57143 31.4286V25.7143C8.57143 24.9254 7.93178 24.2857 7.14286 24.2857ZM5.71429 30H2.85714V27.1429H5.71429V30Z" fill="#F15A24"/>
<path d="M17.1429 15.7143C17.9318 15.7143 18.5714 15.0746 18.5714 14.2857V8.57143C18.5714 7.78251 17.9318 7.14286 17.1429 7.14286H15.7143V1.42857C15.7143 0.639648 15.0746 0 14.2857 0C13.4968 0 12.8571 0.639648 12.8571 1.42857V7.14286H11.4286C10.6396 7.14286 10 7.78251 10 8.57143V14.2857C10 15.0746 10.6396 15.7143 11.4286 15.7143H12.8571V38.5714C12.8571 39.3604 13.4968 40 14.2857 40C15.0746 40 15.7143 39.3604 15.7143 38.5714V15.7143H17.1429ZM12.8571 10H15.7143V12.8571H12.8571V10Z" fill="#F15A24"/>
</svg>
