<svg width="18" height="18" viewBox="0 0 18 18" fill="none" xmlns="http://www.w3.org/2000/svg">
<path d="M17.7188 9.25C17.7188 14.0664 13.7812 17.9688 9 17.9688C4.18359 17.9688 0.28125 14.0664 0.28125 9.25C0.28125 4.46875 4.18359 0.53125 9 0.53125C13.7812 0.53125 17.7188 4.46875 17.7188 9.25ZM7.98047 13.8906L14.4492 7.42188C14.6602 7.21094 14.6602 6.82422 14.4492 6.61328L13.6406 5.83984C13.4297 5.59375 13.0781 5.59375 12.8672 5.83984L7.59375 11.1133L5.09766 8.65234C4.88672 8.40625 4.53516 8.40625 4.32422 8.65234L3.51562 9.42578C3.30469 9.63672 3.30469 10.0234 3.51562 10.2344L7.17188 13.8906C7.38281 14.1016 7.76953 14.1016 7.98047 13.8906Z" fill="white"/>
</svg>
