<svg width="40" height="40" viewBox="0 0 40 40" fill="none" xmlns="http://www.w3.org/2000/svg">
<path d="M39.0476 15.2381H35.4571C35.1619 14.2667 34.7714 13.3333 34.2952 12.4381L36.8286 9.90476C37.2 9.53333 37.2 8.93333 36.8286 8.5619L31.4381 3.17143C31.0667 2.8 30.4667 2.8 30.0952 3.17143L27.5619 5.70476C26.6667 5.22857 25.7333 4.8381 24.7619 4.54286V0.952381C24.7619 0.428571 24.3333 0 23.8095 0H16.1905C15.6667 0 15.2381 0.428571 15.2381 0.952381V4.54286C14.2667 4.8381 13.3333 5.22857 12.4381 5.70476L9.90476 3.17143C9.53333 2.8 8.93333 2.8 8.5619 3.17143L3.17143 8.5619C2.8 8.93333 2.8 9.53333 3.17143 9.90476L5.70476 12.4381C5.22857 13.3333 4.8381 14.2667 4.54286 15.2381H0.952381C0.428571 15.2381 0 15.6667 0 16.1905V23.8095C0 24.3333 0.428571 24.7619 0.952381 24.7619H4.54286C4.8381 25.7333 5.22857 26.6667 5.70476 27.5619L3.17143 30.0952C2.8 30.4667 2.8 31.0667 3.17143 31.4381L8.5619 36.8286C8.93333 37.2 9.53333 37.2 9.90476 36.8286L12.4381 34.2952C13.3333 34.7714 14.2667 35.1524 15.2381 35.4571V39.0476C15.2381 39.5714 15.6667 40 16.1905 40H23.8095C24.3333 40 24.7619 39.5714 24.7619 39.0476V35.4571C25.7333 35.1619 26.6667 34.7714 27.5619 34.2952L30.0952 36.8286C30.4667 37.2 31.0667 37.2 31.4381 36.8286L36.8286 31.4381C37.2 31.0667 37.2 30.4667 36.8286 30.0952L34.2952 27.5619C34.7714 26.6667 35.1524 25.7333 35.4571 24.7619H39.0476C39.5714 24.7619 40 24.3333 40 23.8095V16.1905C40 15.6667 39.5714 15.2381 39.0476 15.2381ZM38.0952 22.8571H34.7429C34.3048 22.8571 33.9333 23.1524 33.819 23.5714C33.4857 24.8667 32.9714 26.1048 32.2952 27.2476C32.0762 27.619 32.1333 28.0952 32.4381 28.4095L34.8095 30.781L30.7714 34.819L28.4 32.4476C28.0952 32.1429 27.619 32.0857 27.2381 32.3048C26.0952 32.9809 24.8571 33.4952 23.5619 33.8286C23.1524 33.9238 22.8571 34.3048 22.8571 34.7429V38.0952H17.1429V34.7429C17.1429 34.3048 16.8476 33.9333 16.4286 33.819C15.1333 33.4857 13.8952 32.9714 12.7524 32.2952C12.381 32.0762 11.9048 32.1333 11.5905 32.4381L9.21905 34.8095L5.18095 30.7714L7.55238 28.4C7.85714 28.0952 7.92381 27.619 7.69524 27.2381C7.01905 26.0952 6.50476 24.8571 6.17143 23.5619C6.07619 23.1524 5.69524 22.8571 5.25714 22.8571H1.90476V17.1429H5.25714C5.69524 17.1429 6.06667 16.8476 6.18095 16.4286C6.51429 15.1333 7.02857 13.8952 7.70476 12.7524C7.92381 12.381 7.86667 11.9048 7.5619 11.5905L5.19048 9.21905L9.22857 5.18095L11.6 7.55238C11.9048 7.85714 12.381 7.91429 12.7619 7.69524C13.9048 7.01905 15.1429 6.50476 16.4381 6.17143C16.8476 6.07619 17.1429 5.69524 17.1429 5.25714V1.90476H22.8571V5.25714C22.8571 5.69524 23.1524 6.06667 23.5714 6.18095C24.8667 6.51429 26.1048 7.02857 27.2476 7.70476C27.619 7.92381 28.0952 7.86667 28.4095 7.5619L30.781 5.19048L34.819 9.22857L32.4476 11.6C32.1429 11.9048 32.0762 12.381 32.3048 12.7619C32.9809 13.9048 33.4952 15.1429 33.8286 16.4381C33.9333 16.8571 34.3143 17.1524 34.7524 17.1524H38.0952V22.8571Z" fill="#F15A24"/>
</svg>
