<svg width="40" height="40" viewBox="0 0 40 40" fill="none" xmlns="http://www.w3.org/2000/svg">
<path d="M12.5 20.0001C8.33333 20.0001 5 16.6667 5 12.5C5 8.33335 8.33333 5 12.5 5V6.66668C9.25 6.66668 6.66667 9.25002 6.66667 12.5C6.66667 15.7501 9.25 18.3334 12.5 18.3334V20.0001Z" fill="#F15A24"/>
<path d="M27.5 20.0001V18.3334C30.75 18.3334 33.3333 15.7501 33.3333 12.5C33.3333 9.25002 30.75 6.66668 27.5 6.66668V5C31.6667 5 35 8.33335 35 12.5C35 16.6667 31.6667 20.0001 27.5 20.0001Z" fill="#F15A24"/>
<path d="M16.6667 36.6669H8.33333C7.91667 36.6669 7.5 36.5002 7.16667 36.1669C6.83333 35.8335 6.66667 35.4168 6.66667 35.0002V28.3335C6.66667 26.0001 6.66667 24.5001 4.41667 22.2501C2.41667 20.2501 0 16.4167 0 12.5001C0 5.58336 5.58333 0 12.5 0C14.4167 0 16.1667 0.416669 17.8333 1.16667L17.0833 2.66668C15.6667 2.00001 14.1667 1.66668 12.5 1.66668C6.5 1.66668 1.66667 6.50003 1.66667 12.5001C1.66667 16.1667 4.16667 19.5834 5.58333 21.0834C8.33333 23.8335 8.33333 25.9168 8.33333 28.3335V35.0002H16.6667V28.3335C16.6667 25.9168 16.6667 23.8335 19.4167 21.0834C20.8333 19.5834 23.3333 16.1667 23.3333 12.5001C23.3333 10.2501 22.6667 8.16671 21.4167 6.33337L22.75 5.41669C24.25 7.4167 25 9.91672 25 12.5001C25 16.4167 22.5833 20.2501 20.5833 22.2501C18.3333 24.5001 18.3333 26.0001 18.3333 28.3335V35.0002C18.3333 35.4168 18.1667 35.8335 17.8333 36.1669C17.5 36.5002 17.0833 36.6669 16.6667 36.6669Z" fill="#F15A24"/>
<path d="M5.83325 28.334H7.49992V30.0007H5.83325V28.334Z" fill="#F15A24"/>
<path d="M5.83325 31.667H7.49992V33.3337H5.83325V31.667Z" fill="#F15A24"/>
<path d="M10 28.334H19.1667V30.0007H10V28.334Z" fill="#F15A24"/>
<path d="M10 31.667H19.1667V33.3337H10V31.667Z" fill="#F15A24"/>
<path d="M14.1667 39.9997H10.8334C10.4167 39.9997 10.0001 39.833 9.66675 39.4997C9.33342 39.1664 9.16675 38.7497 9.16675 38.333V35.833H10.8334V38.333H14.1667V35.833H15.8334V38.333C15.8334 38.7497 15.6667 39.1664 15.3334 39.4997C15.0001 39.833 14.5834 39.9997 14.1667 39.9997Z" fill="#F15A24"/>
<path d="M31.6667 36.6669H23.3333C22.9167 36.6669 22.5 36.5002 22.1667 36.1669C21.8333 35.8335 21.6667 35.4168 21.6667 35.0002V28.3335C21.6667 26.9168 21.6667 25.7501 21.0833 24.5001L22.5833 23.7501C23.3333 25.3335 23.3333 26.8335 23.3333 28.3335V35.0002H31.6667V28.3335C31.6667 25.9168 31.6667 23.8335 34.4167 21.0834C35.8333 19.5834 38.3333 16.1667 38.3333 12.5001C38.3333 6.50003 33.5 1.66668 27.5 1.66668C21.5 1.66668 16.6667 6.50003 16.6667 12.5001C16.6667 15.3334 18.1667 17.9168 19 19.1668L17.6667 20.0834C16.6667 18.6668 15 15.8334 15 12.5001C15 5.58336 20.5833 0 27.5 0C34.4167 0 40 5.58336 40 12.5001C40 16.4167 37.5833 20.2501 35.5833 22.2501C33.3333 24.5001 33.3333 26.0001 33.3333 28.3335V35.0002C33.3333 35.4168 33.1667 35.8335 32.8333 36.1669C32.5 36.5002 32.0833 36.6669 31.6667 36.6669Z" fill="#F15A24"/>
<path d="M20.8333 28.334H22.4999V30.0007H20.8333V28.334Z" fill="#F15A24"/>
<path d="M20.8333 31.667H22.4999V33.3337H20.8333V31.667Z" fill="#F15A24"/>
<path d="M25 28.334H34.1667V30.0007H25V28.334Z" fill="#F15A24"/>
<path d="M25 31.667H34.1667V33.3337H25V31.667Z" fill="#F15A24"/>
<path d="M29.1667 39.9997H25.8334C25.4167 39.9997 25.0001 39.833 24.6667 39.4997C24.3334 39.1664 24.1667 38.7497 24.1667 38.333V35.833H25.8334V38.333H29.1667V35.833H30.8334V38.333C30.8334 38.7497 30.6667 39.1664 30.3334 39.4997C30.0001 39.833 29.5834 39.9997 29.1667 39.9997Z" fill="#F15A24"/>
<path d="M19.1667 8.33301H20.8334V9.99968H19.1667V8.33301Z" fill="#F15A24"/>
<path d="M19.1667 11.666H20.8334V13.3327H19.1667V11.666Z" fill="#F15A24"/>
<path d="M19.1667 15H20.8334V16.6667H19.1667V15Z" fill="#F15A24"/>
</svg>
