<svg width="48" height="48" viewBox="0 0 48 48" fill="none" xmlns="http://www.w3.org/2000/svg">
<rect x="0.5" y="0.5" width="47" height="47" rx="23.5" fill="#07090D"/>
<rect x="0.5" y="0.5" width="47" height="47" rx="23.5" stroke="#1B212C"/>
<path d="M31.7627 19.1543C31.1795 19.4122 30.5611 19.5817 29.9279 19.6569C30.5953 19.2577 31.0949 18.6295 31.3334 17.8893C30.707 18.2621 30.0203 18.5233 29.3045 18.6646C28.8237 18.1502 28.1865 17.809 27.4918 17.6942C26.7971 17.5793 26.0839 17.6972 25.4631 18.0294C24.8423 18.3617 24.3487 18.8897 24.059 19.5315C23.7693 20.1732 23.6997 20.8927 23.8611 21.5781C22.5908 21.5144 21.3481 21.1843 20.2137 20.6092C19.0793 20.0341 18.0785 19.2269 17.2763 18.2399C16.9924 18.7276 16.8432 19.282 16.844 19.8464C16.844 20.954 17.4077 21.9325 18.2648 22.5055C17.7576 22.4895 17.2615 22.3525 16.818 22.1059V22.1457C16.8182 22.8834 17.0734 23.5983 17.5405 24.1693C18.0076 24.7402 18.6578 25.1321 19.3809 25.2784C18.91 25.406 18.4163 25.4248 17.9371 25.3334C18.141 25.9683 18.5383 26.5237 19.0735 26.9216C19.6086 27.3195 20.2548 27.5401 20.9216 27.5525C20.2589 28.0729 19.5002 28.4577 18.6887 28.6847C17.8772 28.9117 17.0289 28.9766 16.1924 28.8755C17.6527 29.8147 19.3527 30.3133 21.0889 30.3116C26.9655 30.3116 30.1792 25.4434 30.1792 21.2214C30.1792 21.0839 30.1754 20.9448 30.1693 20.8089C30.7948 20.3568 31.3346 19.7967 31.7635 19.155L31.7627 19.1543Z" fill="white"/>
</svg>
