<svg width="49" height="62" viewBox="0 0 49 62" fill="none" xmlns="http://www.w3.org/2000/svg">
<path d="M24.1635 9.59766L27.5434 13.8359H32.9643L31.7581 19.121L35.138 23.3592L30.2539 25.7113L29.0476 30.9962L24.1635 28.6442L19.2793 30.9962L18.0731 25.7113L13.189 23.3592L16.5689 19.121L15.3627 13.8359H20.7836L24.1635 9.59766Z" stroke="#F15A24" stroke-width="2" stroke-miterlimit="10" stroke-linecap="round" stroke-linejoin="round"/>
<path d="M24.1633 41.2359C35.2742 41.2359 44.2813 32.2287 44.2813 21.1179C44.2813 10.0071 35.2742 1 24.1633 1C13.0525 1 4.04541 10.0071 4.04541 21.1179C4.04541 32.2287 13.0525 41.2359 24.1633 41.2359Z" stroke="#F15A24" stroke-width="2" stroke-miterlimit="10" stroke-linecap="round" stroke-linejoin="round"/>
<path d="M10.0532 35.459L1 54.3014L10.7634 51.8418L14.9427 61.0007L24.1634 41.2364" stroke="#F15A24" stroke-width="2" stroke-miterlimit="10" stroke-linecap="round" stroke-linejoin="round"/>
<path d="M16.571 39.7549L10.7637 51.8413" stroke="#F15A24" stroke-width="2" stroke-miterlimit="10" stroke-linecap="round" stroke-linejoin="round"/>
<path d="M24.1636 41.2364L33.3843 61.0007L37.5635 51.8418L47.3269 54.3014L38.2738 35.459" stroke="#F15A24" stroke-width="2" stroke-miterlimit="10" stroke-linecap="round" stroke-linejoin="round"/>
<path d="M37.5632 51.8413L31.7559 39.7549" stroke="#F15A24" stroke-width="2" stroke-miterlimit="10" stroke-linecap="round" stroke-linejoin="round"/>
</svg>
