<svg width="32" height="40" viewBox="0 0 32 40" fill="none" xmlns="http://www.w3.org/2000/svg">
<path fill-rule="evenodd" clip-rule="evenodd" d="M14.7997 28.7759L11.9496 25.9846L11.0094 27.63L13.3012 30.627L14.7997 28.7759ZM10.8919 24.3097V22.253C9.01138 21.1071 8.07114 19.6967 7.24843 17.9925C6.6314 16.6703 5.72054 14.2609 6.22004 12.2923C4.42771 9.32467 5.74992 -1.98759 14.6528 0.304245C18.3844 1.27387 16.6508 1.92028 21.6165 2.21411C25.495 2.44917 26.2589 3.5657 26.3177 5.4168C26.3471 8.03184 27.8456 9.00146 25.7594 12.1454C26.8466 15.113 24.2609 19.2853 23.115 20.5488C22.4979 21.2246 21.8221 21.7829 21.0582 22.253V24.3097L22.5273 26.8073H23.7614C27.9043 26.8073 31.2833 30.1862 31.2833 34.3292V39.1185C31.2833 39.618 30.9013 40 30.4018 40H1.54822C1.04872 40 0.666748 39.618 0.666748 39.1185V34.3292C0.666748 30.1862 4.04574 26.8073 8.18867 26.8073H9.42273L10.8919 24.3097ZM12.1553 20.9601C13.4481 21.6066 14.4765 21.9591 15.975 21.9591C22.733 21.9591 25.0836 14.0553 24.0258 12.5274C23.497 11.9985 22.5861 11.734 21.2051 11.734C18.737 11.734 14.9466 12.7918 13.3306 11.7928C12.0672 10.9995 11.0682 10.4706 10.3924 10.4706C9.77532 10.4706 9.12891 10.9995 7.98299 12.5274C7.6304 13.5558 7.95361 15.3187 8.83508 17.2286C9.74594 19.1384 10.598 20.0787 12.1553 20.9601ZM12.6548 23.1344V24.1922L15.975 27.4537L19.2953 24.1922V23.1344C17.1503 23.9278 14.7997 23.9278 12.6548 23.1344ZM20.0004 25.9846L17.1503 28.7759L18.6488 30.627L20.9407 27.63L20.0004 25.9846ZM16.0044 38.2371H23.4088V35.2694C23.4088 34.0941 25.1718 34.0941 25.1718 35.2694V38.2371H29.5204V34.3292C29.5204 31.1559 26.9347 28.5702 23.7614 28.5702H22.4392L19.354 32.5956C19.0308 33.0363 18.3256 33.0657 17.973 32.625L15.975 30.0981L13.977 32.625C13.6244 33.0657 12.9193 33.0363 12.596 32.5956L9.51088 28.5702H8.18867C5.01536 28.5702 2.4297 31.1559 2.4297 34.3292V38.2371H6.77831V35.2694C6.77831 34.0941 8.54126 34.0941 8.54126 35.2694V38.2371H16.0044ZM21.2051 9.97109C22.6155 9.97109 23.732 10.2355 24.5547 10.735C25.7594 8.70764 24.6135 8.17875 24.5547 5.44618C24.5253 4.65285 24.5253 4.15335 21.5283 3.97706C16.1807 3.68323 17.5911 2.8899 14.2121 2.00843C11.3032 1.24448 9.24644 2.21411 8.10052 4.88791C7.21905 6.88592 7.18966 9.119 7.42472 10.4118C9.65779 7.85555 11.3326 8.47258 14.2708 10.2943C14.8585 10.6469 16.9447 10.3531 17.8849 10.2355C18.972 10.118 20.118 9.97109 21.2051 9.97109Z" fill="#E65E2F"/>
</svg>
