<svg width="19" height="10" viewBox="0 0 19 10" fill="none" xmlns="http://www.w3.org/2000/svg">
<path d="M17.881 5.2719L14.022 9.1309C13.954 9.21023 13.869 9.25556 13.767 9.2669C13.665 9.27823 13.5715 9.2499 13.4865 9.1819C13.4015 9.1139 13.3533 9.02606 13.342 8.9184C13.3307 8.81073 13.3647 8.71723 13.444 8.6379C13.444 8.62656 13.4553 8.60956 13.478 8.5869L16.691 5.3909H1.391C1.27767 5.3909 1.18417 5.35123 1.1105 5.2719C1.03683 5.19256 1 5.1019 1 4.9999C1 4.8979 1.03683 4.80723 1.1105 4.7279C1.18417 4.64856 1.27767 4.6089 1.391 4.6089H16.691L13.478 1.4129C13.3987 1.3449 13.3533 1.25706 13.342 1.1494C13.3307 1.04173 13.3647 0.948231 13.444 0.868897C13.5233 0.789564 13.614 0.744231 13.716 0.732897C13.818 0.721564 13.9087 0.749897 13.988 0.817897L14.022 0.868897L17.881 4.7279C17.9603 4.80723 18 4.8979 18 4.9999C18 5.1019 17.9603 5.19256 17.881 5.2719Z" fill="#00B7FF" stroke="#00B7FF" stroke-width="0.5"/>
</svg>
