<svg width="60" height="60" viewBox="0 0 60 60" fill="none" xmlns="http://www.w3.org/2000/svg">
<g clip-path="url(#clip0_613_9120)">
<path d="M59.0625 26.25H56.25V11.2172C56.2488 10.729 56.0543 10.2611 55.7091 9.91593C55.3639 9.57072 54.896 9.37624 54.4078 9.375H33.7172C33.229 9.37624 32.7611 9.57072 32.4159 9.91593C32.0707 10.2611 31.8762 10.729 31.875 11.2172V26.25H29.0625C28.8139 26.25 28.5754 26.3488 28.3996 26.5246C28.2238 26.7004 28.125 26.9389 28.125 27.1875V27.4547C28.125 29.9344 30.2906 31.875 33.0562 31.875H55.0875C57.8531 31.875 60.0187 29.9344 60.0187 27.4547V27.1875C60.0188 27.0628 59.9939 26.9393 59.9456 26.8244C59.8974 26.7094 59.8266 26.6052 59.7376 26.5179C59.6485 26.4306 59.5429 26.3619 59.427 26.3159C59.3111 26.2699 59.1872 26.2475 59.0625 26.25ZM33.7172 11.25L54.375 11.2172V26.25H33.75L33.7172 11.25ZM55.0688 30H33.0375C31.6031 30 30.4313 29.2172 30.0844 28.125H58.0031C57.6562 29.2172 56.5031 30 55.0688 30Z" fill="#F15A24"/>
<path d="M44.0625 15C44.5803 15 45 14.5803 45 14.0625C45 13.5447 44.5803 13.125 44.0625 13.125C43.5447 13.125 43.125 13.5447 43.125 14.0625C43.125 14.5803 43.5447 15 44.0625 15Z" fill="#F15A24"/>
<path d="M21.5625 35.625C21.8111 35.625 22.0496 35.5262 22.2254 35.3504C22.4012 35.1746 22.5 34.9361 22.5 34.6875V33.75H25.3125C25.5611 33.75 25.7996 33.6512 25.9754 33.4754C26.1512 33.2996 26.25 33.0611 26.25 32.8125V10.3125C26.25 10.0639 26.1512 9.8254 25.9754 9.64959C25.7996 9.47377 25.5611 9.375 25.3125 9.375H6.5625C6.31386 9.375 6.0754 9.47377 5.89959 9.64959C5.72377 9.8254 5.625 10.0639 5.625 10.3125V32.8125C5.625 33.0611 5.72377 33.2996 5.89959 33.4754C6.0754 33.6512 6.31386 33.75 6.5625 33.75H9.375V34.6875C9.375 34.9361 9.47377 35.1746 9.64959 35.3504C9.8254 35.5262 10.0639 35.625 10.3125 35.625C10.5611 35.625 10.7996 35.5262 10.9754 35.3504C11.1512 35.1746 11.25 34.9361 11.25 34.6875V33.75H20.625V34.6875C20.625 34.9361 20.7238 35.1746 20.8996 35.3504C21.0754 35.5262 21.3139 35.625 21.5625 35.625ZM7.5 18.75H24.375V24.375H7.5V18.75ZM24.375 11.25V16.875H7.5V11.25H24.375ZM7.5 26.25H24.375V31.875H7.5V26.25Z" fill="#F15A24"/>
<path d="M10.3125 22.5C10.8303 22.5 11.25 22.0803 11.25 21.5625C11.25 21.0447 10.8303 20.625 10.3125 20.625C9.79473 20.625 9.375 21.0447 9.375 21.5625C9.375 22.0803 9.79473 22.5 10.3125 22.5Z" fill="#F15A24"/>
<path d="M10.3125 15C10.8303 15 11.25 14.5803 11.25 14.0625C11.25 13.5447 10.8303 13.125 10.3125 13.125C9.79473 13.125 9.375 13.5447 9.375 14.0625C9.375 14.5803 9.79473 15 10.3125 15Z" fill="#F15A24"/>
<path d="M10.3125 30C10.8303 30 11.25 29.5803 11.25 29.0625C11.25 28.5447 10.8303 28.125 10.3125 28.125C9.79473 28.125 9.375 28.5447 9.375 29.0625C9.375 29.5803 9.79473 30 10.3125 30Z" fill="#F15A24"/>
<path d="M59.0625 46.875H48.6562C48.4725 45.9742 48.028 45.1472 47.3779 44.4971C46.7278 43.847 45.9008 43.4025 45 43.2187V34.6875C45 34.4389 44.9012 34.2004 44.7254 34.0246C44.5496 33.8488 44.3111 33.75 44.0625 33.75C43.8139 33.75 43.5754 33.8488 43.3996 34.0246C43.2238 34.2004 43.125 34.4389 43.125 34.6875V43.2187C42.2242 43.4025 41.3972 43.847 40.7471 44.4971C40.097 45.1472 39.6525 45.9742 39.4688 46.875H20.5312C20.3475 45.9742 19.903 45.1472 19.2529 44.4971C18.6028 43.847 17.7758 43.4025 16.875 43.2187V36.5625C16.875 36.3139 16.7762 36.0754 16.6004 35.8996C16.4246 35.7238 16.1861 35.625 15.9375 35.625C15.6889 35.625 15.4504 35.7238 15.2746 35.8996C15.0988 36.0754 15 36.3139 15 36.5625V43.2187C14.0992 43.4025 13.2722 43.847 12.6221 44.4971C11.972 45.1472 11.5275 45.9742 11.3438 46.875H0.9375C0.68886 46.875 0.450403 46.9738 0.274587 47.1496C0.0987721 47.3254 0 47.5639 0 47.8125C0 48.0611 0.0987721 48.2996 0.274587 48.4754C0.450403 48.6512 0.68886 48.75 0.9375 48.75H11.3438C11.5589 49.8096 12.1338 50.7623 12.971 51.4466C13.8082 52.1309 14.8562 52.5047 15.9375 52.5047C17.0188 52.5047 18.0668 52.1309 18.904 51.4466C19.7412 50.7623 20.3161 49.8096 20.5312 48.75H39.4688C39.6839 49.8096 40.2588 50.7623 41.096 51.4466C41.9332 52.1309 42.9812 52.5047 44.0625 52.5047C45.1438 52.5047 46.1918 52.1309 47.029 51.4466C47.8662 50.7623 48.4411 49.8096 48.6562 48.75H59.0625C59.3111 48.75 59.5496 48.6512 59.7254 48.4754C59.9012 48.2996 60 48.0611 60 47.8125C60 47.5639 59.9012 47.3254 59.7254 47.1496C59.5496 46.9738 59.3111 46.875 59.0625 46.875ZM15.9375 50.625C15.3812 50.625 14.8375 50.46 14.375 50.151C13.9124 49.842 13.552 49.4027 13.3391 48.8888C13.1262 48.3749 13.0705 47.8094 13.179 47.2638C13.2876 46.7182 13.5554 46.2171 13.9488 45.8238C14.3421 45.4304 14.8432 45.1626 15.3888 45.054C15.9344 44.9455 16.4999 45.0012 17.0138 45.2141C17.5277 45.427 17.967 45.7874 18.276 46.25C18.5851 46.7125 18.75 47.2562 18.75 47.8125C18.75 48.5584 18.4537 49.2738 17.9262 49.8012C17.3988 50.3287 16.6834 50.625 15.9375 50.625ZM44.0625 50.625C43.5062 50.625 42.9625 50.46 42.5 50.151C42.0374 49.842 41.677 49.4027 41.4641 48.8888C41.2512 48.3749 41.1955 47.8094 41.304 47.2638C41.4126 46.7182 41.6804 46.2171 42.0738 45.8238C42.4671 45.4304 42.9682 45.1626 43.5138 45.054C44.0594 44.9455 44.6249 45.0012 45.1388 45.2141C45.6527 45.427 46.092 45.7874 46.401 46.25C46.71 46.7125 46.875 47.2562 46.875 47.8125C46.875 48.5584 46.5787 49.2738 46.0512 49.8012C45.5238 50.3287 44.8084 50.625 44.0625 50.625Z" fill="#F15A24"/>
</g>
<defs>
<clipPath id="clip0_613_9120">
<rect width="60" height="60" fill="white"/>
</clipPath>
</defs>
</svg>
