<svg width="60" height="37" viewBox="0 0 60 37" fill="none" xmlns="http://www.w3.org/2000/svg">
<path d="M10.6414 21.6659C10.4531 21.6659 10.2649 21.5718 10.1707 21.4776L7.81734 19.8773C7.4408 19.5949 7.25253 19.1242 7.4408 18.7477L13.1831 5.56875C13.2772 5.28634 13.4655 5.09807 13.7479 5.09807C14.0303 5.00394 14.3127 5.09807 14.501 5.19221C14.501 5.19221 16.6661 6.60424 19.5843 8.1104C20.0549 8.29868 20.2432 8.86349 19.9608 9.33416C19.7725 9.80484 19.2077 9.99311 18.737 9.71071C16.8543 8.76935 15.3482 7.828 14.4068 7.26319L9.41765 18.8418L11.2062 20.0656C11.5828 20.348 11.771 20.9128 11.3945 21.2894C11.2062 21.5718 10.9238 21.6659 10.6414 21.6659Z" fill="#F15A24"/>
<path d="M41.8945 31.6441C40.859 31.6441 39.9177 31.2676 39.8235 31.1734C39.7294 31.0793 39.6353 31.0793 39.5411 30.891L33.0458 23.0778C32.7634 22.7013 32.7634 22.1364 33.1399 21.7599C33.5165 21.4775 34.0813 21.4775 34.4578 21.854L40.7649 29.479C41.2356 29.6673 42.1769 29.8555 42.7417 29.479C43.4007 29.0083 43.4948 27.7846 43.4948 26.8432C43.4948 26.3725 43.8714 25.9019 44.342 25.9019C44.8127 25.9019 45.2834 26.2784 45.2834 26.7491C45.3775 28.82 44.8127 30.2321 43.6831 30.9852C43.1183 31.55 42.4593 31.6441 41.8945 31.6441Z" fill="#F15A24"/>
<path d="M36.717 34.1862C35.5873 34.1862 34.7401 33.7155 34.646 33.7155C34.5519 33.6213 34.4577 33.6213 34.3636 33.4331L28.7155 26.5612C28.4331 26.1847 28.4331 25.6198 28.8096 25.2433C29.1861 24.9609 29.7509 24.9609 30.1275 25.3374L35.6815 32.021C36.1522 32.2093 36.9994 32.3976 37.5642 32.021C38.3173 31.5504 38.5997 30.2325 38.5997 29.2911C38.5997 28.8204 39.0704 28.4439 39.541 28.4439C40.0117 28.4439 40.3882 28.9146 40.3882 29.3853C40.2941 31.4562 39.6352 32.9624 38.4114 33.6213C37.8466 34.092 37.2818 34.1862 36.717 34.1862Z" fill="#F15A24"/>
<path d="M31.3512 36.3514C29.2802 36.3514 27.8682 33.998 27.774 33.7156C27.4916 33.2449 27.6799 32.6801 28.1506 32.4918C28.6213 32.2094 29.1861 32.3977 29.3743 32.8683C29.7509 33.4332 30.6922 34.5628 31.4453 34.5628C32.1043 34.4687 32.9515 33.5273 33.6104 31.8329C33.7987 31.3622 34.3635 31.1739 34.8342 31.3622C35.3049 31.5505 35.4931 32.1153 35.3049 32.5859C34.2694 35.0335 33.0456 36.3514 31.5395 36.4455C31.4453 36.3514 31.3512 36.3514 31.3512 36.3514Z" fill="#F15A24"/>
<path d="M25.1382 36.9159C24.4792 36.9159 23.7261 36.7277 23.0672 36.3511C21.9376 35.598 21.4669 34.186 21.561 32.3033C21.561 31.8326 22.0317 31.4561 22.5024 31.4561C22.9731 31.4561 23.3496 31.8326 23.3496 32.3974C23.3496 33.3388 23.3496 34.4684 24.0085 34.9391C24.6675 35.4098 25.703 35.1274 26.2678 34.9391L29.3743 30.4206C29.5625 29.5734 29.2801 29.291 29.2801 29.1027C28.7153 28.4437 27.3033 28.3496 26.6443 28.3496C26.1737 28.3496 25.703 27.9731 25.703 27.5024C25.703 27.0317 26.0795 26.561 26.5502 26.561C27.2091 26.561 29.5625 26.561 30.6922 27.9731C31.1628 28.5379 31.5394 29.4792 31.1628 31.0795C31.1628 31.1737 31.0687 31.2678 31.0687 31.3619L27.6798 36.1628C27.5857 36.257 27.4916 36.4452 27.3033 36.4452C27.115 36.4452 26.1737 36.9159 25.1382 36.9159Z" fill="#F15A24"/>
<path d="M19.5843 34.657C18.9254 34.657 18.2664 34.5628 17.7016 34.0922C16.6661 33.3391 16.1955 31.927 16.2896 29.9502C16.2896 29.7619 16.3837 29.5737 16.4779 29.4795L23.4439 21.1015C23.538 21.0073 23.7263 20.9132 23.8204 20.8191C24.9501 20.4425 27.3976 20.1601 28.7155 22.2311C29.5627 23.6431 29.3744 25.4317 28.2448 26.7496L22.126 33.9039C22.0319 33.998 21.9377 34.0922 21.8436 34.0922C21.8436 34.1863 20.8081 34.657 19.5843 34.657ZM18.1723 30.4209C18.1723 31.2681 18.2664 32.3036 18.8313 32.6801C19.4902 33.1508 20.6198 32.7743 21.0905 32.586L27.021 25.62C27.5858 24.961 27.68 23.9255 27.3034 23.2666C26.6445 22.2311 25.3266 22.4194 24.7618 22.5135L18.1723 30.4209Z" fill="#F15A24"/>
<path d="M15.5365 31.2678C14.7834 31.2678 13.9362 31.0795 13.1831 30.5147C12.2418 29.6675 11.8652 28.3496 12.1476 26.561C12.1476 26.3728 12.2418 26.2786 12.3359 26.0904L18.4547 18.6537C19.3961 17.524 20.8081 16.9592 22.2201 17.1475C23.3497 17.3358 25.2324 18.183 25.0442 21.7601C25.0442 22.2308 24.5735 22.7015 24.1028 22.6073C23.6321 22.6073 23.2556 22.1367 23.2556 21.666C23.3497 19.1243 22.3142 18.9361 21.9377 18.9361C21.1846 18.8419 20.4315 19.1243 19.8667 19.7833L13.8421 27.0317C13.7479 27.7848 13.7479 28.7261 14.2186 29.1027C14.8776 29.6675 16.3837 29.3851 16.8544 29.1968C17.3251 29.0085 17.8899 29.291 17.984 29.7616C18.1723 30.2323 17.8899 30.7971 17.4192 30.8913C17.4192 30.9854 16.4779 31.2678 15.5365 31.2678Z" fill="#F15A24"/>
<path d="M12.2416 27.5969C10.8296 27.5969 8.9469 27.0321 8.38208 24.9611C8.00554 23.6432 8.38208 22.137 9.32344 21.0074L11.4886 18.3716C12.4299 17.1478 14.0302 16.583 15.4422 16.9596C16.5719 17.242 18.3604 18.1833 18.1722 21.7605C18.1722 22.2311 17.7015 22.7018 17.2308 22.6077C16.7601 22.6077 16.3836 22.137 16.3836 21.6663C16.5719 19.1247 15.4422 18.8423 15.0657 18.7481C14.3126 18.5599 13.4654 18.9364 12.9006 19.5954L10.7355 22.2311C10.1707 22.8901 9.98239 23.8314 10.1707 24.5845C10.6413 26.279 12.6182 25.9024 12.9006 25.9024C13.3713 25.8083 13.8419 26.0907 13.9361 26.6555C14.0302 27.1262 13.7478 27.5969 13.183 27.691C12.9947 27.5969 12.6182 27.5969 12.2416 27.5969Z" fill="#F15A24"/>
<path d="M7.25254 20.6306C6.97014 20.6306 6.5936 20.5364 6.21705 20.4423C4.80502 19.8775 1.13375 17.3358 0.663069 17.0534C0.568933 16.9593 0.474798 16.9593 0.474798 16.8651C0.0982566 16.3003 -0.37242 14.9824 0.474798 13.6645C0.945475 12.8173 4.33435 5.75717 6.40533 1.23867C6.49946 1.0504 6.97014 0.20318 8.00563 0.109045C8.66457 -0.173361 9.32352 0.109045 10.0766 0.767993L14.1244 3.59205C14.4068 3.68619 14.7834 3.96859 14.9716 4.43927C15.1599 4.81581 15.254 5.38062 14.8775 6.22784C14.6892 6.69852 14.1244 6.88679 13.6537 6.69852C13.1831 6.51025 12.9948 5.94544 13.1831 5.47476C13.2772 5.28649 13.2772 5.19236 13.2772 5.19236C13.1831 5.19236 13.1831 5.19235 13.0889 5.09822L8.94698 2.18002L8.85284 2.08589C8.4763 1.80348 8.28803 1.70935 8.1939 1.70935C8.09976 1.70935 8.00563 1.80348 7.91149 1.89762C7.44081 3.02724 2.63991 13.3821 1.88683 14.5118C1.60442 14.9824 1.69856 15.359 1.79269 15.5472C3.39299 16.6769 5.93465 18.3713 6.78187 18.6537C7.25254 18.842 7.44081 18.6537 7.44081 18.6537C7.72322 18.183 8.1939 18.0889 8.66457 18.2772C9.13525 18.5596 9.22939 19.1244 9.04111 19.5009C8.85284 19.9716 8.1939 20.6306 7.25254 20.6306Z" fill="#F15A24"/>
<path d="M46.8834 28.7262C46.0362 28.7262 45.0007 28.3496 43.8711 27.6907C43.7769 27.5965 43.6828 27.5965 43.5887 27.5024L37.6581 20.1598C37.3757 19.7833 37.3757 19.2185 37.7523 18.842C38.1288 18.5595 38.6936 18.5595 39.0702 18.9361L44.9066 26.0904C45.9421 26.6552 46.7893 26.8435 47.2599 26.6552C47.7306 26.4669 47.9189 25.7138 48.013 25.2432C48.1072 24.6783 48.013 24.1135 47.6365 23.5487C44.3418 18.6537 37.3757 11.4994 32.4807 13.0056C30.6921 13.5704 28.2446 13.3821 25.1381 12.3466C23.632 13.6645 20.5255 15.1707 17.0425 13.6645C16.3836 13.3821 15.9129 12.8173 15.8187 12.1583C15.6305 11.4053 15.9129 10.7463 16.3836 10.1815L21.1845 5.19233C21.561 4.53338 22.5023 3.68616 23.8202 3.7803H35.9637C37.0933 3.7803 38.223 4.25097 38.976 5.00406C41.6118 7.54571 43.2121 8.20466 43.7769 8.20466L45.0007 7.07503C45.0948 6.51022 45.2831 5.75714 46.0362 5.3806C46.4127 5.09819 48.2013 3.21548 49.7075 1.52105L49.8016 1.42691C49.8957 1.33278 50.6488 0.673828 51.6843 0.673828C52.2491 0.673828 52.8139 0.956235 53.1905 1.42691C54.1318 2.55654 58.7445 12.0642 59.6858 13.9469C60.0624 14.6059 60.3448 16.0179 59.0269 16.771C58.2738 17.2417 55.638 19.4068 54.6966 20.1598C54.226 20.5364 53.3787 20.9129 52.5315 20.6305L49.6133 23.3604C49.8957 24.1135 49.9899 24.8666 49.8957 25.7138C49.6133 27.4083 48.7661 28.1614 48.1072 28.4438C47.7306 28.632 47.3541 28.7262 46.8834 28.7262ZM33.9869 11.1229C39.4467 11.1229 45.4714 17.5241 48.5778 21.7601L51.9667 18.9361C52.3433 18.6537 52.9081 18.6537 53.1905 19.0302C53.1905 19.0302 53.2846 19.1244 53.567 18.9361C53.9436 18.6537 57.1442 16.0179 58.0855 15.3589C58.2738 15.2648 58.2738 15.1707 58.0855 14.8883C55.3556 9.42842 52.3433 3.30962 51.7784 2.65067H51.6843C51.496 2.65067 51.3078 2.74481 51.2136 2.83894C49.9899 4.34511 47.7306 6.79263 47.0717 7.07503C47.0717 7.07503 46.9775 7.35744 46.9775 7.54571C46.9775 7.82812 46.8834 8.11052 46.6951 8.29879L45.0948 9.89909C45.0007 9.99323 44.9066 10.0874 44.8124 10.0874C44.2476 10.2756 42.5532 10.8404 37.9405 6.51022C37.4699 6.03954 36.8109 5.75714 36.152 5.75714C31.9159 5.75714 24.7616 5.85127 23.8202 5.75714C23.2554 5.663 22.8789 6.32195 22.8789 6.32195C22.8789 6.41608 22.7848 6.41609 22.7848 6.51022L17.7956 11.5935C17.7014 11.6877 17.7014 11.8759 17.7014 11.8759C17.7014 11.9701 17.7956 12.0642 17.8897 12.0642C21.6551 13.6645 24.3851 10.7463 24.3851 10.7463C24.6675 10.4639 25.044 10.3698 25.3264 10.4639H25.4205C28.3387 11.4994 30.598 11.7818 32.01 11.3111C32.669 11.217 33.3279 11.1229 33.9869 11.1229Z" fill="#F15A24"/>
<path d="M52.6258 20.6304C52.3434 20.6304 51.9668 20.4421 51.7786 20.1597L45.1891 8.11035C44.9067 7.63968 45.0949 7.07486 45.5656 6.88659C46.0363 6.60419 46.6011 6.79246 46.7894 7.26313L53.3789 19.3125C53.6613 19.7831 53.473 20.348 53.0023 20.5362C52.9082 20.5362 52.7199 20.6304 52.6258 20.6304Z" fill="#F15A24"/>
<path d="M55.8264 16.1119C55.544 16.1119 55.2616 16.0177 55.0733 15.7353C54.7909 15.3588 54.7909 14.794 55.2616 14.4174L55.7323 14.0409C56.1088 13.7585 56.6736 13.7585 57.0502 14.2291C57.3326 14.6057 57.3326 15.1705 56.8619 15.547L56.3912 15.9236C56.203 16.0177 56.0147 16.1119 55.8264 16.1119Z" fill="#F15A24"/>
<path d="M4.42834 16.2066C4.24007 16.2066 4.0518 16.1124 3.95766 16.0183L3.48698 15.7359C3.11044 15.4535 2.92217 14.8887 3.20458 14.5121C3.48698 14.1356 4.0518 13.9473 4.42834 14.2297L4.89901 14.5121C5.27555 14.7945 5.46383 15.3594 5.18142 15.7359C4.99315 16.0183 4.71074 16.2066 4.42834 16.2066Z" fill="#F15A24"/>
</svg>
