<svg width="60" height="60" viewBox="0 0 60 60" fill="none" xmlns="http://www.w3.org/2000/svg">
<g clip-path="url(#clip0_613_9182)">
<path d="M37.3655 5.17241C37.3655 4.60345 37.831 4.13793 38.4 4.13793H51.031C51.6 4.13793 52.0655 4.60345 52.0655 5.17241C52.0655 5.74138 51.6 6.2069 51.031 6.2069H38.4C37.831 6.2069 37.3655 5.74138 37.3655 5.17241ZM38.4 10.3448H43.5724C44.1414 10.3448 44.6069 9.87931 44.6069 9.31034C44.6069 8.74138 44.1414 8.27586 43.5724 8.27586H38.4C37.831 8.27586 37.3655 8.74138 37.3655 9.31034C37.3655 9.87931 37.831 10.3448 38.4 10.3448ZM60 41.8448C60 48.8586 54.2897 54.5586 47.2862 54.5586C46.6862 54.5586 46.0965 54.5069 45.5172 54.4241V58.9655C45.5172 59.5345 45.0517 60 44.4828 60H1.03448C0.465517 60 0 59.5345 0 58.9655V49.2C0 45.2897 2.07931 41.6172 5.42069 39.5897C6.82759 38.7414 8.35862 38.1931 9.9931 37.9759L12.1241 37.6759L13.9759 36.2483C14.369 35.9483 14.9172 35.9586 15.2897 36.2897L15.5276 36.4965V35.0276C12.5276 33.031 10.3241 29.8448 9.58965 26.131H6.63103C4.90345 26.131 3.5069 24.5897 3.5069 22.6966V19.9862C3.5069 18.0931 4.91379 16.5517 6.63103 16.5517H7.25172V15.5172C7.25172 6.96207 14.2138 0 22.769 0C26.7207 0 30.4034 1.48965 33.2483 4.12759V3.26897C33.2483 1.46897 34.7069 0.0103448 36.5069 0.0103448H53.2759C55.0759 0.0103448 56.5345 1.47931 56.5345 3.26897V11.4207C56.5345 13.2207 55.0759 14.6793 53.2759 14.6793H50.6069L46.3759 18.7345C46.1793 18.9207 45.9207 19.0241 45.6621 19.0241C45.5276 19.0241 45.3828 18.9931 45.2586 18.9414C44.8759 18.7759 44.6276 18.4034 44.6276 17.9897V14.6897H38.2552C38.2759 14.9793 38.2862 15.2586 38.2862 15.5276V16.5621H38.9069C40.6345 16.5621 42.031 18.1034 42.031 19.9966V22.7069C42.031 24.5172 40.7379 25.9862 39.1241 26.1207V28.9345C39.1241 30.4965 37.8517 31.7793 36.2793 31.7793H34.2517C34.0448 32.9793 33 33.9 31.7379 33.9H31.6138C31.0966 34.3552 30.569 34.769 30 35.131V36.5069L30.2379 36.3C30.6103 35.9793 31.1586 35.9586 31.5517 36.2586L33.4034 37.6862L35.1931 37.9345C36.8483 32.8345 41.6379 29.131 47.2862 29.131C54.3 29.131 60 34.831 60 41.8448ZM24.6103 43.9138L29.431 46.3138L32.1207 39.3L30.9517 38.4L24.6103 43.9138ZM32.2241 30.1345C32.2241 29.8655 32.0069 29.6379 31.7276 29.6379H28.2621C27.9931 29.6379 27.7655 29.8552 27.7655 30.1345V31.3241C27.7655 31.5931 27.9828 31.8207 28.2621 31.8207H31.7276C31.9965 31.8207 32.2241 31.6034 32.2241 31.3241V30.1345ZM37.0448 28.9241V26.131H35.9897C35.7724 27.3621 35.3793 28.5621 34.8207 29.7H36.269C36.6931 29.7 37.0448 29.3586 37.0448 28.9241ZM38.8965 18.6207H36.2069V23.7931V24.0621H38.9069C39.4862 24.0621 39.9621 23.4414 39.9621 22.6966V19.9862C39.9621 19.2517 39.4759 18.6207 38.9069 18.6207H38.8965ZM35.3069 11.4207C35.3069 12.0828 35.8448 12.6103 36.4965 12.6103H45.6414C46.2103 12.6103 46.6759 13.0759 46.6759 13.6448V15.5586L49.4586 12.8897C49.6552 12.7034 49.9034 12.6 50.1724 12.6H53.2552C53.9172 12.6 54.4448 12.0621 54.4448 11.4103V3.25862C54.4448 2.59655 53.9069 2.06897 53.2552 2.06897H36.4862C35.8241 2.06897 35.2966 2.6069 35.2966 3.25862V11.4103L35.3069 11.4207ZM9.31034 16.5517H11.8759C15.5276 16.5517 19.1069 15.5276 22.2103 13.6034C22.5414 13.3966 22.9655 13.3966 23.2966 13.6034C26.4 15.5276 29.9793 16.5517 33.631 16.5517H36.1966V15.5172C36.1966 15.2379 36.1862 14.9483 36.1552 14.6483C34.5103 14.4828 33.2276 13.1069 33.2276 11.4207V7.13793C30.6517 3.92069 26.8552 2.06897 22.7483 2.06897C15.331 2.06897 9.3 8.1 9.3 15.5172V16.5517H9.31034ZM9.34138 24.0621C9.33103 23.8345 9.31034 23.6172 9.31034 23.3793V18.6207H6.62069C6.04138 18.6207 5.56552 19.2414 5.56552 19.9862V22.6966C5.56552 23.431 6.05172 24.0621 6.62069 24.0621H9.34138ZM22.5414 35.1724C24.4862 35.2138 26.3586 34.7483 28.0345 33.8586C26.731 33.7448 25.7069 32.6586 25.7069 31.3241V30.1345C25.7069 28.7172 26.8552 27.569 28.2724 27.569H31.7379C32.3172 27.569 32.8448 27.7655 33.269 28.0862C33.8276 26.7207 34.1379 25.2724 34.1379 23.7828V18.6103H33.6414C29.8138 18.6103 26.0586 17.5965 22.7586 15.6828C19.4586 17.6069 15.7034 18.6103 11.8759 18.6103H11.3793V23.369C11.3793 29.7517 16.3862 35.0483 22.5414 35.1621V35.1724ZM17.5862 38.2862L22.7586 42.7759L27.931 38.2862V36.1966C26.3069 36.8793 24.5586 37.2414 22.7586 37.2414C22.6759 37.2414 22.5931 37.2414 22.5103 37.2414C20.7724 37.2103 19.1069 36.8172 17.5862 36.1552V38.2862ZM13.3966 39.3L16.0862 46.3138L20.9069 43.9138L14.5655 38.4L13.3966 39.3ZM43.4483 53.969C38.3069 52.3345 34.5621 47.5241 34.5621 41.8448C34.5621 41.2034 34.6241 40.5724 34.7172 39.9517L34.1172 39.869L30.9414 48.1241C30.8379 48.3931 30.6207 48.6103 30.3517 48.7138C30.2276 48.7655 30.1034 48.7862 29.9793 48.7862C29.8241 48.7862 29.6586 48.7448 29.5138 48.6724L22.7483 45.3L15.9828 48.6724C15.8379 48.7448 15.6828 48.7862 15.5172 48.7862C15.3931 48.7862 15.2586 48.7655 15.1448 48.7138C14.8759 48.6103 14.6586 48.3931 14.5552 48.1241L11.3793 39.869L10.2621 40.0241C8.91724 40.2103 7.64483 40.6655 6.47586 41.369C3.74483 43.0138 2.04828 46.0138 2.04828 49.2V57.931H7.73793V52.7586C7.73793 52.1897 8.20345 51.7241 8.77241 51.7241C9.34138 51.7241 9.8069 52.1897 9.8069 52.7586V57.931H35.669V52.7586C35.669 52.1897 36.1345 51.7241 36.7034 51.7241C37.2724 51.7241 37.7379 52.1897 37.7379 52.7586V57.931H43.4276V53.969H43.4483ZM57.931 41.8448C57.931 35.969 53.1517 31.2 47.2862 31.2C41.4207 31.2 36.6414 35.9793 36.6414 41.8448C36.6414 47.7103 41.4207 52.4897 47.2862 52.4897C53.1517 52.4897 57.931 47.7103 57.931 41.8448ZM44.3069 37.0552H41.6483C41.0793 37.0552 40.6138 37.5207 40.6138 38.0897C40.6138 38.6586 41.0793 39.1241 41.6483 39.1241L44.2655 39.0828L44.2966 40.6552L42.4448 41.1621C41.369 41.4621 40.6138 42.4448 40.6138 43.5724V45.6C40.6138 46.169 41.0793 46.6345 41.6483 46.6345H45.3C45.869 46.6345 46.3345 46.169 46.3345 45.6C46.3345 45.031 45.869 44.5655 45.3 44.5655H42.6828V43.5724C42.6828 43.3759 42.8069 43.2103 42.9931 43.1586L44.8448 42.6517C45.7241 42.4138 46.3345 41.6069 46.3345 40.6965V39.0828C46.3345 37.9655 45.4241 37.0552 44.3069 37.0552ZM52.9138 37.0552C52.3448 37.0552 51.8793 37.5207 51.8793 38.0897V40.8103H49.831V38.0897C49.831 37.5207 49.3655 37.0552 48.7965 37.0552C48.2276 37.0552 47.7621 37.5207 47.7621 38.0897V41.8448C47.7621 42.4138 48.2276 42.8793 48.7965 42.8793H51.8793V45.6C51.8793 46.169 52.3448 46.6345 52.9138 46.6345C53.4828 46.6345 53.9483 46.169 53.9483 45.6V38.0793C53.9483 37.5103 53.4828 37.0448 52.9138 37.0448V37.0552Z" fill="#F15A24"/>
</g>
<defs>
<clipPath id="clip0_613_9182">
<rect width="59.02" height="60" fill="white" transform="translate(0.48999)"/>
</clipPath>
</defs>
</svg>
