<svg width="40" height="32" viewBox="0 0 40 32" fill="none" xmlns="http://www.w3.org/2000/svg">
<path d="M28.0881 22.1064C27.3651 22.1064 26.6424 21.8307 26.0908 21.2792C22.7325 17.9209 17.2682 17.9209 13.9099 21.2792C12.8067 22.3822 11.0183 22.3822 9.91527 21.2792C8.8121 20.176 8.8121 18.3875 9.91527 17.2844C15.4761 11.7235 24.5246 11.7235 30.0855 17.2844C31.1886 18.3875 31.1886 20.176 30.0855 21.2792C29.5339 21.8307 28.811 22.1064 28.0881 22.1064Z" stroke="#F15A24" stroke-width="2.5" stroke-miterlimit="10" stroke-linecap="round" stroke-linejoin="round"/>
<path d="M36.1757 14.0186C35.4529 14.0186 34.73 13.7428 34.1783 13.1913C26.3604 5.37355 13.6401 5.37355 5.82202 13.1913C4.71897 14.2943 2.93054 14.2943 1.82738 13.1913C0.724208 12.0881 0.724208 10.2997 1.82738 9.19656C11.848 -0.823851 28.1525 -0.823851 38.1731 9.19656C39.2762 10.2997 39.2762 12.0881 38.1731 13.1913C37.6215 13.7428 36.8986 14.0186 36.1757 14.0186Z" stroke="#F15A24" stroke-width="2.5" stroke-miterlimit="10" stroke-linecap="round" stroke-linejoin="round"/>
<path d="M22.8249 27.4234C22.8249 25.8634 21.5603 24.5988 20.0002 24.5988C18.4401 24.5988 17.1755 25.8634 17.1755 27.4234C17.1755 28.9834 18.4401 30.248 20.0002 30.248C21.5603 30.248 22.8249 28.9834 22.8249 27.4234Z" stroke="#F15A24" stroke-width="2.5" stroke-miterlimit="10" stroke-linecap="round" stroke-linejoin="round"/>
</svg>
