<svg width="51" height="51" viewBox="0 0 51 51" fill="none" xmlns="http://www.w3.org/2000/svg">
<path d="M12.6823 0H38.3177C45.322 0 51 5.67804 51 12.6823V38.3177C51 45.322 45.322 51 38.3177 51H12.6823C5.67804 51 0 45.322 0 38.3177V12.6823C0 5.67804 5.67804 0 12.6823 0Z" fill="white"/>
<path d="M31.4138 9.98486H39.517C39.9206 9.98513 40.3076 10.1456 40.593 10.4309C40.8784 10.7163 41.0388 11.1033 41.0391 11.5069V19.6111C41.0391 20.0148 40.8787 20.4019 40.5933 20.6874C40.3078 20.9728 39.9207 21.1331 39.517 21.1331C39.1134 21.1331 38.7262 20.9728 38.4408 20.6874C38.1554 20.4019 37.995 20.0148 37.995 19.6111V13.0289H31.4138C31.0101 13.0289 30.623 12.8686 30.3376 12.5831C30.0521 12.2977 29.8918 11.9106 29.8918 11.5069C29.8918 11.1032 30.0521 10.7161 30.3376 10.4307C30.623 10.1452 31.0101 9.98486 31.4138 9.98486Z" fill="#F15A24"/>
<path d="M11.483 9.98486H19.5862C19.9899 9.98486 20.377 10.1452 20.6624 10.4307C20.9479 10.7161 21.1082 11.1032 21.1082 11.5069C21.1082 11.9106 20.9479 12.2977 20.6624 12.5831C20.377 12.8686 19.9899 13.0289 19.5862 13.0289H13.005V19.6111C13.005 19.811 12.9656 20.0089 12.8891 20.1936C12.8127 20.3782 12.7005 20.546 12.5592 20.6874C12.4179 20.8287 12.2501 20.9408 12.0654 21.0173C11.8808 21.0938 11.6828 21.1331 11.483 21.1331C11.2831 21.1331 11.0852 21.0938 10.9005 21.0173C10.7158 20.9408 10.5481 20.8287 10.4067 20.6874C10.2654 20.546 10.1533 20.3782 10.0768 20.1936C10.0003 20.0089 9.96094 19.811 9.96094 19.6111V11.5069C9.9612 11.1033 10.1216 10.7163 10.407 10.4309C10.6924 10.1456 11.0794 9.98513 11.483 9.98486Z" fill="#F15A24"/>
<path d="M11.483 29.8667C11.8866 29.867 12.2735 30.0274 12.5589 30.3128C12.8443 30.5982 13.0047 30.9851 13.005 31.3887V37.9709H19.5862C19.9899 37.9709 20.377 38.1313 20.6624 38.4167C20.9479 38.7021 21.1082 39.0893 21.1082 39.493C21.1082 39.8966 20.9479 40.2838 20.6624 40.5692C20.377 40.8546 19.9899 41.015 19.5862 41.015H11.483C11.0793 41.015 10.6922 40.8546 10.4067 40.5692C10.1213 40.2838 9.96094 39.8966 9.96094 39.493V31.3887C9.9612 30.9851 10.1216 30.5982 10.407 30.3128C10.6924 30.0274 11.0794 29.867 11.483 29.8667Z" fill="#F15A24"/>
<path d="M31.4138 37.9709H37.995V31.3887C37.995 30.9851 38.1554 30.5979 38.4408 30.3125C38.7262 30.0271 39.1134 29.8667 39.517 29.8667C39.9207 29.8667 40.3078 30.0271 40.5933 30.3125C40.8787 30.5979 41.0391 30.9851 41.0391 31.3887V39.493C41.0391 39.8966 40.8787 40.2838 40.5933 40.5692C40.3078 40.8546 39.9207 41.015 39.517 41.015H31.4138C31.0101 41.015 30.623 40.8546 30.3376 40.5692C30.0521 40.2838 29.8918 39.8966 29.8918 39.493C29.8918 39.0893 30.0521 38.7021 30.3376 38.4167C30.623 38.1313 31.0101 37.9709 31.4138 37.9709Z" fill="#F15A24"/>
</svg>
